<svg width="94" height="83" viewBox="0 0 94 83" fill="none" xmlns="http://www.w3.org/2000/svg">
<g filter="url(#filter0_d_238_1008)">
<path d="M49.0749 8.80582L48.844 8.42897C48.6946 8.51941 48.6125 8.68856 48.6345 8.86106C48.6563 9.03347 48.7781 9.17712 48.9455 9.22785L49.0749 8.80582ZM44.925 8.80582L45.0545 9.22785C45.2219 9.17712 45.3437 9.03347 45.3656 8.86106C45.3874 8.68856 45.3054 8.51941 45.1559 8.42897L44.925 8.80582ZM50.5522 5.41177C50.5522 6.6894 49.8692 7.80894 48.844 8.42897L49.3058 9.18268C50.5846 8.40921 51.4402 7.00997 51.4402 5.41177H50.5522ZM47 1.88235C48.9618 1.88235 50.5522 3.46252 50.5522 5.41177H51.4402C51.4402 2.97522 49.4523 1 47 1V1.88235ZM43.4478 5.41177C43.4478 3.46252 45.0382 1.88235 47 1.88235V1C44.5477 1 42.5598 2.97522 42.5598 5.41177H43.4478ZM45.1559 8.42897C44.1308 7.80894 43.4478 6.68941 43.4478 5.41177H42.5598C42.5598 7.00997 43.4154 8.40921 44.6942 9.18268L45.1559 8.42897ZM44.7955 8.38379C41.9922 9.23315 39.8811 11.6592 39.5098 14.6237L40.391 14.7327C40.7184 12.1192 42.581 9.97723 45.0545 9.22785L44.7955 8.38379ZM39.5098 14.6237C39.4117 15.4072 40.0649 16 40.7837 16V15.1176C40.5216 15.1176 40.368 14.9164 40.391 14.7327L39.5098 14.6237ZM40.7837 16H53.2163V15.1176H40.7837V16ZM53.2163 16C53.9351 16 54.5883 15.4072 54.4902 14.6237L53.6089 14.7327C53.6319 14.9164 53.4784 15.1176 53.2163 15.1176V16ZM54.4902 14.6237C54.1189 11.6592 52.0078 9.23315 49.2044 8.38379L48.9455 9.22785C51.419 9.97723 53.2816 12.1192 53.6089 14.7327L54.4902 14.6237Z" fill="#5E2BA7"/>
</g>
<g filter="url(#filter1_d_238_1008)">
<path d="M57.0092 5.48407C57.009 5.48401 57.0088 5.48395 57.0086 5.48389L57.0086 5.48389L56.9125 5.4548L56.917 5.44023C56.8386 5.38705 56.7848 5.30222 56.7725 5.20513M57.0092 5.48407L59.3154 8.42941H59.2154H52.7847H52.6847C52.5995 8.42941 52.5703 8.36948 52.5745 8.33652C52.744 6.98321 53.7085 5.87306 54.9902 5.48425C54.9906 5.48413 54.991 5.48401 54.9914 5.48389L54.9914 5.48389L55.0875 5.45479L55.083 5.44022C55.1614 5.38705 55.2152 5.30223 55.2275 5.20518L55.2275 5.20513C55.2398 5.10808 55.2089 5.01261 55.1463 4.94168L55.1543 4.9286L55.0683 4.87656L55.0682 4.87655C55.0681 4.87649 55.0681 4.87644 55.068 4.87638C54.5499 4.56292 54.2055 3.99761 54.2055 3.35294C54.2055 2.36918 55.0083 1.57059 56 1.57059C56.9917 1.57059 57.7945 2.36918 57.7945 3.35294C57.7945 3.99743 57.4503 4.56261 56.9325 4.87612C56.9322 4.87626 56.932 4.87641 56.9317 4.87655L56.9317 4.87656L56.8457 4.9286L56.8537 4.94169C56.7911 5.01261 56.7602 5.10808 56.7725 5.20513M57.0092 5.48407C58.2912 5.87273 59.256 6.98301 59.4255 8.33652L57.0092 5.48407ZM56.7725 5.20513L56.8717 5.19256M56.7725 5.20513C56.7725 5.20515 56.7725 5.20516 56.7725 5.20518L56.8717 5.19256M56.8717 5.19256C56.879 5.24976 56.9068 5.30102 56.9483 5.33811L56.942 5.35886L56.8717 5.19256ZM55.0162 5.22262L55.0022 5.17689L55.0162 5.22262ZM51.8999 8.35371C51.9017 8.75322 52.2212 9.04738 52.5847 9.09364V9.1H52.6847H52.7847H59.2154H59.3154H59.4154V9.09364C59.7788 9.04738 60.0983 8.75322 60.1001 8.35372L60.1064 8.35293L60.094 8.25355C60.094 8.25333 60.0939 8.2531 60.0939 8.25288L60.0816 8.15448L60.0804 8.15463C59.8745 6.78384 58.9866 5.63585 57.7714 5.06089C58.1806 4.64181 58.4409 4.07759 58.4661 3.45294H58.4681V3.35294V3.25294H58.4661C58.4146 1.97703 57.3828 0.952798 56.1 0.901977V0.9H56H55.9V0.901977C54.6172 0.952797 53.5854 1.97702 53.5339 3.25294H53.5319V3.35294V3.45294H53.5339C53.5591 4.07759 53.8194 4.64181 54.2285 5.06089C53.0134 5.63584 52.1255 6.78384 51.9196 8.15463L51.9184 8.15448L51.906 8.25355L51.8936 8.35293L51.8999 8.35371Z" fill="#5E2BA7" stroke="#5E2BA7" stroke-width="0.2"/>
</g>
<g filter="url(#filter2_d_238_1008)">
<path d="M39.0092 5.48407C39.009 5.48401 39.0088 5.48395 39.0086 5.48389L39.0086 5.48389L38.9125 5.4548L38.917 5.44023C38.8386 5.38705 38.7848 5.30222 38.7725 5.20513M39.0092 5.48407L41.3154 8.42941H41.2154H34.7847H34.6847C34.5995 8.42941 34.5703 8.36948 34.5745 8.33652C34.744 6.98321 35.7085 5.87306 36.9902 5.48425C36.9906 5.48413 36.991 5.48401 36.9914 5.48389L36.9914 5.48389L37.0875 5.45479L37.083 5.44022C37.1614 5.38705 37.2152 5.30223 37.2275 5.20518L37.2275 5.20513C37.2398 5.10808 37.2089 5.01261 37.1463 4.94168L37.1543 4.9286L37.0683 4.87656L37.0682 4.87655C37.0681 4.87649 37.0681 4.87644 37.068 4.87638C36.5499 4.56292 36.2055 3.99761 36.2055 3.35294C36.2055 2.36918 37.0083 1.57059 38 1.57059C38.9917 1.57059 39.7945 2.36918 39.7945 3.35294C39.7945 3.99743 39.4503 4.56261 38.9325 4.87612C38.9322 4.87626 38.932 4.87641 38.9317 4.87655L38.9317 4.87656L38.8457 4.9286L38.8537 4.94169C38.7911 5.01261 38.7602 5.10808 38.7725 5.20513M39.0092 5.48407C40.2912 5.87273 41.256 6.98301 41.4255 8.33652L39.0092 5.48407ZM38.7725 5.20513L38.8717 5.19256M38.7725 5.20513C38.7725 5.20515 38.7725 5.20516 38.7725 5.20518L38.8717 5.19256M38.8717 5.19256C38.879 5.24976 38.9068 5.30102 38.9483 5.33811L38.942 5.35886L38.8717 5.19256ZM37.0162 5.22262L37.0022 5.17689L37.0162 5.22262ZM33.8999 8.35371C33.9017 8.75322 34.2212 9.04738 34.5847 9.09364V9.1H34.6847H34.7847H41.2154H41.3154H41.4154V9.09364C41.7788 9.04738 42.0983 8.75322 42.1001 8.35372L42.1064 8.35293L42.094 8.25355C42.094 8.25333 42.0939 8.2531 42.0939 8.25288L42.0816 8.15448L42.0804 8.15463C41.8745 6.78384 40.9866 5.63585 39.7714 5.06089C40.1806 4.64181 40.4409 4.07759 40.4661 3.45294H40.4681V3.35294V3.25294H40.4661C40.4146 1.97703 39.3828 0.952798 38.1 0.901977V0.9H38H37.9V0.901977C36.6172 0.952797 35.5854 1.97702 35.5339 3.25294H35.5319V3.35294V3.45294H35.5339C35.5591 4.07759 35.8194 4.64181 36.2285 5.06089C35.0134 5.63584 34.1255 6.78384 33.9196 8.15463L33.9184 8.15448L33.906 8.25355L33.8936 8.35293L33.8999 8.35371Z" fill="#5E2BA7" stroke="#5E2BA7" stroke-width="0.2"/>
</g>
<defs>
<filter id="filter0_d_238_1008" x="6.16667" y="1" width="81.6667" height="81.6667" filterUnits="userSpaceOnUse" color-interpolation-filters="sRGB">
<feFlood flood-opacity="0" result="BackgroundImageFix"/>
<feColorMatrix in="SourceAlpha" type="matrix" values="0 0 0 0 0 0 0 0 0 0 0 0 0 0 0 0 0 0 127 0" result="hardAlpha"/>
<feOffset dy="33.3333"/>
<feGaussianBlur stdDeviation="16.6667"/>
<feColorMatrix type="matrix" values="0 0 0 0 0 0 0 0 0 0 0 0 0 0 0 0 0 0 0.1 0"/>
<feBlend mode="normal" in2="BackgroundImageFix" result="effect1_dropShadow_238_1008"/>
<feBlend mode="normal" in="SourceGraphic" in2="effect1_dropShadow_238_1008" result="shape"/>
</filter>
<filter id="filter1_d_238_1008" x="18.4655" y="0.800049" width="75.069" height="75.0666" filterUnits="userSpaceOnUse" color-interpolation-filters="sRGB">
<feFlood flood-opacity="0" result="BackgroundImageFix"/>
<feColorMatrix in="SourceAlpha" type="matrix" values="0 0 0 0 0 0 0 0 0 0 0 0 0 0 0 0 0 0 127 0" result="hardAlpha"/>
<feOffset dy="33.3333"/>
<feGaussianBlur stdDeviation="16.6667"/>
<feColorMatrix type="matrix" values="0 0 0 0 0 0 0 0 0 0 0 0 0 0 0 0 0 0 0.1 0"/>
<feBlend mode="normal" in2="BackgroundImageFix" result="effect1_dropShadow_238_1008"/>
<feBlend mode="normal" in="SourceGraphic" in2="effect1_dropShadow_238_1008" result="shape"/>
</filter>
<filter id="filter2_d_238_1008" x="0.465496" y="0.800049" width="75.069" height="75.0666" filterUnits="userSpaceOnUse" color-interpolation-filters="sRGB">
<feFlood flood-opacity="0" result="BackgroundImageFix"/>
<feColorMatrix in="SourceAlpha" type="matrix" values="0 0 0 0 0 0 0 0 0 0 0 0 0 0 0 0 0 0 127 0" result="hardAlpha"/>
<feOffset dy="33.3333"/>
<feGaussianBlur stdDeviation="16.6667"/>
<feColorMatrix type="matrix" values="0 0 0 0 0 0 0 0 0 0 0 0 0 0 0 0 0 0 0.1 0"/>
<feBlend mode="normal" in2="BackgroundImageFix" result="effect1_dropShadow_238_1008"/>
<feBlend mode="normal" in="SourceGraphic" in2="effect1_dropShadow_238_1008" result="shape"/>
</filter>
</defs>
</svg>
