<svg width="97" height="85" viewBox="0 0 97 85" fill="none" xmlns="http://www.w3.org/2000/svg">
<g filter="url(#filter0_d_238_1008)">
<path d="M51.086 9.8466L50.8243 9.4195C50.6549 9.522 50.5619 9.7137 50.5868 9.9092C50.6115 10.1046 50.7495 10.2674 50.9392 10.3249L51.086 9.8466ZM46.3828 9.8466L46.5295 10.3249C46.7192 10.2674 46.8572 10.1046 46.882 9.9092C46.9068 9.7137 46.8138 9.522 46.6444 9.4195L46.3828 9.8466ZM52.7602 6C52.7602 7.44799 51.9861 8.7168 50.8243 9.4195L51.3476 10.2737C52.7969 9.3971 53.7666 7.8113 53.7666 6H52.7602ZM48.7344 2C50.9577 2 52.7602 3.79086 52.7602 6H53.7666C53.7666 3.23858 51.5136 1 48.7344 1V2ZM44.7086 6C44.7086 3.79086 46.511 2 48.7344 2V1C45.9552 1 43.7021 3.23858 43.7021 6H44.7086ZM46.6444 9.4195C45.4826 8.7168 44.7086 7.448 44.7086 6H43.7021C43.7021 7.8113 44.6718 9.3971 46.1211 10.2737L46.6444 9.4195ZM46.236 9.3683C43.0589 10.3309 40.6663 13.0804 40.2455 16.4402L41.2442 16.5637C41.6152 13.6018 43.7262 11.1742 46.5295 10.3249L46.236 9.3683ZM40.2455 16.4402C40.1343 17.3282 40.8746 18 41.6893 18V17C41.3922 17 41.2182 16.7719 41.2442 16.5637L40.2455 16.4402ZM41.6893 18H55.7795V17H41.6893V18ZM55.7795 18C56.5941 18 57.3345 17.3282 57.2233 16.4402L56.2245 16.5637C56.2505 16.7719 56.0765 17 55.7795 17V18ZM57.2233 16.4402C56.8025 13.0804 54.4098 10.3309 51.2327 9.3683L50.9392 10.3249C53.7426 11.1742 55.8535 13.6018 56.2245 16.5637L57.2233 16.4402Z" fill="#5E2BA7"/>
</g>
<g filter="url(#filter1_d_238_1008)">
<path d="M59.9966 5.40485L59.9966 5.40483C60.5877 5.04732 60.9808 4.40231 60.9808 3.66667C60.9808 2.54429 60.0649 1.63333 58.9337 1.63333C57.8025 1.63333 56.8866 2.54429 56.8866 3.66667C56.8866 4.40231 57.2797 5.04732 57.8708 5.40483L57.8708 5.40484C57.9948 5.47985 58.0632 5.62044 58.045 5.76414L58.045 5.76419C58.0267 5.9078 57.9254 6.02696 57.7868 6.06898L57.7868 6.06898C56.3286 6.51076 55.231 7.7735 55.0382 9.31307C55.0324 9.35908 55.0726 9.43333 55.1763 9.43333H62.6911C62.7949 9.43333 62.835 9.3591 62.8292 9.31306M59.9966 5.40485L62.8292 9.31306M59.9966 5.40485C59.8726 5.47985 59.8042 5.62043 59.8225 5.76414M59.9966 5.40485L62.9284 9.30064L62.8292 9.31306M62.8292 9.31306C62.6364 7.7735 61.5389 6.51076 60.0806 6.06898L60.0806 6.06898C59.942 6.02696 59.8407 5.90779 59.8225 5.76414M59.8225 5.76414L59.9217 5.75157L59.8225 5.76419C59.8225 5.76417 59.8225 5.76416 59.8225 5.76414ZM63.5604 9.22235C63.3594 7.61764 62.3337 6.26893 60.9187 5.60641C61.4124 5.10744 61.7176 4.42265 61.7176 3.66667C61.7176 2.13808 60.4706 0.9 58.9337 0.9C57.3969 0.9 56.1499 2.13808 56.1499 3.66667C56.1499 4.42265 56.4551 5.10743 56.9488 5.6064C55.5338 6.26892 54.5081 7.61764 54.3071 9.22235C54.239 9.76571 54.6923 10.1667 55.1763 10.1667H62.6911C63.1751 10.1667 63.6284 9.76571 63.5604 9.22235Z" fill="#5E2BA7" stroke="#5E2BA7" stroke-width="0.2"/>
</g>
<g filter="url(#filter2_d_238_1008)">
<path d="M39.5962 5.40485L39.5962 5.40483C40.1873 5.04732 40.5804 4.40231 40.5804 3.66667C40.5804 2.54429 39.6645 1.63333 38.5333 1.63333C37.4021 1.63333 36.4862 2.54429 36.4862 3.66667C36.4862 4.40231 36.8794 5.04732 37.4704 5.40483L37.4705 5.40484C37.5944 5.47985 37.6628 5.62044 37.6446 5.76414L37.6446 5.76419C37.6264 5.9078 37.525 6.02696 37.3864 6.06898L37.3864 6.06898C35.9282 6.51076 34.8306 7.7735 34.6378 9.31307C34.6321 9.35908 34.6722 9.43333 34.7759 9.43333H42.2907C42.3945 9.43333 42.4346 9.3591 42.4288 9.31306M39.5962 5.40485L42.4288 9.31306M39.5962 5.40485C39.4722 5.47985 39.4038 5.62043 39.4221 5.76414M39.5962 5.40485L42.528 9.30064L42.4288 9.31306M42.4288 9.31306C42.236 7.7735 41.1385 6.51076 39.6803 6.06898L39.6802 6.06898C39.5416 6.02696 39.4403 5.90779 39.4221 5.76414M39.4221 5.76414L39.5213 5.75157L39.4221 5.76419C39.4221 5.76417 39.4221 5.76416 39.4221 5.76414ZM43.16 9.22235C42.959 7.61764 41.9333 6.26893 40.5183 5.60641C41.012 5.10744 41.3172 4.42265 41.3172 3.66667C41.3172 2.13808 40.0702 0.9 38.5333 0.9C36.9965 0.9 35.7495 2.13808 35.7495 3.66667C35.7495 4.42265 36.0547 5.10743 36.5484 5.6064C35.1334 6.26892 34.1077 7.61764 33.9067 9.22235C33.8387 9.76571 34.2919 10.1667 34.7759 10.1667H42.2907C42.7747 10.1667 43.228 9.76571 43.16 9.22235Z" fill="#5E2BA7" stroke="#5E2BA7" stroke-width="0.2"/>
</g>
<defs>
<filter id="filter0_d_238_1008" x="6.90104" y="1" width="83.6667" height="83.6667" filterUnits="userSpaceOnUse" color-interpolation-filters="sRGB">
<feFlood flood-opacity="0" result="BackgroundImageFix"/>
<feColorMatrix in="SourceAlpha" type="matrix" values="0 0 0 0 0 0 0 0 0 0 0 0 0 0 0 0 0 0 127 0" result="hardAlpha"/>
<feOffset dy="33.3333"/>
<feGaussianBlur stdDeviation="16.6667"/>
<feColorMatrix type="matrix" values="0 0 0 0 0 0 0 0 0 0 0 0 0 0 0 0 0 0 0.1 0"/>
<feBlend mode="normal" in2="BackgroundImageFix" result="effect1_dropShadow_238_1008"/>
<feBlend mode="normal" in="SourceGraphic" in2="effect1_dropShadow_238_1008" result="shape"/>
</filter>
<filter id="filter1_d_238_1008" x="20.8659" y="0.800049" width="76.1354" height="76.1333" filterUnits="userSpaceOnUse" color-interpolation-filters="sRGB">
<feFlood flood-opacity="0" result="BackgroundImageFix"/>
<feColorMatrix in="SourceAlpha" type="matrix" values="0 0 0 0 0 0 0 0 0 0 0 0 0 0 0 0 0 0 127 0" result="hardAlpha"/>
<feOffset dy="33.3333"/>
<feGaussianBlur stdDeviation="16.6667"/>
<feColorMatrix type="matrix" values="0 0 0 0 0 0 0 0 0 0 0 0 0 0 0 0 0 0 0.1 0"/>
<feBlend mode="normal" in2="BackgroundImageFix" result="effect1_dropShadow_238_1008"/>
<feBlend mode="normal" in="SourceGraphic" in2="effect1_dropShadow_238_1008" result="shape"/>
</filter>
<filter id="filter2_d_238_1008" x="0.465496" y="0.800049" width="76.1354" height="76.1333" filterUnits="userSpaceOnUse" color-interpolation-filters="sRGB">
<feFlood flood-opacity="0" result="BackgroundImageFix"/>
<feColorMatrix in="SourceAlpha" type="matrix" values="0 0 0 0 0 0 0 0 0 0 0 0 0 0 0 0 0 0 127 0" result="hardAlpha"/>
<feOffset dy="33.3333"/>
<feGaussianBlur stdDeviation="16.6667"/>
<feColorMatrix type="matrix" values="0 0 0 0 0 0 0 0 0 0 0 0 0 0 0 0 0 0 0.1 0"/>
<feBlend mode="normal" in2="BackgroundImageFix" result="effect1_dropShadow_238_1008"/>
<feBlend mode="normal" in="SourceGraphic" in2="effect1_dropShadow_238_1008" result="shape"/>
</filter>
</defs>
</svg>
