<svg width="31" height="18" viewBox="0 0 31 18" fill="none" xmlns="http://www.w3.org/2000/svg">
<path d="M18.086 9.8466L17.8243 9.4195C17.6549 9.522 17.5619 9.7137 17.5868 9.9092C17.6115 10.1046 17.7495 10.2674 17.9392 10.3249L18.086 9.8466ZM13.3828 9.8466L13.5295 10.3249C13.7192 10.2674 13.8572 10.1046 13.882 9.9092C13.9068 9.7137 13.8138 9.522 13.6444 9.4195L13.3828 9.8466ZM19.7602 6C19.7602 7.44799 18.9861 8.7168 17.8243 9.4195L18.3476 10.2737C19.7969 9.3971 20.7666 7.8113 20.7666 6H19.7602ZM15.7344 2C17.9577 2 19.7602 3.79086 19.7602 6H20.7666C20.7666 3.23858 18.5136 1 15.7344 1V2ZM11.7086 6C11.7086 3.79086 13.511 2 15.7344 2V1C12.9552 1 10.7021 3.23858 10.7021 6H11.7086ZM13.6444 9.4195C12.4826 8.7168 11.7086 7.448 11.7086 6H10.7021C10.7021 7.8113 11.6718 9.3971 13.1211 10.2737L13.6444 9.4195ZM13.236 9.3683C10.0589 10.3309 7.66631 13.0804 7.2455 16.4402L8.24423 16.5637C8.61521 13.6018 10.7262 11.1742 13.5295 10.3249L13.236 9.3683ZM7.2455 16.4402C7.13427 17.3282 7.87463 18 8.68926 18V17C8.39221 17 8.21816 16.7719 8.24423 16.5637L7.2455 16.4402ZM8.68926 18H22.7795V17H8.68926V18ZM22.7795 18C23.5941 18 24.3345 17.3282 24.2233 16.4402L23.2245 16.5637C23.2505 16.7719 23.0765 17 22.7795 17V18ZM24.2233 16.4402C23.8025 13.0804 21.4098 10.3309 18.2327 9.3683L17.9392 10.3249C20.7426 11.1742 22.8535 13.6018 23.2245 16.5637L24.2233 16.4402Z" fill="#5E2BA7"/>
<path d="M27.1879 5.71819L27.0483 5.4904C26.958 5.54507 26.9084 5.64731 26.9217 5.75157C26.9349 5.85579 27.0085 5.94261 27.1096 5.97328L27.1879 5.71819ZM24.6795 5.71819L24.7578 5.97328C24.859 5.94261 24.9326 5.85579 24.9458 5.75157C24.959 5.64731 24.9094 5.54507 24.8191 5.4904L24.6795 5.71819ZM28.0808 3.66667C28.0808 4.43893 27.668 5.11563 27.0483 5.4904L27.3275 5.94597C28.1004 5.47845 28.6176 4.63269 28.6176 3.66667H28.0808ZM25.9337 1.53333C27.1195 1.53333 28.0808 2.48846 28.0808 3.66667H28.6176C28.6176 2.19391 27.416 1 25.9337 1V1.53333ZM23.7866 3.66667C23.7866 2.48846 24.7479 1.53333 25.9337 1.53333V1C24.4515 1 23.2499 2.19391 23.2499 3.66667H23.7866ZM24.8191 5.4904C24.1995 5.11563 23.7866 4.43893 23.7866 3.66667H23.2499C23.2499 4.63269 23.767 5.47845 24.54 5.94597L24.8191 5.4904ZM24.6013 5.46309C22.9068 5.97648 21.6308 7.44288 21.4063 9.23477L21.939 9.30064C22.1368 7.72096 23.2627 6.42624 24.7578 5.97328L24.6013 5.46309ZM21.4063 9.23477C21.347 9.70837 21.7419 10.0667 22.1763 10.0667V9.53333C22.0179 9.53333 21.9251 9.41168 21.939 9.30064L21.4063 9.23477ZM22.1763 10.0667H29.6911V9.53333H22.1763V10.0667ZM29.6911 10.0667C30.1256 10.0667 30.5204 9.70837 30.4611 9.23477L29.9284 9.30064C29.9423 9.41168 29.8495 9.53333 29.6911 9.53333V10.0667ZM30.4611 9.23477C30.2367 7.44288 28.9606 5.97648 27.2662 5.46309L27.1096 5.97328C28.6048 6.42624 29.7306 7.72096 29.9284 9.30064L30.4611 9.23477Z" fill="#5E2BA7"/>
<path d="M27.0483 5.4904L27.1879 5.71819L27.1096 5.97328M27.0483 5.4904C26.958 5.54507 26.9084 5.64731 26.9217 5.75157C26.9349 5.85579 27.0085 5.94261 27.1096 5.97328M27.0483 5.4904C27.668 5.11563 28.0808 4.43893 28.0808 3.66667M27.0483 5.4904L27.3275 5.94597C28.1004 5.47845 28.6176 4.63269 28.6176 3.66667M27.1096 5.97328L27.2662 5.46309C28.9606 5.97648 30.2367 7.44288 30.4611 9.23477M27.1096 5.97328C28.6048 6.42624 29.7306 7.72096 29.9284 9.30064M24.7578 5.97328L24.6795 5.71819L24.8191 5.4904M24.7578 5.97328C24.859 5.94261 24.9326 5.85579 24.9458 5.75157C24.959 5.64731 24.9094 5.54507 24.8191 5.4904M24.7578 5.97328C23.2627 6.42624 22.1368 7.72096 21.939 9.30064M24.7578 5.97328L24.6013 5.46309C22.9068 5.97648 21.6308 7.44288 21.4063 9.23477M24.8191 5.4904C24.1995 5.11563 23.7866 4.43893 23.7866 3.66667M24.8191 5.4904L24.54 5.94597C23.767 5.47845 23.2499 4.63269 23.2499 3.66667M21.6727 9.26773L21.4063 9.23477M21.4063 9.23477L21.939 9.30064M21.4063 9.23477C21.347 9.70837 21.7419 10.0667 22.1763 10.0667M30.1948 9.26773L30.4611 9.23477M30.4611 9.23477C30.5204 9.70837 30.1256 10.0667 29.6911 10.0667M30.4611 9.23477L29.9284 9.30064M28.0808 3.66667H28.6176M28.0808 3.66667C28.0808 2.48846 27.1195 1.53333 25.9337 1.53333M28.6176 3.66667C28.6176 2.19391 27.416 1 25.9337 1M25.9337 1.53333V1M25.9337 1.53333C24.7479 1.53333 23.7866 2.48846 23.7866 3.66667M25.9337 1C24.4515 1 23.2499 2.19391 23.2499 3.66667M23.7866 3.66667H23.2499M21.939 9.30064C21.9251 9.41168 22.0179 9.53333 22.1763 9.53333M22.1763 10.0667V9.53333M22.1763 10.0667H29.6911M22.1763 9.53333H29.6911M29.6911 10.0667V9.53333M29.6911 9.53333C29.8495 9.53333 29.9423 9.41168 29.9284 9.30064" stroke="#5E2BA7" stroke-width="0.4"/>
<path d="M6.78751 5.71819L6.64795 5.4904C6.55761 5.54507 6.50802 5.64731 6.52127 5.75157C6.53448 5.85579 6.60807 5.94261 6.70925 5.97328L6.78751 5.71819ZM4.27913 5.71819L4.35741 5.97328C4.45857 5.94261 4.53217 5.85579 4.54543 5.75157C4.55863 5.64731 4.50903 5.54507 4.41869 5.4904L4.27913 5.71819ZM7.68043 3.66667C7.68043 4.43893 7.2676 5.11563 6.64795 5.4904L6.92707 5.94597C7.70002 5.47845 8.2172 4.63269 8.2172 3.66667H7.68043ZM5.53335 1.53333C6.71913 1.53333 7.68043 2.48846 7.68043 3.66667H8.2172C8.2172 2.19391 7.01559 1 5.53335 1V1.53333ZM3.38625 3.66667C3.38625 2.48846 4.34753 1.53333 5.53335 1.53333V1C4.05108 1 2.84948 2.19391 2.84948 3.66667H3.38625ZM4.41869 5.4904C3.79907 5.11563 3.38625 4.43893 3.38625 3.66667H2.84948C2.84948 4.63269 3.36664 5.47845 4.13958 5.94597L4.41869 5.4904ZM4.20086 5.46309C2.50641 5.97648 1.23037 7.44288 1.00593 9.23477L1.53859 9.30064C1.73644 7.72096 2.86228 6.42624 4.35741 5.97328L4.20086 5.46309ZM1.00593 9.23477C0.946613 9.70837 1.34147 10.0667 1.77594 10.0667V9.53333C1.61751 9.53333 1.52469 9.41168 1.53859 9.30064L1.00593 9.23477ZM1.77594 10.0667H9.29074V9.53333H1.77594V10.0667ZM9.29074 10.0667C9.7252 10.0667 10.12 9.70837 10.0607 9.23477L9.52805 9.30064C9.54195 9.41168 9.44914 9.53333 9.29074 9.53333V10.0667ZM10.0607 9.23477C9.83631 7.44288 8.56025 5.97648 6.86577 5.46309L6.70925 5.97328C8.20437 6.42624 9.33019 7.72096 9.52805 9.30064L10.0607 9.23477Z" fill="#5E2BA7"/>
<path d="M6.64795 5.4904L6.78751 5.71819L6.70925 5.97328M6.64795 5.4904C6.55761 5.54507 6.50802 5.64731 6.52127 5.75157C6.53448 5.85579 6.60807 5.94261 6.70925 5.97328M6.64795 5.4904C7.2676 5.11563 7.68043 4.43893 7.68043 3.66667M6.64795 5.4904L6.92707 5.94597C7.70002 5.47845 8.2172 4.63269 8.2172 3.66667M6.70925 5.97328L6.86577 5.46309C8.56025 5.97648 9.83631 7.44288 10.0607 9.23477M6.70925 5.97328C8.20437 6.42624 9.33019 7.72096 9.52805 9.30064M4.35741 5.97328L4.27913 5.71819L4.41869 5.4904M4.35741 5.97328C4.45857 5.94261 4.53217 5.85579 4.54543 5.75157C4.55863 5.64731 4.50903 5.54507 4.41869 5.4904M4.35741 5.97328C2.86228 6.42624 1.73644 7.72096 1.53859 9.30064M4.35741 5.97328L4.20086 5.46309C2.50641 5.97648 1.23037 7.44288 1.00593 9.23477M4.41869 5.4904C3.79907 5.11563 3.38625 4.43893 3.38625 3.66667M4.41869 5.4904L4.13958 5.94597C3.36664 5.47845 2.84948 4.63269 2.84948 3.66667M1.27226 9.26773L1.00593 9.23477M1.00593 9.23477L1.53859 9.30064M1.00593 9.23477C0.946613 9.70837 1.34147 10.0667 1.77594 10.0667M9.79439 9.26773L10.0607 9.23477M10.0607 9.23477C10.12 9.70837 9.7252 10.0667 9.29074 10.0667M10.0607 9.23477L9.52805 9.30064M7.68043 3.66667H8.2172M7.68043 3.66667C7.68043 2.48846 6.71913 1.53333 5.53335 1.53333M8.2172 3.66667C8.2172 2.19391 7.01559 1 5.53335 1M5.53335 1.53333V1M5.53335 1.53333C4.34753 1.53333 3.38625 2.48846 3.38625 3.66667M5.53335 1C4.05108 1 2.84948 2.19391 2.84948 3.66667M3.38625 3.66667H2.84948M1.53859 9.30064C1.52469 9.41168 1.61751 9.53333 1.77594 9.53333M1.77594 10.0667V9.53333M1.77594 10.0667H9.29074M1.77594 9.53333H9.29074M9.29074 10.0667V9.53333M9.29074 9.53333C9.44914 9.53333 9.54195 9.41168 9.52805 9.30064" stroke="#5E2BA7" stroke-width="0.4"/>
</svg>
