<svg width="39" height="19" viewBox="0 0 39 19" fill="none" xmlns="http://www.w3.org/2000/svg">
<path d="M22.086 9.8466L21.8243 9.4195C21.6549 9.522 21.5619 9.7137 21.5868 9.9092C21.6115 10.1046 21.8243 10.3249 21.9392 10.3249L22.086 9.8466ZM17.3827 9.8466L17.5295 10.3249C17.7192 10.2674 17.8572 10.1046 17.882 9.9092C17.9068 9.7137 17.8138 9.522 17.6444 9.4195L17.3827 9.8466ZM23.7602 6C23.7602 7.44799 22.9861 8.7168 21.8243 9.4195L22.5 10C23.9493 9.1234 24.7666 7.8113 24.7666 6H23.7602ZM19.7344 2C21.9577 2 23.7602 3.79086 23.7602 6H24.7666C24.7666 3.23858 22.5136 1 19.7344 1V2ZM15.7086 6C15.7086 3.79086 17.511 2 19.7344 2V1C16.9552 1 14.7021 3.23858 14.7021 6H15.7086ZM17.6444 9.4195C16.4826 8.7168 15.7086 7.448 15.7086 6H14.7021C14.7021 7.8113 15.5507 9.1234 17 10L17.6444 9.4195ZM17 9.5C13.8229 10.4626 11.6663 13.0804 11.2455 16.4402L12.2442 16.5637C12.6152 13.6018 14.7262 11.1742 17.5295 10.3249L17 9.5ZM11.2455 16.4402C11.1343 17.3282 11.8746 18 12.6893 18V17C12.3922 17 12.2182 16.7719 12.2442 16.5637L11.2455 16.4402ZM12.6893 18H26.7795V17H12.6893V18ZM26.7795 18C27.5941 18 28.3345 17.3282 28.2233 16.4402L27.2245 16.5637C27.2505 16.7719 27.0765 17 26.7795 17V18ZM28.2233 16.4402C27.8025 13.0804 25.6771 10.4626 22.5 9.5L21.9392 10.3249C24.7426 11.1742 26.8535 13.6018 27.2245 16.5637L28.2233 16.4402Z" fill="#5E2BA7"/>
<path d="M21.8243 9.4195L22.086 9.8466L21.9392 10.3249M21.8243 9.4195C21.6549 9.522 21.5619 9.7137 21.5868 9.9092C21.6115 10.1046 21.8243 10.3249 21.9392 10.3249M21.8243 9.4195C22.9861 8.7168 23.7602 7.44799 23.7602 6M21.8243 9.4195L22.5 10C23.9493 9.1234 24.7666 7.8113 24.7666 6M21.9392 10.3249L22.5 9.5C25.6771 10.4626 27.8025 13.0804 28.2233 16.4402M21.9392 10.3249C24.7426 11.1742 26.8535 13.6018 27.2245 16.5637M17.5295 10.3249L17.3827 9.8466L17.6444 9.4195M17.5295 10.3249C17.7192 10.2674 17.8572 10.1046 17.882 9.9092C17.9068 9.7137 17.8138 9.522 17.6444 9.4195M17.5295 10.3249C14.7262 11.1742 12.6152 13.6018 12.2442 16.5637M17.5295 10.3249L17 9.5C13.8229 10.4626 11.6663 13.0804 11.2455 16.4402M17.6444 9.4195C16.4826 8.7168 15.7086 7.448 15.7086 6M17.6444 9.4195L17 10C15.5507 9.1234 14.7021 7.8113 14.7021 6M11.7449 16.502L11.2455 16.4402M11.2455 16.4402L12.2442 16.5637M11.2455 16.4402C11.1343 17.3282 11.8746 18 12.6893 18M27.7239 16.502L28.2233 16.4402M28.2233 16.4402C28.3345 17.3282 27.5941 18 26.7795 18M28.2233 16.4402L27.2245 16.5637M23.7602 6H24.7666M23.7602 6C23.7602 3.79086 21.9577 2 19.7344 2M24.7666 6C24.7666 3.23858 22.5136 1 19.7344 1M19.7344 2V1M19.7344 2C17.511 2 15.7086 3.79086 15.7086 6M19.7344 1C16.9552 1 14.7021 3.23858 14.7021 6M15.7086 6H14.7021M12.2442 16.5637C12.2182 16.7719 12.3922 17 12.6893 17M12.6893 18V17M12.6893 18H26.7795M12.6893 17H26.7795M26.7795 18V17M26.7795 17C27.0765 17 27.2505 16.7719 27.2245 16.5637" stroke="#5E2BA7"/>
<path d="M34.3833 6.20388L34.2294 5.95265C34.1297 6.01294 34.075 6.12571 34.0896 6.24071C34.1042 6.35565 34.1854 6.45141 34.297 6.48523L34.3833 6.20388ZM31.6167 6.20388L31.703 6.48523C31.8146 6.45141 31.8958 6.35565 31.9104 6.24071C31.925 6.12571 31.8703 6.01294 31.7706 5.95265L31.6167 6.20388ZM35.3681 3.94118C35.3681 4.79294 34.9128 5.53929 34.2294 5.95265L34.5372 6.45512C35.3897 5.93947 35.9601 5.00665 35.9601 3.94118H35.3681ZM33 1.58824C34.3079 1.58824 35.3681 2.64168 35.3681 3.94118H35.9601C35.9601 2.31681 34.6348 1 33 1V1.58824ZM30.6319 3.94118C30.6319 2.64168 31.6921 1.58824 33 1.58824V1C31.3652 1 30.0399 2.31681 30.0399 3.94118H30.6319ZM31.7706 5.95265C31.0872 5.53929 30.6319 4.79294 30.6319 3.94118H30.0399C30.0399 5.00665 30.6103 5.93947 31.4628 6.45512L31.7706 5.95265ZM31.5304 5.92253C29.6615 6.48877 28.2541 8.10612 28.0065 10.0825L28.594 10.1551C28.8123 8.41282 30.054 6.98482 31.703 6.48523L31.5304 5.92253ZM28.0065 10.0825C27.9411 10.6048 28.3766 11 28.8558 11V10.4118C28.6811 10.4118 28.5787 10.2776 28.594 10.1551L28.0065 10.0825ZM28.8558 11H37.1442V10.4118H28.8558V11ZM37.1442 11C37.6234 11 38.0589 10.6048 37.9935 10.0825L37.4059 10.1551C37.4213 10.2776 37.3189 10.4118 37.1442 10.4118V11ZM37.9935 10.0825C37.7459 8.10612 36.3385 6.48877 34.4696 5.92253L34.297 6.48523C35.946 6.98482 37.1877 8.41282 37.4059 10.1551L37.9935 10.0825Z" fill="#5E2BA7"/>
<path d="M34.2294 5.95265L34.3833 6.20388L34.297 6.48523M34.2294 5.95265C34.1297 6.01294 34.075 6.12571 34.0896 6.24071C34.1042 6.35565 34.1854 6.45141 34.297 6.48523M34.2294 5.95265C34.9128 5.53929 35.3681 4.79294 35.3681 3.94118M34.2294 5.95265L34.5372 6.45512C35.3897 5.93947 35.9601 5.00665 35.9601 3.94118M34.297 6.48523L34.4696 5.92253C36.3385 6.48877 37.7459 8.10612 37.9935 10.0825M34.297 6.48523C35.946 6.98482 37.1877 8.41282 37.4059 10.1551M31.703 6.48523L31.6167 6.20388L31.7706 5.95265M31.703 6.48523C31.8146 6.45141 31.8958 6.35565 31.9104 6.24071C31.925 6.12571 31.8703 6.01294 31.7706 5.95265M31.703 6.48523C30.054 6.98482 28.8123 8.41282 28.594 10.1551M31.703 6.48523L31.5304 5.92253C29.6615 6.48877 28.2541 8.10612 28.0065 10.0825M31.7706 5.95265C31.0872 5.53929 30.6319 4.79294 30.6319 3.94118M31.7706 5.95265L31.4628 6.45512C30.6103 5.93947 30.0399 5.00665 30.0399 3.94118M28.3003 10.1188L28.0065 10.0825M28.0065 10.0825L28.594 10.1551M28.0065 10.0825C27.9411 10.6048 28.3766 11 28.8558 11M37.6997 10.1188L37.9935 10.0825M37.9935 10.0825C38.0589 10.6048 37.6234 11 37.1442 11M37.9935 10.0825L37.4059 10.1551M35.3681 3.94118H35.9601M35.3681 3.94118C35.3681 2.64168 34.3079 1.58824 33 1.58824M35.9601 3.94118C35.9601 2.31681 34.6348 1 33 1M33 1.58824V1M33 1.58824C31.6921 1.58824 30.6319 2.64168 30.6319 3.94118M33 1C31.3652 1 30.0399 2.31681 30.0399 3.94118M30.6319 3.94118H30.0399M28.594 10.1551C28.5787 10.2776 28.6811 10.4118 28.8558 10.4118M28.8558 11V10.4118M28.8558 11H37.1442M28.8558 10.4118H37.1442M37.1442 11V10.4118M37.1442 10.4118C37.3189 10.4118 37.4213 10.2776 37.4059 10.1551" stroke="#5E2BA7" stroke-width="1.1"/>
<path d="M7.38329 6.20388L7.22936 5.95265C7.12972 6.01294 7.07502 6.12571 7.08964 6.24071C7.10421 6.35565 7.18537 6.45141 7.29697 6.48523L7.38329 6.20388ZM4.61669 6.20388L4.70303 6.48523C4.8146 6.45141 4.89577 6.35565 4.9104 6.24071C4.92496 6.12571 4.87026 6.01294 4.77061 5.95265L4.61669 6.20388ZM8.36812 3.94118C8.36812 4.79294 7.91279 5.53929 7.22936 5.95265L7.53721 6.45512C8.38973 5.93947 8.96015 5.00665 8.96015 3.94118H8.36812ZM6.00002 1.58824C7.30786 1.58824 8.36812 2.64168 8.36812 3.94118H8.96015C8.96015 2.31681 7.63484 1 6.00002 1V1.58824ZM3.63189 3.94118C3.63189 2.64168 4.69213 1.58824 6.00002 1.58824V1C4.36516 1 3.03987 2.31681 3.03987 3.94118H3.63189ZM4.77061 5.95265C4.08721 5.53929 3.63189 4.79294 3.63189 3.94118H3.03987C3.03987 5.00665 3.61026 5.93947 4.46278 6.45512L4.77061 5.95265ZM4.53036 5.92253C2.66149 6.48877 1.25408 8.10612 1.00654 10.0825L1.59403 10.1551C1.81225 8.41282 3.05399 6.98482 4.70303 6.48523L4.53036 5.92253ZM1.00654 10.0825C0.941117 10.6048 1.37662 11 1.85581 11V10.4118C1.68108 10.4118 1.5787 10.2776 1.59403 10.1551L1.00654 10.0825ZM1.85581 11H10.1442V10.4118H1.85581V11ZM10.1442 11C10.6234 11 11.0589 10.6048 10.9935 10.0825L10.4059 10.1551C10.4213 10.2776 10.3189 10.4118 10.1442 10.4118V11ZM10.9935 10.0825C10.7459 8.10612 9.33851 6.48877 7.4696 5.92253L7.29697 6.48523C8.946 6.98482 10.1877 8.41282 10.4059 10.1551L10.9935 10.0825Z" fill="#5E2BA7"/>
<path d="M7.22936 5.95265L7.38329 6.20388L7.29697 6.48523M7.22936 5.95265C7.12972 6.01294 7.07502 6.12571 7.08964 6.24071C7.10421 6.35565 7.18537 6.45141 7.29697 6.48523M7.22936 5.95265C7.91279 5.53929 8.36812 4.79294 8.36812 3.94118M7.22936 5.95265L7.53721 6.45512C8.38973 5.93947 8.96015 5.00665 8.96015 3.94118M7.29697 6.48523L7.4696 5.92253C9.33851 6.48877 10.7459 8.10612 10.9935 10.0825M7.29697 6.48523C8.946 6.98482 10.1877 8.41282 10.4059 10.1551M4.70303 6.48523L4.61669 6.20388L4.77061 5.95265M4.70303 6.48523C4.8146 6.45141 4.89577 6.35565 4.9104 6.24071C4.92496 6.12571 4.87026 6.01294 4.77061 5.95265M4.70303 6.48523C3.05399 6.98482 1.81225 8.41282 1.59403 10.1551M4.70303 6.48523L4.53036 5.92253C2.66149 6.48877 1.25408 8.10612 1.00654 10.0825M4.77061 5.95265C4.08721 5.53929 3.63189 4.79294 3.63189 3.94118M4.77061 5.95265L4.46278 6.45512C3.61026 5.93947 3.03987 5.00665 3.03987 3.94118M1.30029 10.1188L1.00654 10.0825M1.00654 10.0825L1.59403 10.1551M1.00654 10.0825C0.941117 10.6048 1.37662 11 1.85581 11M10.6997 10.1188L10.9935 10.0825M10.9935 10.0825C11.0589 10.6048 10.6234 11 10.1442 11M10.9935 10.0825L10.4059 10.1551M8.36812 3.94118H8.96015M8.36812 3.94118C8.36812 2.64168 7.30786 1.58824 6.00002 1.58824M8.96015 3.94118C8.96015 2.31681 7.63484 1 6.00002 1M6.00002 1.58824V1M6.00002 1.58824C4.69213 1.58824 3.63189 2.64168 3.63189 3.94118M6.00002 1C4.36516 1 3.03987 2.31681 3.03987 3.94118M3.63189 3.94118H3.03987M1.59403 10.1551C1.5787 10.2776 1.68108 10.4118 1.85581 10.4118M1.85581 11V10.4118M1.85581 11H10.1442M1.85581 10.4118H10.1442M10.1442 11V10.4118M10.1442 10.4118C10.3189 10.4118 10.4213 10.2776 10.4059 10.1551" stroke="#5E2BA7" stroke-width="1.1"/>
</svg>
