<svg width="390" height="324" viewBox="0 0 390 324" fill="none" xmlns="http://www.w3.org/2000/svg">
<circle cx="270.492" cy="128.492" r="12.4922" fill="#04904B"/>
<path d="M265 129.638L267.602 131.793C267.935 132.069 268.465 132.069 268.798 131.793L277 125" stroke="white" stroke-width="3" stroke-linecap="round" stroke-linejoin="round"/>
<path d="M-403 140.027H-189.089C-188.57 140.027 -188.052 140.047 -187.533 140.066C-183.911 140.222 -167.2 141.82 -158.441 121.058C-150.439 102.089 -138.338 57.5837 -132.152 38.4781C-129.927 31.59 -126.785 23.5911 -121.826 18.2423C-116.868 12.8936 -110.034 10.5748 -103.589 10.5748C-91.018 10.5748 -80.732 17.2681 -76.1626 27.3129C-71.8527 36.7829 -28.8431 163.965 -24.0443 178.823C-23.8048 179.554 -23.6053 180.284 -23.4057 181.025C-22.418 184.669 -17.1703 199.322 3.8307 200.296C16.5011 200.881 24.702 194.635 29.6305 188.605C32.9528 184.542 35.2973 179.807 36.7439 174.809L48.3967 134.454C48.3967 134.454 54.1134 114.365 76.97 114.365C99.8267 114.365 106.192 137.845 106.192 137.845L155.088 287.611C155.237 288.069 155.447 288.507 155.607 288.975C156.511 291.612 157.043 293.132 157.203 293.535C159.727 299.916 162.909 313.332 185.537 313.02C207.106 312.718 215.886 286.948 217.342 282.379C217.472 281.97 217.622 281.57 217.781 281.171L222.111 270.61L271.257 155.664C271.257 155.664 278.111 140.037 294.113 140.037H882.66" stroke="white" stroke-width="20" stroke-miterlimit="10"/>
<path d="M882.65 139.462H294.103C278.101 139.462 271.247 155.09 271.247 155.09L222.101 270.035L217.771 280.596C217.612 280.996 217.462 281.395 217.333 281.804C215.876 286.374 207.096 312.143 185.527 312.445C162.9 312.757 159.727 299.341 157.193 292.96C157.033 292.557 156.501 291.037 155.597 288.4C155.437 287.942 155.227 287.504 155.078 287.036L106.182 137.27C106.182 137.27 99.8167 113.79 76.96 113.79C54.1033 113.79 48.3867 133.88 48.3867 133.88L36.7339 174.234C35.2873 179.232 32.9427 183.967 29.6205 188.03C24.692 194.061 16.4811 200.316 3.82068 199.721C-17.1803 198.747 -22.4281 184.094 -23.4157 180.45C-23.6153 179.71 -23.8248 178.979 -24.0543 178.248C-28.8531 163.4 -71.8627 36.2081 -76.1726 26.7381C-80.742 16.6933 -91.028 10 -103.599 10C-110.044 10 -116.798 12.2311 -121.836 17.6676C-126.874 23.104 -129.937 31.0152 -132.162 37.9033C-138.348 57.0187 -150.449 101.514 -158.451 120.483C-167.21 141.255 -183.921 139.657 -187.543 139.491C-188.062 139.472 -188.58 139.452 -189.099 139.452H-403" stroke="#5E2BA7" stroke-width="8.02" stroke-miterlimit="10"/>
<path d="M395 139.5H291.5C283.5 140.5 275 146.955 272 153.5C266.5 165.5 260 181.333 256.5 190" stroke="#04904B" stroke-width="8.1"/>
</svg>
