<svg width="25" height="28" viewBox="0 0 25 28" fill="none" xmlns="http://www.w3.org/2000/svg">
<g clip-path="url(#clip0_254_90)">
<path d="M16.109 0C16.5058 0.159173 16.9467 0.260465 17.2994 0.49199C18.0049 0.955039 18.3136 1.66408 18.3429 2.50336C18.3429 2.74935 18.3429 2.99535 18.3429 3.28475C18.4458 3.28475 18.534 3.28475 18.6222 3.28475C19.3277 3.28475 20.0478 3.28475 20.7533 3.28475C23.1783 3.28475 25.0008 5.07907 25.0008 7.46667C25.0008 7.95866 25.0008 8.45065 25.0008 8.94264C25.0008 9.50698 24.6628 9.83979 24.0749 9.83979C23.8103 9.83979 23.5605 9.83979 23.2665 9.83979C23.2371 10.1581 23.193 10.4765 23.1636 10.7948C22.9432 13.168 22.7227 15.5411 22.5023 17.9287C22.3112 20.0413 22.1201 22.154 21.9291 24.2667C21.885 24.7876 21.8409 25.3085 21.7674 25.815C21.5763 27.1607 20.5769 28 19.1954 28C17.3582 28 15.5358 28 13.6986 28C11.0678 28 8.43701 28 5.80621 28C4.58634 28 3.66041 27.3922 3.30768 26.2925C3.1754 25.8873 3.14601 25.4388 3.11661 25.0047C2.89615 22.6894 2.69039 20.3597 2.48463 18.0444C2.24947 15.5266 2.01432 13.0088 1.77916 10.4765C1.76447 10.2739 1.74977 10.0858 1.72037 9.85426C1.42643 9.85426 1.14718 9.85426 0.882631 9.85426C0.353531 9.83979 0.000796866 9.50698 0.000796866 8.97158C0.000796866 8.24806 -0.0285976 7.51008 0.0595858 6.78656C0.294742 4.86202 2.01432 3.34264 3.96905 3.28475C4.748 3.25581 5.54166 3.28475 6.33531 3.28475C6.43819 3.28475 6.54107 3.28475 6.68804 3.28475C6.68804 2.90853 6.65865 2.5323 6.68804 2.18501C6.82032 1.05633 7.62866 0.245995 8.77505 0.0434109C8.80444 0.0434109 8.84853 0.0144703 8.87793 0C11.2883 0 13.6986 0 16.109 0ZM3.43995 9.85426C3.43995 9.92661 3.43995 9.9845 3.43995 10.0424C3.52813 11.0842 3.63101 12.1261 3.7192 13.168C3.89556 15.078 4.07193 17.0026 4.2483 18.9127C4.43936 21.0687 4.64512 23.2248 4.83619 25.3953C4.89498 26.1044 5.17422 26.3649 5.89439 26.3649C10.2889 26.3649 14.6833 26.3649 19.0925 26.3649C19.8421 26.3649 20.1066 26.1044 20.1654 25.3519C20.2389 24.4548 20.3271 23.5576 20.4006 22.6605C20.5769 20.7214 20.7533 18.7824 20.9297 16.8434C21.0913 15.1359 21.253 13.414 21.4 11.7065C21.4588 11.0987 21.5029 10.491 21.5616 9.86873H3.43995V9.85426ZM23.34 8.19018C23.34 7.95866 23.34 7.7416 23.34 7.53902C23.34 5.97623 22.2818 4.9199 20.6945 4.9199C15.2271 4.9199 9.77446 4.9199 4.30709 4.9199C4.05723 4.9199 3.79268 4.94884 3.54283 5.00672C2.07311 5.41189 1.48522 6.6708 1.70568 8.17571H23.3253L23.34 8.19018ZM16.6675 3.27028C16.6675 3.00982 16.6675 2.79276 16.6675 2.56124C16.6675 1.96796 16.3294 1.63514 15.7121 1.63514C14.7568 1.63514 13.7868 1.63514 12.8315 1.63514C11.6263 1.63514 10.4211 1.63514 9.23066 1.63514C8.77505 1.63514 8.42231 1.88114 8.36352 2.2863C8.31943 2.60465 8.36352 2.93747 8.36352 3.25581H16.6822L16.6675 3.27028Z" fill="#5E2BA7"/>
<path d="M3.43945 9.85431H21.5905C21.5318 10.4765 21.4877 11.0843 21.4289 11.692C21.2672 13.3995 21.1055 15.1215 20.9586 16.829C20.7822 18.768 20.6058 20.707 20.4295 22.646C20.3413 23.5432 20.2531 24.4404 20.1943 25.3375C20.1355 26.09 19.871 26.3504 19.1214 26.3504C14.7269 26.3504 10.3325 26.3504 5.92329 26.3504C5.20312 26.3504 4.92387 26.09 4.86509 25.3809C4.67402 23.2249 4.46826 21.0688 4.2772 18.8982C4.10083 16.9882 3.92446 15.0636 3.7481 13.1535C3.65991 12.1117 3.55703 11.0698 3.46885 10.028C3.46885 9.97008 3.46885 9.92667 3.46885 9.83984L3.43945 9.85431ZM8.75985 18.1458C8.73046 17.5236 8.70106 16.9013 8.67167 16.2936C8.61288 14.9768 8.55409 13.6745 8.4953 12.3577C8.48061 12.0249 8.36303 11.7499 8.05439 11.5907C7.48119 11.2869 6.81982 11.692 6.83452 12.3577C6.87861 13.6166 6.9374 14.8755 6.99619 16.1199C7.11376 18.6812 7.23134 21.2569 7.34892 23.8181C7.34892 23.9773 7.39301 24.151 7.4665 24.2812C7.64286 24.614 8.03969 24.7587 8.39242 24.6719C8.78925 24.5561 9.0244 24.2522 9.00971 23.8037C8.93622 21.9081 8.84804 20.0125 8.75985 18.1168V18.1458ZM17.9162 18.059C18.0044 16.1778 18.0779 14.2967 18.1661 12.4011C18.1661 12.2709 18.1661 12.1261 18.1073 11.9959C17.975 11.6342 17.5929 11.4171 17.2255 11.475C16.7992 11.5329 16.52 11.8657 16.4906 12.3721C16.3436 15.599 16.1967 18.8114 16.0497 22.0383C16.0203 22.6605 15.9909 23.2827 15.9762 23.8905C15.9762 24.3246 16.2995 24.6574 16.7258 24.6864C17.1373 24.7153 17.5047 24.4548 17.5929 24.0497C17.6223 23.905 17.6223 23.7603 17.637 23.6156C17.7252 21.7634 17.8134 19.8967 17.8868 18.0445L17.9162 18.059ZM13.3307 18.1024C13.3307 16.3949 13.3307 14.6874 13.3307 12.9944C13.3307 12.7484 13.3307 12.5024 13.3307 12.2564C13.3013 11.8078 12.9339 11.475 12.493 11.475C12.0667 11.475 11.714 11.8078 11.6699 12.2564C11.6699 12.3432 11.6699 12.4156 11.6699 12.5024C11.6699 16.2357 11.6699 19.9546 11.6699 23.6879C11.6699 23.7892 11.6699 23.8905 11.6699 23.9918C11.714 24.3969 12.0667 24.7153 12.4783 24.7153C12.9045 24.7153 13.2719 24.4114 13.316 23.9918C13.316 23.8905 13.316 23.7892 13.316 23.6879C13.316 21.8357 13.316 19.969 13.316 18.1168L13.3307 18.1024Z" fill="#EFEFEF"/>
<path d="M23.3247 8.19014H1.70507C1.48461 6.68523 2.0725 5.41185 3.54222 5.02115C3.79207 4.9488 4.05662 4.93433 4.30648 4.93433C9.77385 4.93433 15.2265 4.93433 20.6939 4.93433C22.2665 4.93433 23.3394 5.99066 23.3394 7.55345C23.3394 7.75603 23.3394 7.97309 23.3394 8.20461L23.3247 8.19014Z" fill="#EFEFEF"/>
<path d="M16.6676 3.27033H8.349C8.349 2.93751 8.31961 2.61917 8.349 2.30082C8.40779 1.89565 8.76052 1.64966 9.21614 1.64966C10.4213 1.64966 11.6265 1.64966 12.817 1.64966C13.7723 1.64966 14.7423 1.64966 15.6976 1.64966C16.3149 1.64966 16.6382 1.968 16.6529 2.57576C16.6529 2.80728 16.6529 3.02434 16.6529 3.2848L16.6676 3.27033Z" fill="white"/>
<path d="M8.76025 18.1458C8.84843 20.0414 8.93662 21.937 9.0101 23.8326C9.0248 24.2812 8.78964 24.585 8.39282 24.7008C8.04008 24.8021 7.64326 24.6429 7.46689 24.3101C7.39341 24.1654 7.34931 24.0062 7.34931 23.8471C7.23174 21.2858 7.11416 18.7101 6.99658 16.1489C6.93779 14.89 6.879 13.631 6.83491 12.3866C6.80552 11.7065 7.48159 11.3013 8.05478 11.6197C8.36342 11.7788 8.481 12.0538 8.4957 12.3866C8.55449 13.7034 8.61328 15.0057 8.67206 16.3225C8.70146 16.9447 8.73085 17.567 8.76025 18.1747V18.1458Z" fill="#5E2BA7"/>
<path d="M17.915 18.059C17.8268 19.9112 17.7533 21.7779 17.6652 23.6301C17.6652 23.7748 17.6652 23.9195 17.6211 24.0642C17.5329 24.4694 17.1508 24.7443 16.7539 24.7009C16.3277 24.6575 15.9897 24.3247 16.0044 23.905C16.0044 23.2828 16.0485 22.6606 16.0779 22.0528C16.2248 18.826 16.3718 15.6136 16.5188 12.3867C16.5482 11.8947 16.8127 11.5474 17.2536 11.4895C17.6211 11.4316 18.0032 11.6487 18.1355 12.0105C18.1796 12.1407 18.1943 12.2854 18.1943 12.4156C18.1208 14.2968 18.0326 16.1779 17.9444 18.0735L17.915 18.059Z" fill="#5E2BA7"/>
<path d="M13.3297 18.1167C13.3297 19.9689 13.3297 21.8356 13.3297 23.6878C13.3297 23.7891 13.3297 23.8904 13.3297 23.9916C13.2709 24.4113 12.9035 24.7152 12.4919 24.7152C12.0804 24.7152 11.7277 24.3968 11.6836 23.9916C11.6836 23.8904 11.6836 23.7891 11.6836 23.6878C11.6836 19.9544 11.6836 16.2356 11.6836 12.5022C11.6836 12.4154 11.6836 12.3431 11.6836 12.2562C11.713 11.8221 12.0657 11.4893 12.5066 11.4749C12.9476 11.4749 13.315 11.8077 13.3444 12.2562C13.3444 12.5022 13.3444 12.7482 13.3444 12.9942C13.3444 14.7017 13.3444 16.4092 13.3444 18.1022L13.3297 18.1167Z" fill="#5E2BA7"/>
</g>
<defs>
<clipPath id="clip0_254_90">
<rect width="25" height="28" fill="white"/>
</clipPath>
</defs>
</svg>
