<svg width="24" height="25" viewBox="0 0 24 25" fill="none" xmlns="http://www.w3.org/2000/svg">
<path d="M12.274 25C6.05298 25 0.762634 20.163 0.0768485 13.7641C-0.608937 7.41555 3.35882 1.57086 9.43292 0.0592991C9.97175 -0.0918566 10.2657 0.0592992 10.4616 0.361611C10.6575 0.714307 10.6086 1.067 10.2657 1.4197C9.09003 2.72972 8.30627 4.29166 7.9144 6.05514C6.83673 11.2448 10.3146 16.4849 15.3601 17.3918C17.9563 17.8453 20.3075 17.2911 22.4628 15.7291C22.9037 15.4268 23.1976 15.3764 23.5405 15.6283C23.8834 15.8803 23.9324 16.233 23.7364 16.7368C21.973 21.6746 17.3684 25 12.225 25H12.274ZM7.62049 2.42741C3.94664 4.09012 0.958573 8.52402 1.59537 13.7641C2.18319 18.5507 5.71008 22.4807 10.5596 23.2869C15.458 24.0931 19.5727 21.3723 21.2872 18.3491C16.3887 20.0119 11.9801 19.1553 8.64917 14.9229C5.61212 11.0937 5.51415 6.81092 7.62049 2.42741Z" fill="#5E2BA7"/>
</svg>
