<svg width="32" height="32" viewBox="0 0 32 32" fill="none" xmlns="http://www.w3.org/2000/svg">
<rect width="32" height="32" rx="16" fill="#5E2BA7"/>
<path d="M19.941 8.64732L9.02351 19.5648L19.941 8.64732ZM19.941 8.64732L23.3526 12.059L19.941 8.64732ZM19.941 8.64732L21.3056 7.28264C21.6825 6.90579 22.2935 6.90579 22.6703 7.28264L24.7173 9.32967C25.0942 9.70651 25.0942 10.3175 24.7173 10.6943L23.3526 12.059M12.4352 22.9765L9.02351 19.5648L12.4352 22.9765ZM12.4352 22.9765L23.3526 12.059L12.4352 22.9765ZM12.4352 22.9765L8 24L9.02351 19.5648" fill="#5E2BA7"/>
<path d="M19.941 8.64732L9.02351 19.5648M19.941 8.64732L23.3526 12.059M19.941 8.64732L21.3056 7.28264C21.6825 6.90579 22.2935 6.90579 22.6703 7.28264L24.7173 9.32967C25.0942 9.70651 25.0942 10.3175 24.7173 10.6943L23.3526 12.059M9.02351 19.5648L12.4352 22.9765M9.02351 19.5648L8 24L12.4352 22.9765M23.3526 12.059L12.4352 22.9765" stroke="#EFEFEF" stroke-width="1.3" stroke-linecap="round" stroke-linejoin="round"/>
</svg>
