<svg width="20" height="20" viewBox="0 0 20 20" fill="none" xmlns="http://www.w3.org/2000/svg">
<path d="M19.1979 18.144H17.1894C17.0092 18.144 16.8633 18.0124 16.8633 17.8499C16.8633 17.6874 17.0092 17.5559 17.1894 17.5559H19.1979C19.3782 17.5559 19.5241 17.6874 19.5241 17.8499C19.5241 18.0124 19.3782 18.144 19.1979 18.144Z" fill="#5E2BA7" stroke="#5E2BA7" stroke-width="0.5" stroke-miterlimit="10"/>
<path d="M15.5582 18.144H0.966786C0.786539 18.144 0.640625 18.0124 0.640625 17.8499C0.640625 17.6874 0.786539 17.5559 0.966786 17.5559H15.5582C15.7385 17.5559 15.8844 17.6874 15.8844 17.8499C15.8844 18.0124 15.7385 18.144 15.5582 18.144Z" fill="#5E2BA7" stroke="#5E2BA7" stroke-width="0.5" stroke-miterlimit="10"/>
<path d="M19.1971 12.983H11.7383C11.558 12.983 11.4121 12.8514 11.4121 12.6889C11.4121 12.5264 11.558 12.3949 11.7383 12.3949H19.1971C19.3773 12.3949 19.5232 12.5264 19.5232 12.6889C19.5232 12.8514 19.3773 12.983 19.1971 12.983Z" fill="#5E2BA7" stroke="#5E2BA7" stroke-width="0.5" stroke-miterlimit="10"/>
<path d="M10.0821 12.983H0.966786C0.786539 12.983 0.640625 12.8514 0.640625 12.6889C0.640625 12.5264 0.786539 12.3949 0.966786 12.3949H10.0821C10.2624 12.3949 10.4083 12.5264 10.4083 12.6889C10.4083 12.8514 10.2624 12.983 10.0821 12.983Z" fill="#5E2BA7" stroke="#5E2BA7" stroke-width="0.5" stroke-miterlimit="10"/>
<path d="M19.1971 7.82206H3.84179C3.66154 7.82206 3.51562 7.69053 3.51562 7.52804C3.51562 7.36555 3.66154 7.23401 3.84179 7.23401H19.1971C19.3774 7.23401 19.5233 7.36555 19.5233 7.52804C19.5233 7.69053 19.3774 7.82206 19.1971 7.82206Z" fill="#5E2BA7" stroke="#5E2BA7" stroke-width="0.5" stroke-miterlimit="10"/>
<path d="M2.29718 7.82206H0.966786C0.786539 7.82206 0.640625 7.69053 0.640625 7.52804C0.640625 7.36555 0.786539 7.23401 0.966786 7.23401H2.29718C2.47743 7.23401 2.62334 7.36555 2.62334 7.52804C2.62334 7.69053 2.47743 7.82206 2.29718 7.82206Z" fill="#5E2BA7" stroke="#5E2BA7" stroke-width="0.5" stroke-miterlimit="10"/>
<path d="M19.1983 2.66875H9.55077C9.37052 2.66875 9.22461 2.53721 9.22461 2.37472C9.22461 2.21223 9.37052 2.08069 9.55077 2.08069H19.1983C19.3785 2.08069 19.5244 2.21223 19.5244 2.37472C19.5244 2.53721 19.3785 2.66875 19.1983 2.66875Z" fill="#5E2BA7" stroke="#5E2BA7" stroke-width="0.5" stroke-miterlimit="10"/>
<path d="M7.96208 2.66875H0.966786C0.786539 2.66875 0.640625 2.53721 0.640625 2.37472C0.640625 2.21223 0.786539 2.08069 0.966786 2.08069H7.96208C8.14233 2.08069 8.28824 2.21223 8.28824 2.37472C8.28824 2.53721 8.14233 2.66875 7.96208 2.66875Z" fill="#5E2BA7" stroke="#5E2BA7" stroke-width="0.5" stroke-miterlimit="10"/>
<path d="M17.1894 19.5752C17.0092 19.5752 16.8633 19.4437 16.8633 19.2812V16.4183C16.8633 16.2558 17.0092 16.1243 17.1894 16.1243C17.3697 16.1243 17.5156 16.2558 17.5156 16.4183V19.2812C17.5156 19.4437 17.3697 19.5752 17.1894 19.5752Z" fill="#5E2BA7" stroke="#5E2BA7" stroke-width="0.5" stroke-miterlimit="10"/>
<path d="M11.7383 14.4143C11.558 14.4143 11.4121 14.2828 11.4121 14.1203V11.2574C11.4121 11.0949 11.558 10.9634 11.7383 10.9634C11.9185 10.9634 12.0644 11.0949 12.0644 11.2574V14.1203C12.0644 14.2828 11.9185 14.4143 11.7383 14.4143Z" fill="#5E2BA7" stroke="#5E2BA7" stroke-width="0.5" stroke-miterlimit="10"/>
<path d="M2.29686 9.25333C2.11662 9.25333 1.9707 9.12179 1.9707 8.9593V6.0964C1.9707 5.93391 2.11662 5.80237 2.29686 5.80237C2.47711 5.80237 2.62303 5.93391 2.62303 6.0964V8.9593C2.62303 9.12179 2.47711 9.25333 2.29686 9.25333Z" fill="#5E2BA7" stroke="#5E2BA7" stroke-width="0.5" stroke-miterlimit="10"/>
<path d="M9.55077 4.10006C9.37052 4.10006 9.22461 3.96852 9.22461 3.80603V0.935386C9.22461 0.772896 9.37052 0.641357 9.55077 0.641357C9.73102 0.641357 9.87693 0.772896 9.87693 0.935386V3.79829C9.87693 3.96078 9.73102 4.09232 9.55077 4.09232V4.10006Z" fill="#5E2BA7" stroke="#5E2BA7" stroke-width="0.5" stroke-miterlimit="10"/>
</svg>
