<svg width="27" height="27" viewBox="0 0 27 27" fill="none" xmlns="http://www.w3.org/2000/svg">
<path d="M9.82352 23.4455C9.82352 24.8563 7.8483 26 5.41176 26C2.97522 26 1 24.8563 1 23.4455C1 22.0346 2.97522 20.891 5.41176 20.891C7.8483 20.891 9.82352 22.0346 9.82352 23.4455ZM9.82352 23.4455V10.6729M9.82352 10.6729V6.45849C9.82352 5.92139 10.2104 5.44167 10.7916 5.25812L24.0269 1.07801C24.9859 0.775093 26 1.392 26 2.27836V5.56386M9.82352 10.6729L26 5.56386M26 20.891V5.56386" stroke="#5E2BA7" stroke-width="2" stroke-linejoin="round"/>
<path d="M21.5875 23.445C24.0241 23.445 25.9993 22.3013 25.9993 20.8905C25.9993 19.4796 24.0241 18.3359 21.5875 18.3359C19.151 18.3359 17.1758 19.4796 17.1758 20.8905C17.1758 22.3013 19.151 23.445 21.5875 23.445Z" stroke="#5E2BA7" stroke-width="2" stroke-linejoin="round"/>
</svg>
