<svg width="27" height="27" viewBox="0 0 27 27" fill="none" xmlns="http://www.w3.org/2000/svg">
<path d="M9.33333 26H2.38889C1.62183 26 1 25.3635 1 24.5784V13.7944C1 13.4174 1.14633 13.0557 1.40679 12.7892L12.5179 1.41638C13.0603 0.861205 13.9397 0.861205 14.4821 1.41638L25.5932 12.7892C25.8536 13.0557 26 13.4174 26 13.7944V24.5784C26 25.3635 25.3782 26 24.6111 26H17.6667M9.33333 26H17.6667ZM9.33333 26V21.7352V17.4704C9.33333 16.6852 9.95517 16.0488 10.7222 16.0488H16.2778C17.0449 16.0488 17.6667 16.6852 17.6667 17.4704V26" fill="#5E2BA7"/>
<path d="M9.33333 26H2.38889C1.62183 26 1 25.3635 1 24.5784V13.7944C1 13.4174 1.14633 13.0557 1.40679 12.7892L12.5179 1.41638C13.0603 0.861205 13.9397 0.861205 14.4821 1.41638L25.5932 12.7892C25.8536 13.0557 26 13.4174 26 13.7944V24.5784C26 25.3635 25.3782 26 24.6111 26H17.6667M9.33333 26H17.6667M9.33333 26V21.7352V17.4704C9.33333 16.6852 9.95517 16.0488 10.7222 16.0488H16.2778C17.0449 16.0488 17.6667 16.6852 17.6667 17.4704V26" stroke="#5E2BA7" stroke-width="2" stroke-linejoin="round"/>
<path d="M9.5 17.5C9.5 16.6716 10.1716 16 11 16H16C16.8284 16 17.5 16.6716 17.5 17.5V27H9.5V17.5Z" fill="#EFEFEF"/>
</svg>
