<svg width="25" height="25" viewBox="0 0 27 27" fill="none" xmlns="http://www.w3.org/2000/svg">
<path d="M9.33333 25.0385H2.38889C1.62183 25.0385 1 24.4265 1 23.6715V13.3023C1 12.9398 1.14633 12.5921 1.40679 12.3358L12.5179 1.40037C13.0603 0.866544 13.9397 0.866544 14.4821 1.40037L25.5932 12.3358C25.8536 12.5921 26 12.9398 26 13.3023V23.6715C26 24.4265 25.3782 25.0385 24.6111 25.0385H17.6667M9.33333 25.0385H17.6667M9.33333 25.0385V20.9377V16.8369C9.33333 16.082 9.95517 15.47 10.7222 15.47H16.2778C17.0449 15.47 17.6667 16.082 17.6667 16.8369V25.0385" stroke="#5E2BA7" stroke-width="2" stroke-linejoin="round"/>
<path d="M9.5 16.9231C9.5 16.0947 10.1716 15.4231 11 15.4231H16C16.8284 15.4231 17.5 16.0947 17.5 16.9231V26H9.5V16.9231Z" fill="#EFEFEF"/>
</svg>
