<svg width="31" height="31" viewBox="0 0 31 31" fill="none" xmlns="http://www.w3.org/2000/svg">
<g clip-path="url(#clip0_238_1041)">
<path d="M8.83455 30.6926C8.63764 30.6926 8.44074 30.6926 8.24384 30.668C6.2748 30.508 4.3796 29.6096 2.89052 28.1083C1.40144 26.6192 0.490759 24.7117 0.330775 22.7426C0.170791 20.749 0.810728 18.9399 2.11521 17.6231C3.39509 16.3433 6.23788 15.7403 7.09933 15.5803C7.37008 15.0511 8.09616 13.7097 8.78532 13.0082C10.742 11.0515 13.991 11.0269 16.5384 12.9344C16.7476 13.0944 16.7845 13.3897 16.6369 13.5989C16.4769 13.8081 16.1815 13.8451 15.9723 13.6974C13.8064 12.0729 11.0743 12.0729 9.44987 13.6974C8.69918 14.4481 7.83772 16.2079 7.83772 16.2325C7.77619 16.3679 7.64082 16.4663 7.48083 16.4909C7.44392 16.4909 4.03502 17.0447 2.77976 18.3123C1.67218 19.4199 1.1307 20.9705 1.26607 22.6811C1.40144 24.4163 2.21367 26.1146 3.54276 27.4437C4.87186 28.7728 6.57016 29.585 8.30537 29.7204C10.016 29.8558 11.5666 29.3266 12.6742 28.2067C13.7202 27.1607 14.3478 24.4532 14.4955 23.5056C14.5201 23.358 14.6186 23.2226 14.754 23.1487C14.7663 23.1487 16.5261 22.275 17.2891 21.5243C18.9259 19.8875 18.9012 17.1186 17.2399 14.9526C17.0799 14.7434 17.1168 14.4481 17.326 14.2881C17.5352 14.1281 17.8306 14.165 17.9906 14.3742C19.9473 16.934 19.935 20.2198 17.9536 22.1888C17.2522 22.8903 15.9108 23.6164 15.3816 23.8871C15.2216 24.7363 14.6186 27.5914 13.3387 28.8713C12.1696 30.0404 10.5821 30.6803 8.82224 30.6803L8.83455 30.6926Z" fill="#5E2BA7" stroke="#5E2BA7" stroke-width="0.5" stroke-miterlimit="10"/>
<path d="M13.5001 19.2104C13.377 19.2104 13.2539 19.1611 13.1678 19.075L11.8756 17.7828C11.7895 17.6967 11.7402 17.5736 11.7402 17.4505C11.7402 17.3275 11.7895 17.2044 11.8756 17.1183L24.7974 4.18416C24.6251 3.99956 24.6374 3.71651 24.8097 3.53191L27.8986 0.442988C27.9848 0.356843 28.1078 0.307617 28.2309 0.307617C28.354 0.307617 28.477 0.356843 28.5632 0.442988L30.5445 2.42433C30.7291 2.60893 30.7291 2.90428 30.5445 3.08888L27.4556 6.1778C27.3695 6.26395 27.2464 6.31318 27.1233 6.31318C27.0003 6.31318 26.8772 6.26395 26.791 6.1778L26.7541 6.14088L13.8323 19.0627C13.7462 19.1611 13.6231 19.1981 13.5001 19.1981V19.2104ZM12.8724 17.4505L13.5001 18.0659L26.4219 5.14406C26.508 5.05792 26.6311 5.00869 26.7541 5.00869C26.8772 5.00869 27.0003 5.05792 27.0864 5.14406L27.1233 5.18098L29.5477 2.75661L28.2309 1.43981L25.8065 3.86419C25.9788 4.04878 25.9665 4.33183 25.7942 4.51643L12.8724 17.4382V17.4505Z" fill="#5E2BA7" stroke="#5E2BA7" stroke-width="0.5" stroke-miterlimit="10"/>
<path d="M11.3092 22.3849C10.6201 22.3849 9.9309 22.1265 9.40173 21.5973C8.35568 20.5513 8.35568 18.8284 9.40173 17.7823C10.4478 16.7363 12.1707 16.724 13.2167 17.7823C13.7213 18.2869 14.0043 18.9761 14.0043 19.6898C14.0043 20.4036 13.7213 21.0928 13.2167 21.5973C12.6876 22.1265 11.9984 22.3849 11.3092 22.3849ZM11.3092 17.93C10.8662 17.93 10.4109 18.1023 10.0663 18.4469C9.37711 19.136 9.37711 20.2436 10.0663 20.9328C10.7554 21.6219 11.863 21.6219 12.5522 20.9328C12.8845 20.6005 13.0691 20.1575 13.0691 19.6898C13.0691 19.2222 12.8845 18.7791 12.5522 18.4469C12.2076 18.1023 11.7646 17.93 11.3092 17.93Z" fill="#5E2BA7" stroke="#5E2BA7" stroke-width="0.5" stroke-miterlimit="10"/>
<path d="M9.04482 26.927C8.92176 26.927 8.79869 26.8778 8.71255 26.7916L4.13454 22.2136C3.94994 22.029 3.94994 21.7337 4.13454 21.5491C4.31914 21.3645 4.61449 21.3645 4.79909 21.5491L9.3771 26.1271C9.5617 26.3117 9.5617 26.6071 9.3771 26.7916C9.29095 26.8778 9.16789 26.927 9.04482 26.927Z" fill="#5E2BA7" stroke="#5E2BA7" stroke-width="0.5" stroke-miterlimit="10"/>
<path d="M29.7333 4.28293C29.6102 4.28293 29.4871 4.23371 29.401 4.14756L29.1795 3.92604C28.9949 3.74145 28.9949 3.44609 29.1795 3.26149C29.3641 3.0769 29.6594 3.0769 29.844 3.26149L30.0655 3.48301C30.2501 3.66761 30.2501 3.96296 30.0655 4.14756C29.9671 4.24601 29.8563 4.28293 29.7333 4.28293Z" fill="#5E2BA7" stroke="#5E2BA7" stroke-width="0.5" stroke-miterlimit="10"/>
<path d="M27.4188 1.98093C27.2957 1.98093 27.1727 1.9317 27.0865 1.84556L26.865 1.62404C26.6804 1.43945 26.6804 1.14409 26.865 0.959493C27.0496 0.774896 27.345 0.774896 27.5296 0.959493L27.7511 1.18101C27.9357 1.36561 27.9357 1.66096 27.7511 1.84556C27.6526 1.9317 27.5419 1.98093 27.4188 1.98093Z" fill="#5E2BA7" stroke="#5E2BA7" stroke-width="0.5" stroke-miterlimit="10"/>
<path d="M28.8954 5.1196C28.7723 5.1196 28.6492 5.07038 28.5631 4.98423L28.3416 4.76271C28.157 4.57812 28.157 4.28276 28.3416 4.09816C28.5262 3.91357 28.8215 3.91357 29.0061 4.09816L29.2276 4.31968C29.4122 4.50428 29.4122 4.79963 29.2276 4.98423C29.1415 5.08268 29.0184 5.1196 28.8954 5.1196Z" fill="#5E2BA7" stroke="#5E2BA7" stroke-width="0.5" stroke-miterlimit="10"/>
<path d="M26.5829 2.8176C26.4598 2.8176 26.3367 2.76837 26.2506 2.68223L26.0291 2.46071C25.8445 2.27611 25.8445 1.98076 26.0291 1.79616C26.2137 1.61157 26.509 1.61157 26.6936 1.79616L26.9151 2.01768C27.0997 2.20228 27.0997 2.49763 26.9151 2.68223C26.829 2.76837 26.7059 2.8176 26.5829 2.8176Z" fill="#5E2BA7" stroke="#5E2BA7" stroke-width="0.5" stroke-miterlimit="10"/>
<path d="M28.0575 5.95652C27.9344 5.95652 27.8113 5.90729 27.7252 5.82114L27.5037 5.59963C27.3191 5.41503 27.3191 5.11968 27.5037 4.93508C27.6883 4.75048 27.9836 4.75048 28.1682 4.93508L28.3897 5.15659C28.5743 5.34119 28.5743 5.63655 28.3897 5.82114C28.2913 5.9196 28.1805 5.95652 28.0575 5.95652Z" fill="#5E2BA7" stroke="#5E2BA7" stroke-width="0.5" stroke-miterlimit="10"/>
<path d="M25.745 3.65573C25.6219 3.65573 25.4988 3.60651 25.4127 3.52036L25.1912 3.29885C25.0066 3.11425 25.0066 2.81889 25.1912 2.6343C25.3758 2.4497 25.6711 2.4497 25.8557 2.6343L26.0772 2.85581C26.2618 3.04041 26.2618 3.33577 26.0772 3.52036C25.9788 3.60651 25.868 3.65573 25.745 3.65573Z" fill="#5E2BA7" stroke="#5E2BA7" stroke-width="0.5" stroke-miterlimit="10"/>
</g>
<defs>
<clipPath id="clip0_238_1041">
<rect width="31" height="31" fill="white"/>
</clipPath>
</defs>
</svg>
