<svg width="36" height="36" viewBox="0 0 36 36" fill="none" xmlns="http://www.w3.org/2000/svg">
<g clip-path="url(#clip0_238_1041)">
<path d="M10.2608 35.6431C10.0321 35.6431 9.80347 35.6431 9.57481 35.6145C7.28819 35.4287 5.08731 34.3854 3.35806 32.6419C1.6288 30.9126 0.571237 28.6974 0.385449 26.4108C0.199661 24.0956 0.942813 21.9948 2.4577 20.4656C3.944 18.9793 7.24531 18.279 8.24571 18.0932C8.56012 17.4787 9.40331 15.9209 10.2036 15.1063C12.476 12.834 16.2489 12.8054 19.2072 15.0206C19.4502 15.2064 19.493 15.5494 19.3215 15.7923C19.1357 16.0353 18.7928 16.0781 18.5498 15.9066C16.0345 14.0202 12.8618 14.0202 10.9754 15.9066C10.1036 16.7784 9.10319 18.8221 9.10319 18.8507C9.03174 19.0079 8.87453 19.1222 8.68874 19.1508C8.64587 19.1508 4.68716 19.7939 3.22943 21.2659C1.94321 22.5521 1.31439 24.3529 1.47159 26.3394C1.6288 28.3544 2.57203 30.3267 4.1155 31.8701C5.65897 33.4136 7.63118 34.3568 9.64627 34.514C11.6328 34.6712 13.4335 34.0567 14.7197 32.7562C15.9345 31.5414 16.6633 28.3973 16.8348 27.2969C16.8634 27.1254 16.9777 26.9682 17.135 26.8824C17.1492 26.8824 19.1929 25.8677 20.079 24.996C21.9797 23.0952 21.9512 19.8797 20.0218 17.3644C19.836 17.1214 19.8789 16.7784 20.1219 16.5926C20.3648 16.4068 20.7078 16.4497 20.8936 16.6927C23.1659 19.6653 23.1516 23.4811 20.8507 25.7677C20.0361 26.5823 18.4783 27.4255 17.8638 27.7399C17.678 28.726 16.9777 32.0416 15.4914 33.5279C14.1338 34.8856 12.2902 35.6288 10.2465 35.6288L10.2608 35.6431Z" fill="#5E2BA7" stroke="#5E2BA7" stroke-width="0.5" stroke-miterlimit="10"/>
<path d="M15.6765 22.3087C15.5336 22.3087 15.3907 22.2516 15.2906 22.1515L13.79 20.6509C13.69 20.5509 13.6328 20.408 13.6328 20.2651C13.6328 20.1222 13.69 19.9793 13.79 19.8792L28.796 4.85897C28.5959 4.64459 28.6102 4.31589 28.8103 4.10152L32.3974 0.514383C32.4974 0.414343 32.6404 0.357178 32.7833 0.357178C32.9262 0.357178 33.0691 0.414343 33.1691 0.514383L35.4701 2.8153C35.6844 3.02967 35.6844 3.37266 35.4701 3.58703L31.8829 7.17417C31.7829 7.27421 31.64 7.33138 31.497 7.33138C31.3541 7.33138 31.2112 7.27421 31.1112 7.17417L31.0683 7.1313L16.0623 22.1373C15.9623 22.2516 15.8194 22.2945 15.6765 22.2945V22.3087ZM14.9476 20.2651L15.6765 20.9797L30.6824 5.97369C30.7825 5.87365 30.9254 5.81649 31.0683 5.81649C31.2112 5.81649 31.3541 5.87365 31.4542 5.97369L31.497 6.01657L34.3124 3.20116L32.7833 1.67199L29.9679 4.48739C30.1679 4.70176 30.1537 5.03046 29.9536 5.24483L14.9476 20.2508V20.2651Z" fill="#5E2BA7" stroke="#5E2BA7" stroke-width="0.5" stroke-miterlimit="10"/>
<path d="M13.1341 25.9953C12.3337 25.9953 11.5334 25.6952 10.9189 25.0807C9.70412 23.8659 9.70412 21.8651 10.9189 20.6503C12.1337 19.4356 14.1345 19.4213 15.3492 20.6503C15.9352 21.2363 16.2639 22.0366 16.2639 22.8655C16.2639 23.6944 15.9352 24.4947 15.3492 25.0807C14.7347 25.6952 13.9344 25.9953 13.1341 25.9953ZM13.1341 20.8218C12.6196 20.8218 12.0908 21.0219 11.6906 21.4221C10.8903 22.2224 10.8903 23.5086 11.6906 24.3089C12.4909 25.1092 13.7772 25.1092 14.5775 24.3089C14.9634 23.9231 15.1777 23.4086 15.1777 22.8655C15.1777 22.3224 14.9634 21.8079 14.5775 21.4221C14.1773 21.0219 13.6628 20.8218 13.1341 20.8218Z" fill="#5E2BA7" stroke="#5E2BA7" stroke-width="0.5" stroke-miterlimit="10"/>
<path d="M10.5037 31.2701C10.3608 31.2701 10.2178 31.213 10.1178 31.1129L4.8014 25.7965C4.58703 25.5822 4.58703 25.2392 4.8014 25.0248C5.01577 24.8104 5.35877 24.8104 5.57314 25.0248L10.8895 30.3412C11.1039 30.5556 11.1039 30.8986 10.8895 31.1129C10.7895 31.213 10.6466 31.2701 10.5037 31.2701Z" fill="#5E2BA7" stroke="#5E2BA7" stroke-width="0.5" stroke-miterlimit="10"/>
<path d="M34.5285 4.97367C34.3856 4.97367 34.2427 4.91651 34.1426 4.81647L33.8854 4.55922C33.671 4.34485 33.671 4.00186 33.8854 3.78749C34.0998 3.57312 34.4428 3.57312 34.6571 3.78749L34.9144 4.04473C35.1287 4.2591 35.1287 4.6021 34.9144 4.81647C34.8 4.9308 34.6714 4.97367 34.5285 4.97367Z" fill="#5E2BA7" stroke="#5E2BA7" stroke-width="0.5" stroke-miterlimit="10"/>
<path d="M31.841 2.30033C31.6981 2.30033 31.5552 2.24317 31.4551 2.14313L31.1979 1.88588C30.9835 1.67151 30.9835 1.32852 31.1979 1.11415C31.4123 0.899776 31.7553 0.899776 31.9696 1.11415L32.2269 1.37139C32.4412 1.58576 32.4412 1.92876 32.2269 2.14313C32.1125 2.24317 31.9839 2.30033 31.841 2.30033Z" fill="#5E2BA7" stroke="#5E2BA7" stroke-width="0.5" stroke-miterlimit="10"/>
<path d="M33.5578 5.94535C33.4149 5.94535 33.272 5.88819 33.1719 5.78815L32.9147 5.5309C32.7003 5.31653 32.7003 4.97354 32.9147 4.75917C33.1291 4.5448 33.472 4.5448 33.6864 4.75917L33.9437 5.01641C34.158 5.23078 34.158 5.57378 33.9437 5.78815C33.8436 5.90248 33.7007 5.94535 33.5578 5.94535Z" fill="#5E2BA7" stroke="#5E2BA7" stroke-width="0.5" stroke-miterlimit="10"/>
<path d="M30.8703 3.27201C30.7274 3.27201 30.5845 3.21485 30.4844 3.11481L30.2272 2.85756C30.0128 2.64319 30.0128 2.3002 30.2272 2.08583C30.4416 1.87146 30.7845 1.87146 30.9989 2.08583L31.2562 2.34307C31.4705 2.55744 31.4705 2.90044 31.2562 3.11481C31.1561 3.21485 31.0132 3.27201 30.8703 3.27201Z" fill="#5E2BA7" stroke="#5E2BA7" stroke-width="0.5" stroke-miterlimit="10"/>
<path d="M32.5832 6.91703C32.4403 6.91703 32.2974 6.85987 32.1973 6.75983L31.9401 6.50258C31.7257 6.28821 31.7257 5.94522 31.9401 5.73085C32.1544 5.51648 32.4974 5.51648 32.7118 5.73085L32.9691 5.98809C33.1834 6.20246 33.1834 6.54545 32.9691 6.75983C32.8547 6.87416 32.7261 6.91703 32.5832 6.91703Z" fill="#5E2BA7" stroke="#5E2BA7" stroke-width="0.5" stroke-miterlimit="10"/>
<path d="M29.8976 4.24516C29.7547 4.24516 29.6118 4.18799 29.5118 4.08795L29.2545 3.83071C29.0402 3.61634 29.0402 3.27334 29.2545 3.05897C29.4689 2.8446 29.8119 2.8446 30.0263 3.05897L30.2835 3.31622C30.4979 3.53059 30.4979 3.87358 30.2835 4.08795C30.1692 4.18799 30.0406 4.24516 29.8976 4.24516Z" fill="#5E2BA7" stroke="#5E2BA7" stroke-width="0.5" stroke-miterlimit="10"/>
</g>
<defs>
<clipPath id="clip0_238_1041">
<rect width="36" height="36" fill="white"/>
</clipPath>
</defs>
</svg>
