<svg width="25" height="25" viewBox="0 0 25 25" fill="none" xmlns="http://www.w3.org/2000/svg">
<g clip-path="url(#clip0_238_1041)">
<path d="M7.12539 24.7522C6.9666 24.7522 6.8078 24.7522 6.64901 24.7323C5.06108 24.6033 3.53269 23.8788 2.33182 22.668C1.13095 21.4672 0.39653 19.9288 0.26751 18.3409C0.138491 16.7331 0.654569 15.2742 1.70657 14.2123C2.73873 13.1801 5.03131 12.6938 5.72603 12.5648C5.94437 12.1381 6.52992 11.0563 7.08569 10.4906C8.6637 8.91257 11.2838 8.89272 13.3382 10.431C13.5069 10.56 13.5367 10.7982 13.4176 10.967C13.2886 11.1357 13.0504 11.1654 12.8816 11.0464C11.1349 9.73631 8.93166 9.73631 7.62162 11.0464C7.01622 11.6517 6.3215 13.071 6.3215 13.0908C6.27188 13.2 6.16271 13.2794 6.03369 13.2992C6.00391 13.2992 3.25481 13.7458 2.2425 14.7681C1.34929 15.6613 0.912608 16.9118 1.02178 18.2913C1.13095 19.6907 1.78597 21.0602 2.85782 22.1321C3.92968 23.204 5.29927 23.859 6.69863 23.9681C8.07815 24.0773 9.32865 23.6506 10.2219 22.7474C11.0654 21.9038 11.5716 19.7204 11.6907 18.9562C11.7105 18.8371 11.7899 18.728 11.8991 18.6684C11.909 18.6684 13.3282 17.9638 13.9436 17.3584C15.2635 16.0384 15.2437 13.8054 13.9039 12.0587C13.7749 11.8899 13.8046 11.6517 13.9733 11.5227C14.1421 11.3937 14.3803 11.4235 14.5093 11.5922C16.0873 13.6565 16.0774 16.3064 14.4795 17.8943C13.9138 18.46 12.832 19.0456 12.4053 19.2639C12.2762 19.9487 11.7899 22.2512 10.7578 23.2833C9.81495 24.2262 8.53468 24.7423 7.11547 24.7423L7.12539 24.7522Z" fill="#5E2BA7" stroke="#5E2BA7" stroke-width="0.5" stroke-miterlimit="10"/>
<path d="M10.888 15.4922C10.7887 15.4922 10.6895 15.4525 10.62 15.383L9.57792 14.3409C9.50845 14.2715 9.46875 14.1722 9.46875 14.073C9.46875 13.9737 9.50845 13.8745 9.57792 13.805L19.9987 3.37429C19.8598 3.22542 19.8697 2.99715 20.0086 2.84828L22.4997 0.357217C22.5692 0.287745 22.6684 0.248047 22.7677 0.248047C22.8669 0.248047 22.9662 0.287745 23.0356 0.357217L24.6335 1.95507C24.7824 2.10394 24.7824 2.34213 24.6335 2.491L22.1424 4.98207C22.073 5.05154 21.9737 5.09124 21.8745 5.09124C21.7752 5.09124 21.676 5.05154 21.6065 4.98207L21.5767 4.95229L11.1559 15.3731C11.0865 15.4525 10.9872 15.4823 10.888 15.4823V15.4922ZM10.3818 14.073L10.888 14.5692L21.3088 4.1484C21.3782 4.07893 21.4775 4.03923 21.5767 4.03923C21.676 4.03923 21.7752 4.07893 21.8447 4.1484L21.8745 4.17818L23.8296 2.22304L22.7677 1.16111L20.8125 3.11625C20.9515 3.26512 20.9416 3.49338 20.8026 3.64225L10.3818 14.0631V14.073Z" fill="#5E2BA7" stroke="#5E2BA7" stroke-width="0.5" stroke-miterlimit="10"/>
<path d="M9.12022 18.0523C8.56444 18.0523 8.00867 17.8439 7.58191 17.4171C6.73832 16.5735 6.73832 15.1841 7.58191 14.3405C8.4255 13.4969 9.81494 13.487 10.6585 14.3405C11.0654 14.7474 11.2937 15.3032 11.2937 15.8788C11.2937 16.4545 11.0654 17.0102 10.6585 17.4171C10.2318 17.8439 9.676 18.0523 9.12022 18.0523ZM9.12022 14.4596C8.76293 14.4596 8.39573 14.5986 8.11784 14.8764C7.56206 15.4322 7.56206 16.3254 8.11784 16.8812C8.67361 17.437 9.56682 17.437 10.1226 16.8812C10.3906 16.6132 10.5394 16.256 10.5394 15.8788C10.5394 15.5017 10.3906 15.1444 10.1226 14.8764C9.84471 14.5986 9.48743 14.4596 9.12022 14.4596Z" fill="#5E2BA7" stroke="#5E2BA7" stroke-width="0.5" stroke-miterlimit="10"/>
<path d="M7.29421 21.7153C7.19497 21.7153 7.09572 21.6756 7.02625 21.6061L3.33431 17.9142C3.18544 17.7653 3.18544 17.5271 3.33431 17.3783C3.48318 17.2294 3.72137 17.2294 3.87023 17.3783L7.56218 21.0702C7.71104 21.2191 7.71104 21.4573 7.56218 21.6061C7.4927 21.6756 7.39346 21.7153 7.29421 21.7153Z" fill="#5E2BA7" stroke="#5E2BA7" stroke-width="0.5" stroke-miterlimit="10"/>
<path d="M23.9782 3.45395C23.8789 3.45395 23.7797 3.41425 23.7102 3.34478L23.5316 3.16613C23.3827 3.01726 23.3827 2.77907 23.5316 2.63021C23.6804 2.48134 23.9186 2.48134 24.0675 2.63021L24.2461 2.80885C24.395 2.95772 24.395 3.19591 24.2461 3.34478C24.1667 3.42417 24.0774 3.45395 23.9782 3.45395Z" fill="#5E2BA7" stroke="#5E2BA7" stroke-width="0.5" stroke-miterlimit="10"/>
<path d="M22.1129 1.5975C22.0137 1.5975 21.9145 1.5578 21.845 1.48833L21.6663 1.30969C21.5175 1.16082 21.5175 0.922629 21.6663 0.773761C21.8152 0.624892 22.0534 0.624892 22.2023 0.773761L22.3809 0.952403C22.5298 1.10127 22.5298 1.33946 22.3809 1.48833C22.3015 1.5578 22.2122 1.5975 22.1129 1.5975Z" fill="#5E2BA7" stroke="#5E2BA7" stroke-width="0.5" stroke-miterlimit="10"/>
<path d="M23.3043 4.12875C23.2051 4.12875 23.1059 4.08905 23.0364 4.01958L22.8577 3.84094C22.7089 3.69207 22.7089 3.45388 22.8577 3.30501C23.0066 3.15614 23.2448 3.15614 23.3937 3.30501L23.5723 3.48365C23.7212 3.63252 23.7212 3.87071 23.5723 4.01958C23.5028 4.09898 23.4036 4.12875 23.3043 4.12875Z" fill="#5E2BA7" stroke="#5E2BA7" stroke-width="0.5" stroke-miterlimit="10"/>
<path d="M21.4372 2.27231C21.3379 2.27231 21.2387 2.23261 21.1692 2.16313L20.9906 1.98449C20.8417 1.83562 20.8417 1.59743 20.9906 1.44857C21.1394 1.2997 21.3776 1.2997 21.5265 1.44857L21.7051 1.62721C21.854 1.77608 21.854 2.01427 21.7051 2.16313C21.6357 2.23261 21.5364 2.27231 21.4372 2.27231Z" fill="#5E2BA7" stroke="#5E2BA7" stroke-width="0.5" stroke-miterlimit="10"/>
<path d="M22.6286 4.80356C22.5293 4.80356 22.4301 4.76386 22.3606 4.69438L22.182 4.51574C22.0331 4.36687 22.0331 4.12868 22.182 3.97982C22.3308 3.83095 22.569 3.83095 22.7179 3.97982L22.8965 4.15846C23.0454 4.30733 23.0454 4.54552 22.8965 4.69438C22.8171 4.77378 22.7278 4.80356 22.6286 4.80356Z" fill="#5E2BA7" stroke="#5E2BA7" stroke-width="0.5" stroke-miterlimit="10"/>
<path d="M20.7614 2.94809C20.6621 2.94809 20.5629 2.90839 20.4934 2.83892L20.3148 2.66027C20.1659 2.51141 20.1659 2.27322 20.3148 2.12435C20.4636 1.97548 20.7018 1.97548 20.8507 2.12435L21.0293 2.30299C21.1782 2.45186 21.1782 2.69005 21.0293 2.83892C20.95 2.90839 20.8606 2.94809 20.7614 2.94809Z" fill="#5E2BA7" stroke="#5E2BA7" stroke-width="0.5" stroke-miterlimit="10"/>
</g>
<defs>
<clipPath id="clip0_238_1041">
<rect width="25" height="25" fill="white"/>
</clipPath>
</defs>
</svg>
