<svg width="27" height="27" viewBox="0 0 27 27" fill="none" xmlns="http://www.w3.org/2000/svg">
<path d="M13.5 26C20.4036 26 26 20.4036 26 13.5C26 6.59644 20.4036 1 13.5 1C6.59644 1 1 6.59644 1 13.5C1 20.4036 6.59644 26 13.5 26Z" stroke="#5E2BA7" stroke-width="2" stroke-linejoin="round"/>
<path d="M13.4998 1C13.4998 1 8.63867 5.16667 8.63867 13.5C8.63867 21.8333 13.4998 26 13.4998 26" stroke="#5E2BA7" stroke-width="2" stroke-linejoin="round"/>
<path d="M13.5 1C13.5 1 18.3611 5.16667 18.3611 13.5C18.3611 21.8333 13.5 26 13.5 26" stroke="#5E2BA7" stroke-width="2" stroke-linejoin="round"/>
<path d="M1 13.5H26" stroke="#5E2BA7" stroke-width="2" stroke-linejoin="round"/>
<path d="M23.9173 19.75H3.08398" stroke="#5E2BA7" stroke-width="2" stroke-linejoin="round"/>
<path d="M23.9154 7.25H3.08203" stroke="#5E2BA7" stroke-width="2" stroke-linejoin="round"/>
</svg>
