<svg width="20" height="27" viewBox="0 0 20 27" fill="none" xmlns="http://www.w3.org/2000/svg">
<path d="M18.0656 9.5328C18.0656 16.2825 12.7263 23.0323 10.4949 25.5585C9.97494 26.1472 9.09066 26.1472 8.57073 25.5585C6.33931 23.0323 1 16.2825 1 9.5328C1 6.68853 3.1332 1 9.5328 1C15.9324 1 18.0656 6.68853 18.0656 9.5328Z" stroke="#5E2BA7" stroke-width="2" stroke-linejoin="round"/>
<path d="M9.53177 12.377C11.1026 12.377 12.376 11.1036 12.376 9.53274C12.376 7.9619 11.1026 6.68848 9.53177 6.68848C7.96092 6.68848 6.6875 7.9619 6.6875 9.53274C6.6875 11.1036 7.96092 12.377 9.53177 12.377Z" stroke="#5E2BA7" stroke-width="2" stroke-linejoin="round"/>
</svg>
