<svg width="200" height="52" viewBox="0 0 200 52" fill="none" xmlns="http://www.w3.org/2000/svg">
<path d="M55.145 42.225C55.145 43.116 55.343 43.9025 55.739 44.5845C56.146 45.2665 56.674 45.8 57.323 46.185C57.972 46.57 58.676 46.7625 59.435 46.7625C59.985 46.7625 60.4855 46.691 60.9365 46.548C61.3985 46.405 61.8165 46.207 62.1905 45.954C62.5645 45.69 62.8835 45.3875 63.1475 45.0465V46.8945C62.6635 47.3235 62.1355 47.6425 61.5635 47.8515C60.9915 48.0605 60.282 48.165 59.435 48.165C58.632 48.165 57.8785 48.022 57.1745 47.736C56.4815 47.439 55.871 47.0265 55.343 46.4985C54.815 45.9595 54.4025 45.327 54.1055 44.601C53.8085 43.875 53.66 43.083 53.66 42.225C53.66 41.367 53.8085 40.575 54.1055 39.849C54.4025 39.123 54.815 38.496 55.343 37.968C55.871 37.429 56.4815 37.0165 57.1745 36.7305C57.8785 36.4335 58.632 36.285 59.435 36.285C60.282 36.285 60.9915 36.3895 61.5635 36.5985C62.1355 36.8075 62.6635 37.1265 63.1475 37.5555V39.4035C62.8835 39.0625 62.5645 38.7655 62.1905 38.5125C61.8165 38.2485 61.3985 38.045 60.9365 37.902C60.4855 37.759 59.985 37.6875 59.435 37.6875C58.676 37.6875 57.972 37.88 57.323 38.265C56.674 38.65 56.146 39.1835 55.739 39.8655C55.343 40.5365 55.145 41.323 55.145 42.225ZM64.8729 44.205C64.8729 43.435 65.0434 42.753 65.3844 42.159C65.7364 41.565 66.2094 41.0975 66.8034 40.7565C67.3974 40.4155 68.0629 40.245 68.7999 40.245C69.5479 40.245 70.2134 40.4155 70.7964 40.7565C71.3904 41.0975 71.8579 41.565 72.1989 42.159C72.5509 42.753 72.7269 43.435 72.7269 44.205C72.7269 44.964 72.5509 45.646 72.1989 46.251C71.8579 46.845 71.3904 47.3125 70.7964 47.6535C70.2134 47.9945 69.5479 48.165 68.7999 48.165C68.0629 48.165 67.3974 47.9945 66.8034 47.6535C66.2094 47.3125 65.7364 46.845 65.3844 46.251C65.0434 45.646 64.8729 44.964 64.8729 44.205ZM66.2094 44.205C66.2094 44.733 66.3194 45.2005 66.5394 45.6075C66.7704 46.0145 67.0784 46.339 67.4634 46.581C67.8594 46.812 68.3049 46.9275 68.7999 46.9275C69.2949 46.9275 69.7349 46.812 70.1199 46.581C70.5159 46.339 70.8239 46.0145 71.0439 45.6075C71.2749 45.2005 71.3904 44.733 71.3904 44.205C71.3904 43.677 71.2749 43.2095 71.0439 42.8025C70.8239 42.3845 70.5159 42.06 70.1199 41.829C69.7349 41.598 69.2949 41.4825 68.7999 41.4825C68.3049 41.4825 67.8594 41.598 67.4634 41.829C67.0784 42.06 66.7704 42.3845 66.5394 42.8025C66.3194 43.2095 66.2094 43.677 66.2094 44.205ZM79.4077 43.38C79.4077 42.753 79.2702 42.28 78.9952 41.961C78.7202 41.642 78.3187 41.4825 77.7907 41.4825C77.4057 41.4825 77.0647 41.565 76.7677 41.73C76.4817 41.884 76.2562 42.104 76.0912 42.39C75.9372 42.676 75.8602 43.006 75.8602 43.38V48H74.5402V40.41H75.8602V41.598C76.1132 41.136 76.4267 40.795 76.8007 40.575C77.1857 40.355 77.6257 40.245 78.1207 40.245C78.9237 40.245 79.5562 40.5145 80.0182 41.0535C80.4912 41.5815 80.7277 42.302 80.7277 43.215V48H79.4077V43.38ZM88.0767 43.38C88.0767 42.753 87.9392 42.28 87.6642 41.961C87.3892 41.642 86.9877 41.4825 86.4597 41.4825C86.0747 41.4825 85.7337 41.565 85.4367 41.73C85.1507 41.884 84.9252 42.104 84.7602 42.39C84.6062 42.676 84.5292 43.006 84.5292 43.38V48H83.2092V40.41H84.5292V41.598C84.7822 41.136 85.0957 40.795 85.4697 40.575C85.8547 40.355 86.2947 40.245 86.7897 40.245C87.5927 40.245 88.2252 40.5145 88.6872 41.0535C89.1602 41.5815 89.3967 42.302 89.3967 43.215V48H88.0767V43.38ZM94.8151 48.165C94.1111 48.165 93.4841 48 92.9341 47.67C92.3951 47.329 91.9716 46.8615 91.6636 46.2675C91.3666 45.6735 91.2181 44.986 91.2181 44.205C91.2181 43.413 91.3721 42.72 91.6801 42.126C91.9991 41.532 92.4391 41.07 93.0001 40.74C93.5721 40.41 94.2321 40.245 94.9801 40.245C95.7281 40.245 96.3661 40.4045 96.8941 40.7235C97.4331 41.0315 97.8456 41.477 98.1316 42.06C98.4176 42.643 98.5606 43.336 98.5606 44.139C98.5606 44.216 98.5551 44.2985 98.5441 44.3865C98.5441 44.4635 98.5441 44.513 98.5441 44.535H92.0596V43.413H97.5046L96.9766 44.172C97.0096 44.117 97.0426 44.0345 97.0756 43.9245C97.1086 43.8035 97.1251 43.7045 97.1251 43.6275C97.1251 43.1765 97.0316 42.786 96.8446 42.456C96.6686 42.126 96.4211 41.8675 96.1021 41.6805C95.7831 41.4935 95.4091 41.4 94.9801 41.4C94.4741 41.4 94.0396 41.51 93.6766 41.73C93.3246 41.939 93.0496 42.247 92.8516 42.654C92.6646 43.05 92.5656 43.5395 92.5546 44.1225C92.5546 44.7165 92.6481 45.2225 92.8351 45.6405C93.0221 46.0585 93.2971 46.3775 93.6601 46.5975C94.0231 46.8175 94.4631 46.9275 94.9801 46.9275C95.4971 46.9275 95.9536 46.8175 96.3496 46.5975C96.7456 46.3665 97.0811 46.02 97.3561 45.558L98.4286 46.2345C98.0326 46.8725 97.5321 47.3565 96.9271 47.6865C96.3331 48.0055 95.6291 48.165 94.8151 48.165ZM100.964 44.205C100.964 44.733 101.074 45.2005 101.294 45.6075C101.525 46.0145 101.833 46.339 102.218 46.581C102.614 46.812 103.059 46.9275 103.554 46.9275C103.961 46.9275 104.341 46.867 104.693 46.746C105.056 46.614 105.369 46.4435 105.633 46.2345C105.897 46.0145 106.084 45.7835 106.194 45.5415V47.1915C105.93 47.4995 105.551 47.7415 105.056 47.9175C104.572 48.0825 104.071 48.165 103.554 48.165C102.817 48.165 102.152 47.9945 101.558 47.6535C100.964 47.3125 100.491 46.845 100.139 46.251C99.7978 45.646 99.6273 44.964 99.6273 44.205C99.6273 43.435 99.7978 42.753 100.139 42.159C100.491 41.565 100.964 41.0975 101.558 40.7565C102.152 40.4155 102.817 40.245 103.554 40.245C104.071 40.245 104.572 40.333 105.056 40.509C105.551 40.674 105.93 40.9105 106.194 41.2185V42.8685C106.084 42.6155 105.897 42.3845 105.633 42.1755C105.369 41.9665 105.056 41.8015 104.693 41.6805C104.341 41.5485 103.961 41.4825 103.554 41.4825C103.059 41.4825 102.614 41.598 102.218 41.829C101.833 42.06 101.525 42.3845 101.294 42.8025C101.074 43.2095 100.964 43.677 100.964 44.205ZM107.094 40.41H110.889V41.6475H107.094V40.41ZM108.332 37.77H109.652V48H108.332V37.77ZM123.182 40.41L118.232 51.63H116.747L118.826 46.9275L115.922 40.41H117.49L119.899 46.35L119.354 46.284L121.697 40.41H123.182ZM123.525 44.205C123.525 43.435 123.696 42.753 124.037 42.159C124.389 41.565 124.862 41.0975 125.456 40.7565C126.05 40.4155 126.715 40.245 127.452 40.245C128.2 40.245 128.866 40.4155 129.449 40.7565C130.043 41.0975 130.51 41.565 130.851 42.159C131.203 42.753 131.379 43.435 131.379 44.205C131.379 44.964 131.203 45.646 130.851 46.251C130.51 46.845 130.043 47.3125 129.449 47.6535C128.866 47.9945 128.2 48.165 127.452 48.165C126.715 48.165 126.05 47.9945 125.456 47.6535C124.862 47.3125 124.389 46.845 124.037 46.251C123.696 45.646 123.525 44.964 123.525 44.205ZM124.862 44.205C124.862 44.733 124.972 45.2005 125.192 45.6075C125.423 46.0145 125.731 46.339 126.116 46.581C126.512 46.812 126.957 46.9275 127.452 46.9275C127.947 46.9275 128.387 46.812 128.772 46.581C129.168 46.339 129.476 46.0145 129.696 45.6075C129.927 45.2005 130.043 44.733 130.043 44.205C130.043 43.677 129.927 43.2095 129.696 42.8025C129.476 42.3845 129.168 42.06 128.772 41.829C128.387 41.598 127.947 41.4825 127.452 41.4825C126.957 41.4825 126.512 41.598 126.116 41.829C125.731 42.06 125.423 42.3845 125.192 42.8025C124.972 43.2095 124.862 43.677 124.862 44.205ZM134.513 45.03C134.513 45.635 134.65 46.1025 134.925 46.4325C135.2 46.7625 135.602 46.9275 136.13 46.9275C136.515 46.9275 136.85 46.8505 137.136 46.6965C137.433 46.5315 137.659 46.306 137.813 46.02C137.978 45.734 138.06 45.404 138.06 45.03V40.41H139.38V48H138.06V46.812C137.807 47.263 137.494 47.604 137.12 47.835C136.746 48.055 136.306 48.165 135.8 48.165C135.008 48.165 134.375 47.8955 133.902 47.3565C133.429 46.8175 133.193 46.097 133.193 45.195V40.41H134.513V45.03ZM143.182 40.41V48H141.862V40.41H143.182ZM145.475 41.862C145.299 41.73 145.14 41.6365 144.997 41.5815C144.854 41.5155 144.672 41.4825 144.452 41.4825C144.122 41.4825 143.864 41.565 143.677 41.73C143.49 41.895 143.358 42.1205 143.281 42.4065C143.215 42.6925 143.182 43.017 143.182 43.38H142.588C142.588 42.775 142.692 42.2415 142.901 41.7795C143.121 41.3065 143.402 40.9325 143.743 40.6575C144.084 40.3825 144.43 40.245 144.782 40.245C145.057 40.245 145.31 40.2835 145.541 40.3605C145.783 40.4265 146.003 40.564 146.201 40.773L145.475 41.862ZM152.778 45.6735C152.932 45.9045 153.108 46.119 153.306 46.317C153.504 46.515 153.729 46.6745 153.982 46.7955C154.246 46.9055 154.532 46.9605 154.84 46.9605C155.214 46.9605 155.506 46.878 155.715 46.713C155.935 46.537 156.045 46.3005 156.045 46.0035C156.045 45.7395 155.957 45.5195 155.781 45.3435C155.616 45.1565 155.401 45.0025 155.137 44.8815C154.873 44.7495 154.593 44.6285 154.296 44.5185C153.966 44.3865 153.63 44.2325 153.289 44.0565C152.959 43.8695 152.679 43.633 152.448 43.347C152.228 43.05 152.118 42.6815 152.118 42.2415C152.118 41.7905 152.233 41.4165 152.464 41.1195C152.706 40.8225 153.014 40.6025 153.388 40.4595C153.773 40.3165 154.169 40.245 154.576 40.245C154.983 40.245 155.363 40.311 155.715 40.443C156.078 40.575 156.397 40.751 156.672 40.971C156.947 41.191 157.161 41.444 157.315 41.73L156.259 42.4065C156.05 42.1205 155.786 41.884 155.467 41.697C155.159 41.51 154.807 41.4165 154.411 41.4165C154.136 41.4165 153.9 41.477 153.702 41.598C153.504 41.719 153.405 41.906 153.405 42.159C153.405 42.357 153.482 42.533 153.636 42.687C153.79 42.841 153.988 42.9785 154.23 43.0995C154.472 43.2205 154.725 43.336 154.989 43.446C155.429 43.622 155.83 43.8145 156.193 44.0235C156.556 44.2215 156.842 44.4635 157.051 44.7495C157.271 45.0355 157.381 45.404 157.381 45.855C157.381 46.515 157.139 47.065 156.655 47.505C156.182 47.945 155.555 48.165 154.774 48.165C154.268 48.165 153.812 48.077 153.405 47.901C152.998 47.714 152.651 47.4775 152.365 47.1915C152.09 46.9055 151.881 46.614 151.738 46.317L152.778 45.6735ZM158.459 44.205C158.459 43.435 158.629 42.753 158.97 42.159C159.322 41.565 159.795 41.0975 160.389 40.7565C160.983 40.4155 161.649 40.245 162.386 40.245C163.134 40.245 163.799 40.4155 164.382 40.7565C164.976 41.0975 165.444 41.565 165.785 42.159C166.137 42.753 166.313 43.435 166.313 44.205C166.313 44.964 166.137 45.646 165.785 46.251C165.444 46.845 164.976 47.3125 164.382 47.6535C163.799 47.9945 163.134 48.165 162.386 48.165C161.649 48.165 160.983 47.9945 160.389 47.6535C159.795 47.3125 159.322 46.845 158.97 46.251C158.629 45.646 158.459 44.964 158.459 44.205ZM159.795 44.205C159.795 44.733 159.905 45.2005 160.125 45.6075C160.356 46.0145 160.664 46.339 161.049 46.581C161.445 46.812 161.891 46.9275 162.386 46.9275C162.881 46.9275 163.321 46.812 163.706 46.581C164.102 46.339 164.41 46.0145 164.63 45.6075C164.861 45.2005 164.976 44.733 164.976 44.205C164.976 43.677 164.861 43.2095 164.63 42.8025C164.41 42.3845 164.102 42.06 163.706 41.829C163.321 41.598 162.881 41.4825 162.386 41.4825C161.891 41.4825 161.445 41.598 161.049 41.829C160.664 42.06 160.356 42.3845 160.125 42.8025C159.905 43.2095 159.795 43.677 159.795 44.205ZM169.446 45.03C169.446 45.635 169.584 46.1025 169.859 46.4325C170.134 46.7625 170.535 46.9275 171.063 46.9275C171.448 46.9275 171.784 46.8505 172.07 46.6965C172.367 46.5315 172.592 46.306 172.746 46.02C172.911 45.734 172.994 45.404 172.994 45.03V40.41H174.314V48H172.994V46.812C172.741 47.263 172.427 47.604 172.053 47.835C171.679 48.055 171.239 48.165 170.733 48.165C169.941 48.165 169.309 47.8955 168.836 47.3565C168.363 46.8175 168.126 46.097 168.126 45.195V40.41H169.446V45.03ZM181.663 43.38C181.663 42.753 181.525 42.28 181.25 41.961C180.975 41.642 180.574 41.4825 180.046 41.4825C179.661 41.4825 179.32 41.565 179.023 41.73C178.737 41.884 178.511 42.104 178.346 42.39C178.192 42.676 178.115 43.006 178.115 43.38V48H176.795V40.41H178.115V41.598C178.368 41.136 178.682 40.795 179.056 40.575C179.441 40.355 179.881 40.245 180.376 40.245C181.179 40.245 181.811 40.5145 182.273 41.0535C182.746 41.5815 182.983 42.302 182.983 43.215V48H181.663V43.38ZM191.157 35.13H192.477V48H191.157V35.13ZM184.804 44.205C184.804 43.38 184.975 42.676 185.316 42.093C185.657 41.499 186.113 41.0425 186.685 40.7235C187.257 40.4045 187.884 40.245 188.566 40.245C189.204 40.245 189.76 40.4045 190.233 40.7235C190.706 41.0425 191.074 41.499 191.338 42.093C191.613 42.676 191.751 43.38 191.751 44.205C191.751 45.019 191.613 45.723 191.338 46.317C191.074 46.911 190.706 47.3675 190.233 47.6865C189.76 48.0055 189.204 48.165 188.566 48.165C187.884 48.165 187.257 48.0055 186.685 47.6865C186.113 47.3675 185.657 46.911 185.316 46.317C184.975 45.723 184.804 45.019 184.804 44.205ZM186.141 44.205C186.141 44.788 186.256 45.283 186.487 45.69C186.729 46.097 187.048 46.405 187.444 46.614C187.84 46.823 188.269 46.9275 188.731 46.9275C189.116 46.9275 189.496 46.823 189.87 46.614C190.244 46.405 190.552 46.097 190.794 45.69C191.036 45.283 191.157 44.788 191.157 44.205C191.157 43.622 191.036 43.127 190.794 42.72C190.552 42.313 190.244 42.005 189.87 41.796C189.496 41.587 189.116 41.4825 188.731 41.4825C188.269 41.4825 187.84 41.587 187.444 41.796C187.048 42.005 186.729 42.313 186.487 42.72C186.256 43.127 186.141 43.622 186.141 44.205Z" fill="#EFEFEF"/>
<path d="M56.758 18.77V17.08H59.696C60.2333 17.08 60.7013 16.9933 61.1 16.82C61.4987 16.6467 61.802 16.3953 62.01 16.066C62.2353 15.7367 62.348 15.3467 62.348 14.896C62.348 14.2027 62.1053 13.674 61.62 13.31C61.152 12.946 60.5107 12.764 59.696 12.764H57.694V25.036H60.086C60.71 25.036 61.2733 24.9493 61.776 24.776C62.2787 24.5853 62.6687 24.2907 62.946 23.892C63.2407 23.4933 63.388 22.982 63.388 22.358C63.388 21.9073 63.3013 21.526 63.128 21.214C62.972 20.8847 62.738 20.616 62.426 20.408C62.1313 20.1827 61.7847 20.0267 61.386 19.94C60.9873 19.836 60.554 19.784 60.086 19.784H56.758V17.756H60.424C61.308 17.756 62.1487 17.8513 62.946 18.042C63.7607 18.2327 64.4887 18.536 65.13 18.952C65.7713 19.3507 66.274 19.8707 66.638 20.512C67.0193 21.1533 67.21 21.9247 67.21 22.826C67.21 24.022 66.924 25.0013 66.352 25.764C65.7973 26.5267 65.0087 27.09 63.986 27.454C62.9633 27.818 61.776 28 60.424 28H53.976V9.8H60.034C61.2473 9.8 62.3133 9.97333 63.232 10.32C64.1507 10.6493 64.87 11.152 65.39 11.828C65.91 12.504 66.17 13.362 66.17 14.402C66.17 15.3207 65.91 16.1093 65.39 16.768C64.87 17.4267 64.1507 17.9293 63.232 18.276C62.3133 18.6053 61.2473 18.77 60.034 18.77H56.758ZM72.4583 24.282C72.4583 24.6287 72.545 24.932 72.7183 25.192C72.8917 25.4347 73.1257 25.6253 73.4203 25.764C73.7323 25.8853 74.0703 25.946 74.4343 25.946C74.9543 25.946 75.4223 25.842 75.8383 25.634C76.2543 25.4087 76.5923 25.0967 76.8523 24.698C77.1123 24.282 77.2423 23.788 77.2423 23.216L77.6583 24.776C77.6583 25.5387 77.4417 26.18 77.0083 26.7C76.5923 27.22 76.0463 27.61 75.3703 27.87C74.7117 28.13 74.0183 28.26 73.2903 28.26C72.545 28.26 71.8517 28.1127 71.2103 27.818C70.569 27.5233 70.049 27.0987 69.6503 26.544C69.269 25.972 69.0783 25.2787 69.0783 24.464C69.0783 23.3027 69.4857 22.384 70.3003 21.708C71.115 21.032 72.2677 20.694 73.7583 20.694C74.521 20.694 75.1883 20.772 75.7603 20.928C76.3497 21.084 76.8437 21.2747 77.2423 21.5C77.641 21.7253 77.927 21.942 78.1003 22.15V23.71C77.6323 23.3633 77.1037 23.1033 76.5143 22.93C75.9423 22.7567 75.3357 22.67 74.6943 22.67C74.1743 22.67 73.7497 22.7393 73.4203 22.878C73.091 22.9993 72.8483 23.1813 72.6923 23.424C72.5363 23.6493 72.4583 23.9353 72.4583 24.282ZM71.1583 19.42L69.9103 17.132C70.5343 16.8027 71.297 16.4907 72.1983 16.196C73.0997 15.884 74.105 15.728 75.2143 15.728C76.237 15.728 77.147 15.8753 77.9443 16.17C78.7417 16.4647 79.3657 16.898 79.8163 17.47C80.267 18.0247 80.4923 18.7093 80.4923 19.524V28H77.2423V20.226C77.2423 19.8967 77.1903 19.6193 77.0863 19.394C76.9823 19.1513 76.8177 18.952 76.5923 18.796C76.3843 18.64 76.133 18.5273 75.8383 18.458C75.5437 18.3887 75.2143 18.354 74.8503 18.354C74.2957 18.354 73.767 18.4147 73.2643 18.536C72.7617 18.6573 72.3283 18.8047 71.9643 18.978C71.6003 19.1513 71.3317 19.2987 71.1583 19.42ZM91.3469 20.72C91.3469 19.9227 91.1909 19.316 90.8789 18.9C90.5669 18.484 90.0643 18.276 89.3709 18.276C88.9029 18.276 88.4869 18.38 88.1229 18.588C87.7589 18.7787 87.4816 19.056 87.2909 19.42C87.1003 19.784 87.0049 20.2173 87.0049 20.72V28H83.6249V16.04H87.0049V17.86C87.3689 17.184 87.8456 16.6727 88.4349 16.326C89.0416 15.962 89.7696 15.78 90.6189 15.78C92.0403 15.78 93.0976 16.1873 93.7909 17.002C94.4843 17.7993 94.8309 18.9173 94.8309 20.356V28H91.3469V20.72ZM107.17 7.72H110.55V28H107.17V7.72ZM97.3424 22.02C97.3424 20.6853 97.611 19.5587 98.1484 18.64C98.6857 17.704 99.3964 16.9933 100.28 16.508C101.164 16.0227 102.1 15.78 103.088 15.78C104.094 15.78 104.978 16.0313 105.74 16.534C106.52 17.0367 107.127 17.756 107.56 18.692C108.011 19.6107 108.236 20.72 108.236 22.02C108.236 23.3027 108.011 24.412 107.56 25.348C107.127 26.284 106.52 27.0033 105.74 27.506C104.978 28.0087 104.094 28.26 103.088 28.26C102.1 28.26 101.164 28.0173 100.28 27.532C99.3964 27.0467 98.6857 26.336 98.1484 25.4C97.611 24.464 97.3424 23.3373 97.3424 22.02ZM100.826 22.02C100.826 22.7307 100.974 23.346 101.268 23.866C101.563 24.386 101.962 24.7847 102.464 25.062C102.967 25.3393 103.504 25.478 104.076 25.478C104.579 25.478 105.064 25.348 105.532 25.088C106.018 24.8107 106.408 24.412 106.702 23.892C107.014 23.372 107.17 22.748 107.17 22.02C107.17 21.292 107.014 20.668 106.702 20.148C106.408 19.628 106.018 19.238 105.532 18.978C105.064 18.7007 104.579 18.562 104.076 18.562C103.504 18.562 102.967 18.7007 102.464 18.978C101.962 19.2553 101.563 19.654 101.268 20.174C100.974 20.694 100.826 21.3093 100.826 22.02ZM124.678 18.77V17.08H127.616C128.153 17.08 128.621 16.9933 129.02 16.82C129.419 16.6467 129.722 16.3953 129.93 16.066C130.155 15.7367 130.268 15.3467 130.268 14.896C130.268 14.2027 130.025 13.674 129.54 13.31C129.072 12.946 128.431 12.764 127.616 12.764H125.614V25.036H128.006C128.63 25.036 129.193 24.9493 129.696 24.776C130.199 24.5853 130.589 24.2907 130.866 23.892C131.161 23.4933 131.308 22.982 131.308 22.358C131.308 21.9073 131.221 21.526 131.048 21.214C130.892 20.8847 130.658 20.616 130.346 20.408C130.051 20.1827 129.705 20.0267 129.306 19.94C128.907 19.836 128.474 19.784 128.006 19.784H124.678V17.756H128.344C129.228 17.756 130.069 17.8513 130.866 18.042C131.681 18.2327 132.409 18.536 133.05 18.952C133.691 19.3507 134.194 19.8707 134.558 20.512C134.939 21.1533 135.13 21.9247 135.13 22.826C135.13 24.022 134.844 25.0013 134.272 25.764C133.717 26.5267 132.929 27.09 131.906 27.454C130.883 27.818 129.696 28 128.344 28H121.896V9.8H127.954C129.167 9.8 130.233 9.97333 131.152 10.32C132.071 10.6493 132.79 11.152 133.31 11.828C133.83 12.504 134.09 13.362 134.09 14.402C134.09 15.3207 133.83 16.1093 133.31 16.768C132.79 17.4267 132.071 17.9293 131.152 18.276C130.233 18.6053 129.167 18.77 127.954 18.77H124.678ZM141.47 23.32C141.47 24.1 141.626 24.7067 141.938 25.14C142.25 25.556 142.753 25.764 143.446 25.764C143.932 25.764 144.348 25.6687 144.694 25.478C145.058 25.27 145.336 24.984 145.526 24.62C145.734 24.256 145.838 23.8227 145.838 23.32V16.04H149.192V28H145.838V26.18C145.457 26.856 144.972 27.376 144.382 27.74C143.793 28.0867 143.074 28.26 142.224 28.26C140.803 28.26 139.737 27.8527 139.026 27.038C138.333 26.2233 137.986 25.1053 137.986 23.684V16.04H141.47V23.32ZM161.532 7.72H164.912V28H161.532V7.72ZM151.704 22.02C151.704 20.6853 151.972 19.5587 152.51 18.64C153.047 17.704 153.758 16.9933 154.642 16.508C155.526 16.0227 156.462 15.78 157.45 15.78C158.455 15.78 159.339 16.0313 160.102 16.534C160.882 17.0367 161.488 17.756 161.922 18.692C162.372 19.6107 162.598 20.72 162.598 22.02C162.598 23.3027 162.372 24.412 161.922 25.348C161.488 26.284 160.882 27.0033 160.102 27.506C159.339 28.0087 158.455 28.26 157.45 28.26C156.462 28.26 155.526 28.0173 154.642 27.532C153.758 27.0467 153.047 26.336 152.51 25.4C151.972 24.464 151.704 23.3373 151.704 22.02ZM155.188 22.02C155.188 22.7307 155.335 23.346 155.63 23.866C155.924 24.386 156.323 24.7847 156.826 25.062C157.328 25.3393 157.866 25.478 158.438 25.478C158.94 25.478 159.426 25.348 159.894 25.088C160.379 24.8107 160.769 24.412 161.064 23.892C161.376 23.372 161.532 22.748 161.532 22.02C161.532 21.292 161.376 20.668 161.064 20.148C160.769 19.628 160.379 19.238 159.894 18.978C159.426 18.7007 158.94 18.562 158.438 18.562C157.866 18.562 157.328 18.7007 156.826 18.978C156.323 19.2553 155.924 19.654 155.63 20.174C155.335 20.694 155.188 21.3093 155.188 22.02ZM177.172 7.72H180.552V28H177.172V7.72ZM167.344 22.02C167.344 20.6853 167.613 19.5587 168.15 18.64C168.688 17.704 169.398 16.9933 170.282 16.508C171.166 16.0227 172.102 15.78 173.09 15.78C174.096 15.78 174.98 16.0313 175.742 16.534C176.522 17.0367 177.129 17.756 177.562 18.692C178.013 19.6107 178.238 20.72 178.238 22.02C178.238 23.3027 178.013 24.412 177.562 25.348C177.129 26.284 176.522 27.0033 175.742 27.506C174.98 28.0087 174.096 28.26 173.09 28.26C172.102 28.26 171.166 28.0173 170.282 27.532C169.398 27.0467 168.688 26.336 168.15 25.4C167.613 24.464 167.344 23.3373 167.344 22.02ZM170.828 22.02C170.828 22.7307 170.976 23.346 171.27 23.866C171.565 24.386 171.964 24.7847 172.466 25.062C172.969 25.3393 173.506 25.478 174.078 25.478C174.581 25.478 175.066 25.348 175.534 25.088C176.02 24.8107 176.41 24.412 176.704 23.892C177.016 23.372 177.172 22.748 177.172 22.02C177.172 21.292 177.016 20.668 176.704 20.148C176.41 19.628 176.02 19.238 175.534 18.978C175.066 18.7007 174.581 18.562 174.078 18.562C173.506 18.562 172.969 18.7007 172.466 18.978C171.964 19.2553 171.565 19.654 171.27 20.174C170.976 20.694 170.828 21.3093 170.828 22.02ZM195.179 16.04L187.379 33.72H183.921L186.937 26.804L181.971 16.04H185.715L189.563 25.556L187.899 25.504L191.669 16.04H195.179Z" fill="#EFEFEF"/>
<rect x="40" y="15" width="3" height="27" rx="1.5" fill="#EFEFEF"/>
<rect x="32" y="9" width="3" height="38" rx="1.5" fill="#EFEFEF"/>
<rect x="24" y="20" width="3" height="18" rx="1.5" fill="#EFEFEF"/>
<rect x="16" y="15" width="3" height="27" rx="1.5" fill="#EFEFEF"/>
<rect x="8" y="9" width="3" height="38" rx="1.5" fill="#EFEFEF"/>
<rect y="15" width="3" height="27" rx="1.5" fill="#EFEFEF"/>
</svg>
