<svg width="23" height="21" viewBox="0 0 23 21" fill="none" xmlns="http://www.w3.org/2000/svg">
<g clip-path="url(#clip0_254_98)">
<path d="M0.500234 10.09C0.500234 7.26 0.500234 4.43 0.500234 1.59C0.500234 0.88 0.850234 0.5 1.51023 0.5C4.42023 0.5 7.34023 0.5 10.2502 0.5C10.2802 0.5 10.3002 0.5 10.3302 0.5C10.5702 0.5 10.7002 0.62 10.7002 0.82C10.7002 1.02 10.5602 1.14 10.3202 1.14C7.39023 1.14 4.47023 1.14 1.54023 1.14C1.17023 1.14 1.09023 1.23 1.09023 1.62C1.09023 7.27 1.09023 12.92 1.09023 18.57C1.09023 18.96 1.17023 19.05 1.54023 19.05C4.42023 19.05 7.29023 19.05 10.1702 19.05C10.2102 19.05 10.2602 19.05 10.3002 19.05C10.5502 19.05 10.6902 19.17 10.6902 19.37C10.6902 19.57 10.5502 19.69 10.3002 19.69C7.35023 19.69 4.40023 19.69 1.45023 19.69C0.870234 19.69 0.490234 19.29 0.490234 18.66C0.490234 15.8 0.490234 12.94 0.490234 10.08L0.500234 10.09Z" fill="#5E2BA7" stroke="#5E2BA7" stroke-miterlimit="10"/>
<path d="M15.6307 7.81999C15.6307 7.31999 15.6107 6.85999 15.6307 6.38999C15.6307 6.24999 15.7207 6.06999 15.8307 5.96999C15.9807 5.83999 16.1507 5.92999 16.3007 6.03999C18.0207 7.26999 19.7407 8.49999 21.4607 9.72999C21.7907 9.96999 21.7907 10.23 21.4607 10.47C19.7407 11.7 18.0207 12.93 16.3007 14.16C16.1507 14.27 16.0007 14.34 15.8207 14.24C15.6407 14.14 15.6207 13.98 15.6207 13.79C15.6207 13.33 15.6207 12.87 15.6207 12.38H15.3307C12.3207 12.38 9.3107 12.38 6.2907 12.38C5.8207 12.38 5.7207 12.28 5.7207 11.81C5.7207 10.65 5.7207 9.49999 5.7207 8.33999C5.7207 7.92999 5.8407 7.81999 6.2407 7.81999C9.2607 7.81999 12.2807 7.81999 15.3007 7.81999H15.6207H15.6307ZM6.5107 8.57999V11.63H15.7307C16.3207 11.63 16.3907 11.7 16.3907 12.28C16.3907 12.51 16.3907 12.74 16.3907 12.97C16.3907 13.03 16.4007 13.08 16.4107 13.16C17.8407 12.13 19.2507 11.13 20.6807 10.11C19.2407 9.07999 17.8307 8.07999 16.3907 7.03999C16.3907 7.16999 16.3907 7.25999 16.3907 7.33999C16.3907 8.71999 16.5207 8.57999 15.1407 8.57999C12.3607 8.57999 9.5907 8.57999 6.8107 8.57999H6.5107Z" fill="#5E2BA7" stroke="#5E2BA7" stroke-width="1.4" stroke-miterlimit="10"/>
<path d="M6.50977 8.58004H6.80977C9.58977 8.58004 12.3598 8.58004 15.1398 8.58004C16.5198 8.58004 16.3998 8.71004 16.3898 7.34004C16.3898 7.26004 16.3898 7.17004 16.3898 7.04004C17.8398 8.07004 19.2398 9.08004 20.6798 10.11C19.2498 11.13 17.8398 12.14 16.4098 13.16C16.4098 13.08 16.3898 13.03 16.3898 12.97C16.3898 12.74 16.3898 12.51 16.3898 12.28C16.3898 11.7 16.3198 11.63 15.7298 11.63H6.50977V8.58004Z" fill="#EFEFEF"/>
</g>
<defs>
<clipPath id="clip0_254_98">
<rect width="22.42" height="20.2" fill="white"/>
</clipPath>
</defs>
</svg>
