<svg width="25" height="15" viewBox="0 0 25 15" fill="none" xmlns="http://www.w3.org/2000/svg">
<rect x="0.9125" y="0.850122" width="23.2354" height="13.1054" fill="#EFEFEF" stroke="#5E2BA7" stroke-width="1.7"/>
<mask id="path-2-inside-1_253_111" fill="white">
<path fill-rule="evenodd" clip-rule="evenodd" d="M12.5001 7.87146L25 4.1008e-05L0.000209808 4.1008e-05L12.5001 7.87146Z"/>
</mask>
<path fill-rule="evenodd" clip-rule="evenodd" d="M12.5001 7.87146L25 4.1008e-05L0.000209808 4.1008e-05L12.5001 7.87146Z" fill="#EFEFEF"/>
<path d="M25 4.1008e-05L25.9059 1.43858L30.8899 -1.69996H25V4.1008e-05ZM12.5001 7.87146L11.5942 9.31L12.5001 9.88044L13.406 9.31L12.5001 7.87146ZM0.000209808 4.1008e-05V-1.69996H-5.8897L-0.905665 1.43858L0.000209808 4.1008e-05ZM24.0941 -1.4385L11.5942 6.43292L13.406 9.31L25.9059 1.43858L24.0941 -1.4385ZM25 -1.69996L0.000209808 -1.69996V1.70004L25 1.70004V-1.69996ZM13.406 6.43292L0.906084 -1.4385L-0.905665 1.43858L11.5942 9.31L13.406 6.43292Z" fill="#5E2BA7" mask="url(#path-2-inside-1_253_111)"/>
</svg>
