<svg width="25" height="15" viewBox="0 0 25 15" fill="none" xmlns="http://www.w3.org/2000/svg">
<rect x="0.5625" y="0.500122" width="23.9354" height="13.8054" stroke="#5E2BA7"/>
<mask id="path-2-inside-1_264_408" fill="white">
<path fill-rule="evenodd" clip-rule="evenodd" d="M12.5001 7.87146L25 4.1008e-05L0.000209808 4.1008e-05L12.5001 7.87146Z"/>
</mask>
<path d="M25 4.1008e-05L25.5329 0.84624L28.4647 -0.999959H25V4.1008e-05ZM12.5001 7.87146L11.9672 8.71766L12.5001 9.05322L13.033 8.71766L12.5001 7.87146ZM0.000209808 4.1008e-05V-0.999959H-3.46444L-0.532657 0.84624L0.000209808 4.1008e-05ZM24.4671 -0.846158L11.9672 7.02526L13.033 8.71766L25.5329 0.84624L24.4671 -0.846158ZM25 -0.999959L0.000209808 -0.999959V1.00004L25 1.00004V-0.999959ZM13.033 7.02526L0.533077 -0.846158L-0.532657 0.84624L11.9672 8.71766L13.033 7.02526Z" fill="#5E2BA7" mask="url(#path-2-inside-1_264_408)"/>
</svg>
