<svg width="74" height="94" viewBox="0 0 74 94" fill="none" xmlns="http://www.w3.org/2000/svg">
<g filter="url(#filter0_d_238_1089)">
<mask id="path-1-outside-1_238_1089" maskUnits="userSpaceOnUse" x="14" y="0" width="27" height="27" fill="black">
<rect fill="white" x="14" width="27" height="27"/>
<path d="M30.9582 14.0097L30.5734 13.3816C30.3243 13.5324 30.1875 13.8143 30.2241 14.1018C30.2605 14.3891 30.4634 14.6285 30.7424 14.7131L30.9582 14.0097ZM24.0417 14.0097L24.2576 14.7131C24.5365 14.6285 24.7394 14.3891 24.776 14.1018C24.8124 13.8143 24.6756 13.5324 24.4265 13.3816L24.0417 14.0097ZM33.4203 8.35294C33.4203 10.4823 32.282 12.3482 30.5734 13.3816L31.343 14.6378C33.4743 13.3487 34.9004 11.0166 34.9004 8.35294H33.4203ZM27.5 2.47059C30.7697 2.47059 33.4203 5.10421 33.4203 8.35294H34.9004C34.9004 4.29203 31.5871 1 27.5 1V2.47059ZM21.5797 8.35294C21.5797 5.10421 24.2303 2.47059 27.5 2.47059V1C23.4129 1 20.0997 4.29203 20.0997 8.35294H21.5797ZM24.4265 13.3816C22.718 12.3482 21.5797 10.4824 21.5797 8.35294H20.0997C20.0997 11.0166 21.5256 13.3487 23.6569 14.6378L24.4265 13.3816ZM23.8259 13.3063C19.1537 14.7219 15.6352 18.7653 15.0164 23.7062L16.4851 23.8878C17.0306 19.5321 20.135 15.9621 24.2576 14.7131L23.8259 13.3063ZM15.0164 23.7062C14.8528 25.0121 15.9416 26 17.1395 26V24.5294C16.7027 24.5294 16.4467 24.194 16.4851 23.8878L15.0164 23.7062ZM17.1395 26H37.8605V24.5294H17.1395V26ZM37.8605 26C39.0585 26 40.1472 25.0121 39.9836 23.7062L38.5148 23.8878C38.5532 24.194 38.2973 24.5294 37.8605 24.5294V26ZM39.9836 23.7062C39.3648 18.7653 35.8463 14.7219 31.174 13.3063L30.7424 14.7131C34.865 15.9621 37.9693 19.5321 38.5148 23.8878L39.9836 23.7062Z"/>
</mask>
<path d="M30.9582 14.0097L30.5734 13.3816C30.3243 13.5324 30.1875 13.8143 30.2241 14.1018C30.2605 14.3891 30.4634 14.6285 30.7424 14.7131L30.9582 14.0097ZM24.0417 14.0097L24.2576 14.7131C24.5365 14.6285 24.7394 14.3891 24.776 14.1018C24.8124 13.8143 24.6756 13.5324 24.4265 13.3816L24.0417 14.0097ZM33.4203 8.35294C33.4203 10.4823 32.282 12.3482 30.5734 13.3816L31.343 14.6378C33.4743 13.3487 34.9004 11.0166 34.9004 8.35294H33.4203ZM27.5 2.47059C30.7697 2.47059 33.4203 5.10421 33.4203 8.35294H34.9004C34.9004 4.29203 31.5871 1 27.5 1V2.47059ZM21.5797 8.35294C21.5797 5.10421 24.2303 2.47059 27.5 2.47059V1C23.4129 1 20.0997 4.29203 20.0997 8.35294H21.5797ZM24.4265 13.3816C22.718 12.3482 21.5797 10.4824 21.5797 8.35294H20.0997C20.0997 11.0166 21.5256 13.3487 23.6569 14.6378L24.4265 13.3816ZM23.8259 13.3063C19.1537 14.7219 15.6352 18.7653 15.0164 23.7062L16.4851 23.8878C17.0306 19.5321 20.135 15.9621 24.2576 14.7131L23.8259 13.3063ZM15.0164 23.7062C14.8528 25.0121 15.9416 26 17.1395 26V24.5294C16.7027 24.5294 16.4467 24.194 16.4851 23.8878L15.0164 23.7062ZM17.1395 26H37.8605V24.5294H17.1395V26ZM37.8605 26C39.0585 26 40.1472 25.0121 39.9836 23.7062L38.5148 23.8878C38.5532 24.194 38.2973 24.5294 37.8605 24.5294V26ZM39.9836 23.7062C39.3648 18.7653 35.8463 14.7219 31.174 13.3063L30.7424 14.7131C34.865 15.9621 37.9693 19.5321 38.5148 23.8878L39.9836 23.7062Z" fill="#5E2BA7"/>
<path d="M15.0164 23.7062L15.047 23.4581L14.9857 23.9543L15.0164 23.7062ZM39.9836 23.7062L40.0144 23.9543L39.953 23.4581L39.9836 23.7062ZM15.7814 23.549L15.0471 23.4581L14.9857 23.9543L15.72 24.0452L15.7814 23.549ZM39.2799 24.0452L40.0144 23.9543L39.9529 23.4581L39.2185 23.549L39.2799 24.0452ZM34.9004 8.10294H33.4203V8.60294H34.9004V8.10294ZM27.25 1V2.47059H27.75V1H27.25ZM20.0997 8.60294H21.5797V8.10294H20.0997V8.60294ZM14.9857 23.9543L16.4544 24.1359L16.5158 23.6397L15.047 23.4581L14.9857 23.9543ZM17.3895 26V24.5294H16.8895V26H17.3895ZM38.1105 26V24.5294H37.6105V26H38.1105ZM39.953 23.4581L38.4842 23.6397L38.5455 24.1359L40.0143 23.9543L39.953 23.4581ZM30.9582 14.0097L31.4362 14.1564L31.5024 13.9408L31.3846 13.7485L30.9582 14.0097ZM30.5734 13.3816L30.3146 12.9538L30.3145 12.9538L30.5734 13.3816ZM30.2241 14.1018L30.7201 14.0389L30.7201 14.0387L30.2241 14.1018ZM30.7424 14.7131L30.5974 15.1916L30.5975 15.1916L30.7424 14.7131ZM24.0417 14.0097L23.6154 13.7485L23.4976 13.9408L23.5637 14.1564L24.0417 14.0097ZM24.2576 14.7131L24.4025 15.1916L24.4026 15.1916L24.2576 14.7131ZM24.776 14.1018L25.272 14.1649L25.272 14.1646L24.776 14.1018ZM24.4265 13.3816L24.6854 12.9538L24.6853 12.9538L24.4265 13.3816ZM15.0164 23.7062L15.5125 23.7683V23.7683L15.0164 23.7062ZM39.9836 23.7062L40.4798 23.644V23.644L39.9836 23.7062ZM31.343 14.6378L30.9167 14.899L31.1764 15.3229L31.6018 15.0656L31.343 14.6378ZM23.6569 14.6378L23.3982 15.0656L23.8236 15.3229L24.0833 14.899L23.6569 14.6378ZM23.8259 13.3063L24.3039 13.1597L24.1578 12.6833L23.6809 12.8278L23.8259 13.3063ZM16.4851 23.8878L15.989 23.8257L15.989 23.8257L16.4851 23.8878ZM38.5148 23.8878L39.011 23.8257L39.011 23.8257L38.5148 23.8878ZM31.174 13.3063L31.319 12.8278L30.8421 12.6833L30.696 13.1597L31.174 13.3063ZM31.3846 13.7485L30.9997 13.1204L30.1471 13.6428L30.5319 14.2709L31.3846 13.7485ZM30.3145 12.9538C29.8974 13.2063 29.6664 13.68 29.7281 14.1648L30.7201 14.0387C30.7086 13.9485 30.7512 13.8584 30.8323 13.8094L30.3145 12.9538ZM29.7281 14.1646C29.7895 14.6491 30.1311 15.0503 30.5974 15.1916L30.8875 14.2346C30.7957 14.2068 30.7316 14.1291 30.7201 14.0389L29.7281 14.1646ZM31.2204 14.8597L31.4362 14.1564L30.4802 13.8631L30.2644 14.5664L31.2204 14.8597ZM23.5637 14.1564L23.7796 14.8598L24.7356 14.5664L24.5197 13.863L23.5637 14.1564ZM24.4026 15.1916C24.8688 15.0503 25.2104 14.6492 25.272 14.1649L24.28 14.0387C24.2685 14.1291 24.2042 14.2068 24.1125 14.2346L24.4026 15.1916ZM25.272 14.1646C25.3334 13.6799 25.1026 13.2063 24.6854 12.9538L24.1677 13.8094C24.2487 13.8584 24.2914 13.9486 24.28 14.0389L25.272 14.1646ZM24.0002 13.1204L23.6154 13.7485L24.4681 14.2709L24.8529 13.6428L24.0002 13.1204ZM32.9203 8.35294C32.9203 10.2992 31.8805 12.0067 30.3146 12.9538L30.8322 13.8095C32.6834 12.6898 33.9203 10.6654 33.9203 8.35294H32.9203ZM30.1471 13.6428L30.9167 14.899L31.7694 14.3766L30.9997 13.1204L30.1471 13.6428ZM31.6018 15.0656C33.8756 13.6903 35.4004 11.1999 35.4004 8.35294H34.4004C34.4004 10.8333 33.073 13.0071 31.0843 14.21L31.6018 15.0656ZM27.5 2.97059C30.4965 2.97059 32.9203 5.38337 32.9203 8.35294H33.9203C33.9203 4.82504 31.0428 1.97059 27.5 1.97059V2.97059ZM35.4004 8.35294C35.4004 4.01286 31.8602 0.5 27.5 0.5V1.5C31.314 1.5 34.4004 4.5712 34.4004 8.35294H35.4004ZM22.0797 8.35294C22.0797 5.38337 24.5034 2.97059 27.5 2.97059V1.97059C23.9572 1.97059 21.0797 4.82504 21.0797 8.35294H22.0797ZM27.5 0.5C23.1398 0.5 19.5997 4.01286 19.5997 8.35294H20.5997C20.5997 4.5712 23.686 1.5 27.5 1.5V0.5ZM24.6853 12.9538C23.1195 12.0067 22.0797 10.2993 22.0797 8.35294H21.0797C21.0797 10.6654 22.3166 12.6898 24.1678 13.8094L24.6853 12.9538ZM19.5997 8.35294C19.5997 11.1999 21.1244 13.6903 23.3982 15.0656L23.9157 14.21C21.9269 13.0071 20.5997 10.8334 20.5997 8.35294H19.5997ZM24.0833 14.899L24.8529 13.6428L24.0002 13.1204L23.2306 14.3766L24.0833 14.899ZM23.6809 12.8278C18.8243 14.2993 15.1642 18.5025 14.5202 23.644L15.5125 23.7683C16.1062 19.0281 19.4832 15.1445 23.9709 13.7848L23.6809 12.8278ZM16.9812 23.9499C17.5016 19.7948 20.4645 16.3847 24.4025 15.1916L24.1126 14.2346C19.8055 15.5394 16.5596 19.2693 15.989 23.8257L16.9812 23.9499ZM24.7356 14.5664L24.3039 13.1597L23.3479 13.453L23.7796 14.8598L24.7356 14.5664ZM14.5202 23.644C14.313 25.2987 15.6939 26.5 17.1395 26.5V25.5C16.1893 25.5 15.3926 24.7254 15.5125 23.7683L14.5202 23.644ZM17.1395 24.0294C17.055 24.0294 17.0159 23.9997 16.9999 23.9826C16.9789 23.96 16.9819 23.9444 16.9812 23.9499L15.989 23.8257C15.9099 24.457 16.4294 25.0294 17.1395 25.0294V24.0294ZM17.1395 26.5H37.8605V25.5H17.1395V26.5ZM37.8605 24.0294H17.1395V25.0294H37.8605V24.0294ZM37.8605 26.5C39.3062 26.5 40.687 25.2987 40.4798 23.644L39.4875 23.7683C39.6074 24.7254 38.8107 25.5 37.8605 25.5V26.5ZM38.0187 23.9499C38.018 23.9444 38.021 23.96 38 23.9826C37.9841 23.9997 37.945 24.0294 37.8605 24.0294V25.0294C38.5706 25.0294 39.09 24.4569 39.011 23.8257L38.0187 23.9499ZM40.4798 23.644C39.8358 18.5025 36.1757 14.2993 31.319 12.8278L31.029 13.7848C35.5168 15.1445 38.8938 19.0281 39.4875 23.7683L40.4798 23.644ZM30.696 13.1597L30.2644 14.5664L31.2204 14.8597L31.652 13.453L30.696 13.1597ZM30.5975 15.1916C34.5355 16.3847 37.4983 19.7948 38.0187 23.9499L39.011 23.8257C38.4403 19.2693 35.1945 15.5394 30.8874 14.2346L30.5975 15.1916Z" fill="#5E2BA7" mask="url(#path-1-outside-1_238_1089)"/>
</g>
<defs>
<filter id="filter0_d_238_1089" x="-18.8333" y="0.5" width="92.6667" height="92.6667" filterUnits="userSpaceOnUse" color-interpolation-filters="sRGB">
<feFlood flood-opacity="0" result="BackgroundImageFix"/>
<feColorMatrix in="SourceAlpha" type="matrix" values="0 0 0 0 0 0 0 0 0 0 0 0 0 0 0 0 0 0 127 0" result="hardAlpha"/>
<feOffset dy="33.3333"/>
<feGaussianBlur stdDeviation="16.6667"/>
<feColorMatrix type="matrix" values="0 0 0 0 0 0 0 0 0 0 0 0 0 0 0 0 0 0 0.1 0"/>
<feBlend mode="normal" in2="BackgroundImageFix" result="effect1_dropShadow_238_1089"/>
<feBlend mode="normal" in="SourceGraphic" in2="effect1_dropShadow_238_1089" result="shape"/>
</filter>
</defs>
</svg>
