<svg width="23" height="27" viewBox="0 0 23 27" fill="none" xmlns="http://www.w3.org/2000/svg">
<circle cx="11.1709" cy="8.08498" r="7.23498" stroke="#5E2BA7" stroke-width="1.7"/>
<rect x="0.85" y="8.93496" width="20.7583" height="16.7225" fill="#EFEFEF" stroke="#5E2BA7" stroke-width="1.7"/>
<mask id="path-3-inside-1_253_109" fill="white">
<path fill-rule="evenodd" clip-rule="evenodd" d="M9.02383 17.1671C8.37991 16.5914 7.97461 15.7543 7.97461 14.8225C7.97461 13.086 9.3823 11.6783 11.1188 11.6783C12.8552 11.6783 14.2629 13.086 14.2629 14.8225C14.2629 15.7531 13.8586 16.5893 13.216 17.165V22.1587H9.02383V17.1671Z"/>
</mask>
<path fill-rule="evenodd" clip-rule="evenodd" d="M9.02383 17.1671C8.37991 16.5914 7.97461 15.7543 7.97461 14.8225C7.97461 13.086 9.3823 11.6783 11.1188 11.6783C12.8552 11.6783 14.2629 13.086 14.2629 14.8225C14.2629 15.7531 13.8586 16.5893 13.216 17.165V22.1587H9.02383V17.1671Z" fill="#EFEFEF"/>
<path d="M9.02383 17.1671H10.7238V16.4067L10.157 15.8998L9.02383 17.1671ZM13.216 17.165L12.0817 15.8988L11.516 16.4056V17.165H13.216ZM13.216 22.1587V23.8587H14.916V22.1587H13.216ZM9.02383 22.1587H7.32383V23.8587H9.02383V22.1587ZM6.27461 14.8225C6.27461 16.2582 6.90135 17.5498 7.89071 18.4344L10.157 15.8998C9.85847 15.6329 9.67461 15.2503 9.67461 14.8225H6.27461ZM11.1188 9.97834C8.44341 9.97834 6.27461 12.1471 6.27461 14.8225H9.67461C9.67461 14.0249 10.3212 13.3783 11.1188 13.3783V9.97834ZM15.9629 14.8225C15.9629 12.1471 13.7941 9.97834 11.1188 9.97834V13.3783C11.9164 13.3783 12.5629 14.0249 12.5629 14.8225H15.9629ZM14.3504 18.4312C15.3377 17.5467 15.9629 16.2565 15.9629 14.8225H12.5629C12.5629 15.2498 12.3795 15.632 12.0817 15.8988L14.3504 18.4312ZM11.516 17.165V22.1587H14.916V17.165H11.516ZM13.216 20.4587H9.02383V23.8587H13.216V20.4587ZM10.7238 22.1587V17.1671H7.32383V22.1587H10.7238Z" fill="#5E2BA7" mask="url(#path-3-inside-1_253_109)"/>
</svg>
