<svg width="18" height="21" viewBox="0 0 18 21" fill="none" xmlns="http://www.w3.org/2000/svg">
<circle cx="8.72518" cy="6.31502" r="5.81502" stroke="#5E2BA7"/>
<rect x="0.5" y="6.81519" width="16.5417" height="13.3894" fill="#E1E1E1" stroke="#5E2BA7"/>
<mask id="path-3-inside-1_264_413" fill="white">
<path fill-rule="evenodd" clip-rule="evenodd" d="M7.04791 13.4089C6.54504 12.9592 6.22852 12.3054 6.22852 11.5777C6.22852 10.2213 7.32803 9.12183 8.68436 9.12183C10.0407 9.12183 11.1402 10.2213 11.1402 11.5777C11.1402 12.3046 10.8243 12.9578 10.3224 13.4075V17.3077H7.04791V13.4089Z"/>
</mask>
<path fill-rule="evenodd" clip-rule="evenodd" d="M7.04791 13.4089C6.54504 12.9592 6.22852 12.3054 6.22852 11.5777C6.22852 10.2213 7.32803 9.12183 8.68436 9.12183C10.0407 9.12183 11.1402 10.2213 11.1402 11.5777C11.1402 12.3046 10.8243 12.9578 10.3224 13.4075V17.3077H7.04791V13.4089Z" fill="#E1E1E1"/>
<path d="M7.04791 13.4089H8.04791V12.9616L7.71451 12.6635L7.04791 13.4089ZM10.3224 13.4075L9.65514 12.6626L9.32237 12.9607V13.4075H10.3224ZM10.3224 17.3077V18.3077H11.3224V17.3077H10.3224ZM7.04791 17.3077H6.04791V18.3077H7.04791V17.3077ZM5.22852 11.5777C5.22852 12.6018 5.67527 13.5229 6.38132 14.1543L7.71451 12.6635C7.4148 12.3954 7.22852 12.009 7.22852 11.5777H5.22852ZM8.68436 8.12183C6.77575 8.12183 5.22852 9.66906 5.22852 11.5777H7.22852C7.22852 10.7736 7.88032 10.1218 8.68436 10.1218V8.12183ZM12.1402 11.5777C12.1402 9.66906 10.593 8.12183 8.68436 8.12183V10.1218C9.4884 10.1218 10.1402 10.7736 10.1402 11.5777H12.1402ZM10.9896 14.1523C11.6944 13.521 12.1402 12.6007 12.1402 11.5777H10.1402C10.1402 12.0085 9.9543 12.3946 9.65514 12.6626L10.9896 14.1523ZM9.32237 13.4075V17.3077H11.3224V13.4075H9.32237ZM10.3224 16.3077H7.04791V18.3077H10.3224V16.3077ZM8.04791 17.3077V13.4089H6.04791V17.3077H8.04791Z" fill="#5E2BA7" mask="url(#path-3-inside-1_264_413)"/>
</svg>
