<svg width="93" height="40" viewBox="0 0 93 40" fill="none" xmlns="http://www.w3.org/2000/svg">
<g filter="url(#filter0_d_238_999)">
<path d="M49.9582 13.0097L49.5734 12.3816C49.3243 12.5324 49.1875 12.8143 49.2241 13.1018C49.2605 13.3891 49.4634 13.6285 49.7424 13.7131L49.9582 13.0097ZM43.0417 13.0097L43.2576 13.7131C43.5365 13.6285 43.7394 13.3891 43.776 13.1018C43.8124 12.8143 43.6756 12.5324 43.4265 12.3816L43.0417 13.0097ZM52.4203 7.35294C52.4203 9.48234 51.282 11.3482 49.5734 12.3816L50.343 13.6378C52.4743 12.3487 53.9004 10.0166 53.9004 7.35294H52.4203ZM46.5 1.47059C49.7697 1.47059 52.4203 4.10421 52.4203 7.35294H53.9004C53.9004 3.29203 50.5871 0 46.5 0V1.47059ZM40.5797 7.35294C40.5797 4.10421 43.2303 1.47059 46.5 1.47059V0C42.4129 0 39.0997 3.29203 39.0997 7.35294H40.5797ZM43.4265 12.3816C41.718 11.3482 40.5797 9.48235 40.5797 7.35294H39.0997C39.0997 10.0166 40.5256 12.3487 42.6569 13.6378L43.4265 12.3816ZM42.8259 12.3063C38.1537 13.7219 34.6352 17.7653 34.0164 22.7062L35.4851 22.8878C36.0306 18.5321 39.135 14.9621 43.2576 13.7131L42.8259 12.3063ZM34.0164 22.7062C33.8528 24.0121 34.9416 25 36.1395 25V23.5294C35.7027 23.5294 35.4467 23.194 35.4851 22.8878L34.0164 22.7062ZM36.1395 25H56.8605V23.5294H36.1395V25ZM56.8605 25C58.0585 25 59.1472 24.0121 58.9836 22.7062L57.5148 22.8878C57.5532 23.194 57.2973 23.5294 56.8605 23.5294V25ZM58.9836 22.7062C58.3648 17.7653 54.8463 13.7219 50.174 12.3063L49.7424 13.7131C53.865 14.9621 56.9693 18.5321 57.5148 22.8878L58.9836 22.7062Z" fill="#5E2BA7"/>
</g>
<circle cx="46.5" cy="7.5" r="6.5" fill="#5E2BA7"/>
<path d="M47 20.5C47 24.0899 52.0899 24 48.5 24C44.9101 24 35 25.5899 35 22C36.5 18 40.4101 13 44 13C47.5899 13 47 16.9101 47 20.5Z" fill="#5E2BA7"/>
<path d="M45.7822 20.5C45.7822 24.0899 40.6924 24 44.2822 24C47.8721 24 58 26.0899 58 22.5C57.5 18.5 52.0899 12.5 48.5 12.5C44.9101 12.5 45.7822 16.9101 45.7822 20.5Z" fill="#5E2BA7"/>
<defs>
<filter id="filter0_d_238_999" x="0.666668" y="0" width="91.6667" height="91.6667" filterUnits="userSpaceOnUse" color-interpolation-filters="sRGB">
<feFlood flood-opacity="0" result="BackgroundImageFix"/>
<feColorMatrix in="SourceAlpha" type="matrix" values="0 0 0 0 0 0 0 0 0 0 0 0 0 0 0 0 0 0 127 0" result="hardAlpha"/>
<feOffset dy="33.3333"/>
<feGaussianBlur stdDeviation="16.6667"/>
<feColorMatrix type="matrix" values="0 0 0 0 0 0 0 0 0 0 0 0 0 0 0 0 0 0 0.1 0"/>
<feBlend mode="normal" in2="BackgroundImageFix" result="effect1_dropShadow_238_999"/>
<feBlend mode="normal" in="SourceGraphic" in2="effect1_dropShadow_238_999" result="shape"/>
</filter>
</defs>
</svg>
