<svg width="25" height="25" viewBox="0 0 25 25" fill="none" xmlns="http://www.w3.org/2000/svg">
<path fill-rule="evenodd" clip-rule="evenodd" d="M24 24C24 17.9249 18.8513 13 12.5 13C6.14873 13 1 17.9249 1 24H24Z" fill="#5E2BA7"/>
<path d="M15.9582 13.0097L15.5734 12.3816C15.3243 12.5324 15.1875 12.8143 15.2241 13.1018C15.2605 13.3891 15.4634 13.6285 15.7424 13.7131L15.9582 13.0097ZM9.04173 13.0097L9.25757 13.7131C9.5365 13.6285 9.73943 13.3891 9.77599 13.1018C9.8124 12.8143 9.67564 12.5324 9.42653 12.3816L9.04173 13.0097ZM18.4203 7.35294C18.4203 9.48234 17.282 11.3482 15.5734 12.3816L16.343 13.6378C18.4743 12.3487 19.9004 10.0166 19.9004 7.35294H18.4203ZM12.5 1.47059C15.7697 1.47059 18.4203 4.10421 18.4203 7.35294H19.9004C19.9004 3.29203 16.5871 0 12.5 0V1.47059ZM6.57973 7.35294C6.57973 4.10421 9.23032 1.47059 12.5 1.47059V0C8.41291 0 5.09967 3.29203 5.09967 7.35294H6.57973ZM9.42653 12.3816C7.71802 11.3482 6.57973 9.48235 6.57973 7.35294H5.09967C5.09967 10.0166 6.52565 12.3487 8.65694 13.6378L9.42653 12.3816ZM8.82591 12.3063C4.15371 13.7219 0.6352 17.7653 0.0163552 22.7062L1.48508 22.8878C2.03063 18.5321 5.13497 14.9621 9.25757 13.7131L8.82591 12.3063ZM0.0163552 22.7062C-0.147207 24.0121 0.941558 25 2.13954 25V23.5294C1.7027 23.5294 1.44675 23.194 1.48508 22.8878L0.0163552 22.7062ZM2.13954 25H22.8605V23.5294H2.13954V25ZM22.8605 25C24.0585 25 25.1472 24.0121 24.9836 22.7062L23.5148 22.8878C23.5532 23.194 23.2973 23.5294 22.8605 23.5294V25ZM24.9836 22.7062C24.3648 17.7653 20.8463 13.7219 16.174 12.3063L15.7424 13.7131C19.865 14.9621 22.9693 18.5321 23.5148 22.8878L24.9836 22.7062Z" fill="#5E2BA7"/>
<circle cx="12.5" cy="7.5" r="6.5" fill="#5E2BA7"/>
</svg>
