<svg width="25" height="25" viewBox="0 0 25 25" fill="none" xmlns="http://www.w3.org/2000/svg">
<path d="M14.2857 0.595238L14.8763 0.521405C14.8392 0.223536 14.586 0 14.2857 0V0.595238ZM10.7143 0.595238V0C10.414 0 10.1608 0.223536 10.1237 0.521405L10.7143 0.595238ZM14.6127 3.21136L14.0221 3.28518C14.0532 3.53392 14.2368 3.73651 14.4812 3.79189L14.6127 3.21136ZM17.5735 4.43855L17.256 4.94202C17.468 5.07574 17.741 5.0623 17.9389 4.9084L17.5735 4.43855ZM19.6552 2.81936L20.0762 2.39846C19.8639 2.18619 19.5268 2.1652 19.2898 2.34951L19.6552 2.81936ZM22.1806 5.34474L22.6505 5.71018C22.8348 5.47323 22.8138 5.13612 22.6015 4.92385L22.1806 5.34474ZM20.5614 7.42656L20.0915 7.06112C19.9377 7.25898 19.9243 7.53206 20.058 7.74408L20.5614 7.42656ZM21.7887 10.3873L21.2081 10.5188C21.2635 10.7632 21.4661 10.9468 21.7148 10.9779L21.7887 10.3873ZM24.4048 10.7143H25C25 10.414 24.7764 10.1608 24.4786 10.1237L24.4048 10.7143ZM24.4048 14.2857L24.4786 14.8763C24.7764 14.8392 25 14.586 25 14.2857H24.4048ZM21.7887 14.6127L21.7148 14.0221C21.4661 14.0532 21.2635 14.2368 21.2081 14.4812L21.7887 14.6127ZM20.5614 17.5735L20.058 17.256C19.9243 17.468 19.9377 17.7411 20.0915 17.9389L20.5614 17.5735ZM22.1806 19.6552L22.6015 20.0762C22.8138 19.8639 22.8348 19.5268 22.6505 19.2898L22.1806 19.6552ZM19.6552 22.1806L19.2898 22.6505C19.5268 22.8348 19.8639 22.8138 20.0762 22.6015L19.6552 22.1806ZM17.5735 20.5614L17.9389 20.0915C17.741 19.9377 17.468 19.9243 17.256 20.058L17.5735 20.5614ZM14.6127 21.7887L14.4812 21.2081C14.2368 21.2635 14.0532 21.4661 14.0221 21.7148L14.6127 21.7887ZM14.2857 24.4048V25C14.586 25 14.8392 24.7764 14.8763 24.4786L14.2857 24.4048ZM10.7143 24.4048L10.1237 24.4786C10.1608 24.7764 10.414 25 10.7143 25V24.4048ZM10.3873 21.7887L10.9779 21.7148C10.9468 21.4661 10.7632 21.2635 10.5188 21.2081L10.3873 21.7887ZM7.42657 20.5614L7.7441 20.058C7.53207 19.9243 7.259 19.9377 7.06113 20.0915L7.42657 20.5614ZM5.34475 22.1806L4.92386 22.6015C5.13613 22.8138 5.47324 22.8348 5.71019 22.6505L5.34475 22.1806ZM2.81937 19.6552L2.34952 19.2898C2.16521 19.5268 2.1862 19.8639 2.39848 20.0762L2.81937 19.6552ZM4.43856 17.5735L4.90842 17.9389C5.06231 17.7411 5.07575 17.468 4.94204 17.256L4.43856 17.5735ZM3.21136 14.6127L3.79189 14.4812C3.73651 14.2368 3.53392 14.0532 3.28518 14.0221L3.21136 14.6127ZM0.595238 14.2857H0C0 14.586 0.223536 14.8392 0.521405 14.8763L0.595238 14.2857ZM0.595238 10.7143L0.521405 10.1237C0.223536 10.1608 0 10.414 0 10.7143H0.595238ZM3.21136 10.3873L3.28518 10.9779C3.53392 10.9468 3.73651 10.7632 3.79189 10.5188L3.21136 10.3873ZM4.43856 7.42656L4.94204 7.74408C5.07575 7.53206 5.06231 7.25899 4.90842 7.06112L4.43856 7.42656ZM2.81937 5.34475L2.39848 4.92385C2.1862 5.13612 2.16521 5.47323 2.34951 5.71019L2.81937 5.34475ZM5.34475 2.81937L5.71019 2.34951C5.47324 2.16521 5.13612 2.1862 4.92386 2.39846L5.34475 2.81937ZM7.42657 4.43856L7.06113 4.9084C7.25899 5.0623 7.53207 5.07575 7.7441 4.94202L7.42657 4.43856ZM10.3873 3.21136L10.5188 3.79189C10.7632 3.73651 10.9468 3.53392 10.9779 3.28518L10.3873 3.21136ZM14.2857 0H10.7143V1.19048H14.2857V0ZM15.2033 3.13752L14.8763 0.521405L13.6951 0.669071L14.0221 3.28518L15.2033 3.13752ZM17.891 3.93508C16.938 3.33404 15.8773 2.88744 14.7442 2.63082L14.4812 3.79189C15.4798 4.01806 16.415 4.4117 17.256 4.94202L17.891 3.93508ZM17.9389 4.9084L20.0207 3.28921L19.2898 2.34951L17.208 3.9687L17.9389 4.9084ZM19.2344 3.24026L21.7598 5.76564L22.6015 4.92385L20.0762 2.39846L19.2344 3.24026ZM21.7108 4.9793L20.0915 7.06112L21.0313 7.792L22.6505 5.71018L21.7108 4.9793ZM22.3692 10.2558C22.1126 9.12277 21.666 8.06206 21.0649 7.10902L20.058 7.74408C20.5883 8.58498 20.9819 9.52018 21.2081 10.5188L22.3692 10.2558ZM24.4786 10.1237L21.8625 9.79663L21.7148 10.9779L24.331 11.3049L24.4786 10.1237ZM25 14.2857V10.7143H23.8095V14.2857H25ZM21.8625 15.2033L24.4786 14.8763L24.331 13.6951L21.7148 14.0221L21.8625 15.2033ZM21.0649 17.891C21.666 16.938 22.1126 15.8773 22.3692 14.7442L21.2081 14.4812C20.9819 15.4798 20.5883 16.415 20.058 17.256L21.0649 17.891ZM22.6505 19.2898L21.0313 17.208L20.0915 17.9389L21.7108 20.0207L22.6505 19.2898ZM20.0762 22.6015L22.6015 20.0762L21.7598 19.2344L19.2344 21.7598L20.0762 22.6015ZM17.208 21.0313L19.2898 22.6505L20.0207 21.7108L17.9389 20.0915L17.208 21.0313ZM14.7442 22.3692C15.8773 22.1126 16.938 21.666 17.891 21.0649L17.256 20.058C16.415 20.5883 15.4798 20.9819 14.4812 21.2081L14.7442 22.3692ZM14.8763 24.4786L15.2033 21.8625L14.0221 21.7148L13.6951 24.331L14.8763 24.4786ZM10.7143 25H14.2857V23.8095H10.7143V25ZM9.79663 21.8625L10.1237 24.4786L11.3049 24.331L10.9779 21.7148L9.79663 21.8625ZM7.10905 21.0649C8.06207 21.666 9.12279 22.1126 10.2558 22.3692L10.5188 21.2081C9.52019 20.9819 8.58499 20.5883 7.7441 20.058L7.10905 21.0649ZM5.71019 22.6505L7.79201 21.0313L7.06113 20.0915L4.97931 21.7108L5.71019 22.6505ZM2.39848 20.0762L4.92386 22.6015L5.76566 21.7598L3.24027 19.2344L2.39848 20.0762ZM3.96871 17.208L2.34952 19.2898L3.28923 20.0207L4.90842 17.9389L3.96871 17.208ZM2.63082 14.7442C2.88744 15.8773 3.33404 16.938 3.93508 17.891L4.94204 17.256C4.41171 16.415 4.01806 15.4798 3.79189 14.4812L2.63082 14.7442ZM0.521405 14.8763L3.13752 15.2033L3.28518 14.0221L0.669071 13.6951L0.521405 14.8763ZM0 10.7143V14.2857H1.19048V10.7143H0ZM3.13752 9.79663L0.521405 10.1237L0.669071 11.3049L3.28518 10.9779L3.13752 9.79663ZM3.93508 7.10904C3.33404 8.06206 2.88744 9.12277 2.63082 10.2558L3.79189 10.5188C4.01806 9.52019 4.4117 8.58498 4.94204 7.74408L3.93508 7.10904ZM2.34951 5.71019L3.9687 7.792L4.90842 7.06112L3.28923 4.97931L2.34951 5.71019ZM4.92386 2.39846L2.39848 4.92385L3.24026 5.76564L5.76564 3.24026L4.92386 2.39846ZM7.79201 3.9687L5.71019 2.34951L4.97931 3.28921L7.06113 4.9084L7.79201 3.9687ZM10.2558 2.63082C9.12277 2.88744 8.06207 3.33404 7.10905 3.93508L7.7441 4.94202C8.58499 4.4117 9.52019 4.01806 10.5188 3.79189L10.2558 2.63082ZM10.1237 0.521405L9.79663 3.13752L10.9779 3.28518L11.3049 0.669071L10.1237 0.521405Z" fill="#5E2BA7"/>
<path d="M12.5002 17.2618C15.1301 17.2618 17.2621 15.1299 17.2621 12.4999C17.2621 9.87001 15.1301 7.73804 12.5002 7.73804C9.87026 7.73804 7.73828 9.87001 7.73828 12.4999C7.73828 15.1299 9.87026 17.2618 12.5002 17.2618Z" stroke="#5E2BA7" stroke-linejoin="round"/>
</svg>
