<svg width="25" height="25" viewBox="0 0 25 25" fill="none" xmlns="http://www.w3.org/2000/svg">
<g clip-path="url(#clip0_254_102)">
<path d="M24.5756 13.5688L22.6924 12.5048C22.7301 11.8174 22.6924 11.13 22.57 10.452C22.5323 10.2072 22.4758 9.96239 22.4193 9.72699L24.0295 8.25806C24.1331 8.1639 24.1707 8.00382 24.1237 7.87199C23.8883 7.24111 23.5964 6.62906 23.2668 6.05467C23.1915 5.92284 23.0408 5.85693 22.8901 5.88518L20.7432 6.28066C20.1594 5.51795 19.4532 4.8494 18.6623 4.28442L18.973 1.97746C18.9918 1.83621 18.9259 1.69497 18.7941 1.61964C18.2574 1.30891 17.683 1.04525 17.0898 0.819264C16.9485 0.762766 16.779 0.809847 16.6849 0.922842L15.1689 2.76842C14.2272 2.57068 13.2668 2.5236 12.3063 2.61776L10.9033 0.414367C10.828 0.291957 10.6773 0.226043 10.5361 0.254292C9.9617 0.367286 9.38732 0.517945 8.84118 0.706269C8.69993 0.75335 8.59636 0.894593 8.59636 1.04525L8.6246 3.76653C7.82423 4.20909 7.08976 4.77407 6.44946 5.4332L3.6811 4.55749C3.53986 4.51041 3.37978 4.55749 3.29504 4.6799C2.95605 5.11305 2.64532 5.57444 2.36283 6.05467C2.2875 6.1865 2.29692 6.35599 2.4005 6.46898L4.34965 8.7477C4.04833 9.55749 3.86001 10.405 3.7941 11.2712L0.969237 12.4294C0.827994 12.4859 0.743248 12.6272 0.752664 12.7778C0.780913 13.2486 0.827994 13.7006 0.903323 14.1338C0.912739 14.1997 0.931572 14.2656 0.940988 14.3315L0.95982 14.4351C0.988069 14.5857 1.10106 14.6987 1.25172 14.7176L4.31199 15.226C4.58506 15.9982 4.9617 16.7326 5.4231 17.4106L4.0295 20.066C3.95417 20.1978 3.98242 20.3673 4.086 20.4803C4.49089 20.904 4.93346 21.2995 5.39485 21.6573C5.50784 21.7515 5.66792 21.7609 5.79975 21.6856L8.36095 20.179C9.04833 20.5933 9.79221 20.9134 10.5643 21.1488L11.1576 23.8607C11.1858 24.0114 11.3176 24.1243 11.4683 24.1432C11.9109 24.1903 12.3534 24.2185 12.8054 24.2185C12.9937 24.2185 13.182 24.2185 13.3704 24.2091C13.5116 24.2091 13.6434 24.1055 13.6905 23.9737L14.5851 21.4501C14.6604 21.4407 14.7357 21.4313 14.8205 21.4125C15.5643 21.2901 16.2894 21.0735 16.9768 20.7816L18.9448 22.2976C19.0672 22.3918 19.2272 22.4012 19.3591 22.3164C19.9146 21.9586 20.4513 21.5443 20.9598 21.0829C21.0728 20.9888 21.1011 20.8287 21.054 20.6969L20.2254 18.484C20.8186 17.8343 21.3176 17.1093 21.7131 16.3183L23.9636 16.2242C24.1142 16.2242 24.2367 16.1206 24.2837 15.9793C24.5003 15.339 24.6604 14.6611 24.764 13.9831C24.7828 13.8324 24.7169 13.6912 24.5851 13.6159L24.5756 13.5688ZM23.6623 15.4709L21.4495 15.565C21.3176 15.565 21.1952 15.6498 21.1387 15.7722C20.7338 16.6385 20.1877 17.42 19.5286 18.1074C19.4344 18.211 19.4061 18.3522 19.4532 18.484L20.2724 20.678C19.9146 20.9888 19.5474 21.2807 19.1613 21.5349L17.231 20.0471C17.1274 19.9624 16.9862 19.953 16.8638 20.0095C16.167 20.3296 15.4325 20.5556 14.6886 20.678C14.5474 20.7063 14.4061 20.7251 14.2649 20.7345C14.1331 20.7534 14.0107 20.8381 13.973 20.9699L13.0879 23.4746C12.6547 23.484 12.2216 23.4746 11.7979 23.437L11.2141 20.7722C11.1858 20.6404 11.0822 20.5368 10.9598 20.4991C10.1029 20.2731 9.29315 19.9153 8.54927 19.4445C8.43628 19.3692 8.29504 19.3692 8.17263 19.4445L5.63967 20.9417C5.33835 20.6969 5.04645 20.4426 4.7828 20.1695L6.15756 17.5518C6.22347 17.4294 6.21406 17.2882 6.12931 17.1752C5.60201 16.4501 5.19711 15.6498 4.91462 14.8023C4.87696 14.6799 4.76396 14.5857 4.63214 14.5575L1.60954 14.049C1.60954 14.049 1.60954 14.0302 1.60954 14.0114C1.55304 13.6818 1.51538 13.3334 1.48713 12.985L4.27432 11.8362C4.40615 11.7797 4.49089 11.6667 4.49089 11.5255C4.54739 10.5839 4.74513 9.67049 5.09353 8.8042C5.14061 8.68179 5.12178 8.54054 5.03703 8.43697L3.11613 6.1865C3.30445 5.88518 3.50219 5.58386 3.70935 5.30137L6.44946 6.16766C6.58129 6.20533 6.72253 6.16766 6.81669 6.0735C7.49466 5.34845 8.27621 4.74582 9.15191 4.28442C9.27432 4.21851 9.34024 4.0961 9.34024 3.96427L9.31199 1.29007C9.6698 1.17708 10.0464 1.0735 10.4231 0.998171L11.8073 3.18273C11.8826 3.29572 12.0144 3.36164 12.1557 3.3428C13.182 3.21098 14.2084 3.26747 15.2159 3.50288C15.3478 3.53113 15.489 3.48405 15.5738 3.38047L17.0709 1.56314C17.4664 1.72322 17.8619 1.91154 18.2291 2.10928L17.9184 4.39742C17.8996 4.52924 17.9655 4.67049 18.0785 4.74582C18.9448 5.32021 19.6886 6.03584 20.3007 6.87388C20.3854 6.98687 20.5173 7.04337 20.6585 7.01512L22.7677 6.61964C22.9937 7.02454 23.1915 7.44827 23.361 7.88141L21.7696 9.3315C21.666 9.42567 21.6284 9.55749 21.666 9.68932C21.7414 9.97181 21.8073 10.2637 21.8544 10.565C21.9674 11.2618 22.005 11.968 21.9579 12.6743C21.9485 12.8155 22.0144 12.9473 22.1368 13.0132L24.0013 14.0679C23.9165 14.5481 23.8035 15.0189 23.6623 15.4709Z" fill="#5E2BA7" stroke="#5E2BA7" stroke-width="0.5" stroke-miterlimit="10"/>
<path d="M16.5539 7.26928C15.2922 6.36532 13.7479 6.01692 12.2225 6.28058C9.06807 6.8173 6.93059 9.82107 7.46732 12.9755C7.73097 14.5009 8.56901 15.8474 9.83078 16.742C10.8289 17.4482 11.9871 17.8154 13.1829 17.8154C13.5125 17.8154 13.8327 17.7872 14.1622 17.7307C17.3167 17.1939 19.4541 14.1902 18.9174 11.0358C18.6538 9.51033 17.8157 8.16382 16.5539 7.26928ZM14.0398 17.0245C12.7027 17.2504 11.3468 16.9397 10.2357 16.1582C9.12457 15.3672 8.3901 14.1996 8.16411 12.8531C7.6933 10.0847 9.56713 7.44819 12.3355 6.97738C12.6274 6.93029 12.9099 6.90205 13.1924 6.90205C14.2376 6.90205 15.2639 7.2222 16.1302 7.84367C17.2413 8.63463 17.9758 9.80224 18.2018 11.1488C18.6726 13.9171 16.7988 16.5536 14.0304 17.0245H14.0398Z" fill="#5E2BA7" stroke="#5E2BA7" stroke-width="0.5" stroke-miterlimit="10"/>
<path d="M6.07393 8.34268C7.89126 8.34268 7.89126 5.51782 6.07393 5.51782C4.25661 5.51782 4.25661 8.34268 6.07393 8.34268Z" fill="#5E2BA7"/>
<path d="M11.525 17.1282C10.3385 17.0999 9.14265 17.0528 7.9468 17.034C7.3065 17.0246 6.67561 17.0999 6.11064 17.4201C5.59275 17.712 5.18785 18.1451 4.8112 18.5877L7.03343 20.3014C7.5984 19.4728 8.03154 18.5312 8.2952 17.5519C8.45527 16.9587 8.5306 16.356 8.39878 15.744C8.28578 15.2355 8.02213 14.7835 7.76789 14.3316C7.26883 13.4653 6.81685 12.4766 5.86582 12.0246C4.78296 11.5067 3.72834 11.7704 2.58898 11.7139L2.96563 14.4916C3.13512 14.454 3.13512 14.4446 2.97505 14.4634C3.05979 14.4634 3.15395 14.454 3.2387 14.454H3.37053C3.21045 14.4351 3.21987 14.4351 3.38936 14.4728C3.45527 14.4916 3.76601 14.6141 3.54943 14.5105C3.62476 14.5481 3.98258 14.8306 3.80367 14.6611C4.14265 14.9907 4.38748 15.6498 4.73588 16.1489C5.24435 16.8834 5.80932 17.486 6.68503 17.7591C6.85452 17.8156 7.03343 17.8438 7.20292 17.8909C7.26883 17.9097 7.33475 17.9286 7.40066 17.9568C7.27825 17.9003 7.28766 17.9097 7.43832 17.985C7.56073 18.051 7.67373 18.1169 7.78672 18.2016C7.5984 18.0604 7.97505 18.3994 8.01271 18.437C8.52119 18.9832 9.50989 18.9832 10.0089 18.437C10.5457 17.8532 10.5457 17.0152 10.0089 16.4408C9.39689 15.7817 8.60593 15.3391 7.73964 15.1131C7.6549 15.0943 7.28766 14.9719 7.53249 15.1131C7.41949 15.0378 7.31591 14.8965 7.23117 14.793C7.29708 14.8777 7.27825 14.8589 7.17467 14.7176C7.11817 14.6329 7.06168 14.5481 7.00518 14.4634C6.89218 14.2845 6.79802 14.1056 6.70386 13.9173C6.28955 13.1545 5.76224 12.4672 4.97128 12.0623C4.11441 11.6291 3.14454 11.5255 2.22175 11.7609C1.54378 11.9399 1.12006 12.6272 1.21422 13.3146C1.30838 14.002 1.89218 14.5011 2.5984 14.5387C3.00329 14.5576 3.38936 14.5199 3.79426 14.4916C4.00141 14.4822 4.20857 14.4728 4.41572 14.4916C4.18032 14.4728 4.53814 14.5199 4.59463 14.5387C4.47222 14.4728 4.49105 14.4822 4.6323 14.5576C4.53814 14.4728 4.54755 14.4822 4.66055 14.5952C4.53813 14.3881 4.72646 14.7082 4.74529 14.7459C4.94303 15.0754 5.13136 15.4238 5.3291 15.7534C5.40442 15.8852 5.47975 16.0265 5.55508 16.1583C5.63041 16.309 5.63983 16.3278 5.59275 16.2148C5.63041 16.309 5.64925 16.3937 5.66808 16.4879C5.63983 16.2242 5.59275 16.7233 5.63983 16.4879C5.60216 16.695 5.53625 16.8928 5.47975 17.0905C5.28201 17.7308 5.02778 18.2299 4.59463 18.8608C4.19915 19.4446 4.43456 20.2826 4.96186 20.6875C5.48917 21.0924 6.36488 21.1206 6.81685 20.5745C6.94868 20.4144 7.08992 20.2449 7.23117 20.0943C7.29708 20.0284 7.36299 19.9624 7.43832 19.8965C7.51365 19.8306 7.50424 19.8306 7.42891 19.906L7.5419 19.84C7.39124 19.8683 7.49482 19.84 7.58898 19.84C7.40066 19.8683 7.6549 19.84 7.73023 19.84C7.97505 19.84 8.21987 19.8495 8.46469 19.8589L11.525 19.9436C12.2594 19.9625 12.975 19.2751 12.9374 18.5312C12.8997 17.7873 12.3159 17.1376 11.525 17.1188V17.1282Z" fill="#5E2BA7"/>
<path d="M4.15206 7.82486C5.96938 7.82486 5.96938 5 4.15206 5C2.33473 5 2.33473 7.82486 4.15206 7.82486Z" fill="#5E2BA7"/>
<path d="M5.91378 9.35025C7.7311 9.35025 7.7311 6.52539 5.91378 6.52539C4.09645 6.52539 4.09645 9.35025 5.91378 9.35025Z" fill="#5E2BA7"/>
<path d="M4.98124 9.45391C4.99066 9.61398 4.98124 9.77406 4.96241 9.94355L5.00949 9.5669C4.96241 9.9153 4.87767 10.2637 4.81175 10.6121C4.73642 11.0547 4.67993 11.4878 4.64226 11.9304C4.61401 12.2788 4.6046 12.6177 4.6046 12.9661C4.6046 13.4652 4.62343 14.0113 4.92475 14.4351C5.32964 15.0189 6.00761 15.3014 6.68558 15.0095C6.95864 14.8965 7.2223 14.6987 7.36354 14.4351C7.55187 14.0773 7.5707 13.7383 7.50478 13.3428C7.33529 12.3164 7.14697 11.2806 7.00573 10.2543L7.05281 10.6309C7.02456 10.4332 7.01514 10.2449 7.03397 10.0471L6.98689 10.4238C7.00573 10.3202 7.02456 10.226 7.06222 10.1225L6.92098 10.4614C6.95864 10.3861 6.99631 10.3202 7.04339 10.2543L6.82682 10.5368L6.86448 10.4897C7.1093 10.2072 7.2788 9.87763 7.2788 9.49157C7.2788 9.14317 7.12814 8.72886 6.86448 8.49345C6.33718 8.00381 5.38614 7.90023 4.86825 8.49345C4.44452 8.9831 4.22795 9.52924 4.20912 10.179C4.19028 10.6498 4.30328 11.1206 4.37861 11.5726C4.51985 12.4106 4.65168 13.258 4.79292 14.0961L7.37296 13.0038C7.37296 13.0038 7.32588 12.9379 7.30704 12.9002L7.44829 13.2392C7.42945 13.1733 7.41062 13.1168 7.40121 13.0509L7.44829 13.4275C7.39179 12.7496 7.44829 12.0622 7.52362 11.3936L7.47654 11.7703C7.58011 11.0076 7.84377 10.226 7.79669 9.44449C7.77785 9.06784 7.65544 8.71944 7.38237 8.44637C7.13755 8.20155 6.73266 8.01323 6.38426 8.03206C5.65921 8.06031 4.92475 8.65353 4.97183 9.44449L4.98124 9.45391Z" fill="#5E2BA7"/>
<path d="M8.64415 2.45762C8.73831 2.72127 8.85131 2.96609 9.01138 3.20149C9.10554 3.34274 9.19971 3.47456 9.26562 3.63464L9.12438 3.29566C9.17146 3.41807 9.19971 3.54989 9.21854 3.6723L9.17146 3.29566C9.22795 3.77588 9.28445 4.23728 9.44453 4.69867C9.56694 5.04707 9.76468 5.34839 10.0942 5.54613C10.3956 5.72504 10.8475 5.80036 11.1865 5.68737C11.5255 5.57438 11.8551 5.36722 12.034 5.03765C12.2129 4.70809 12.3071 4.30319 12.1752 3.94537C12.0811 3.69114 12.0246 3.42748 11.9869 3.16383L12.034 3.54048C12.0057 3.28624 11.9775 3.02259 11.9304 2.76835C11.8833 2.53295 11.7797 2.30696 11.6667 2.0998C11.5443 1.87381 11.3748 1.67607 11.2713 1.44067L11.4125 1.77965C11.4125 1.77965 11.3937 1.73257 11.3843 1.71374C11.3372 1.52541 11.2524 1.36534 11.13 1.23351C11.0264 1.08285 10.8946 0.96044 10.7345 0.866278C10.4332 0.687371 9.98125 0.612041 9.64227 0.725035C9.30328 0.83803 8.97372 1.04519 8.79481 1.37475C8.6159 1.70432 8.52174 2.10922 8.65357 2.46703L8.64415 2.45762Z" fill="#5E2BA7"/>
<path d="M15.5749 2.32583C15.5655 2.57065 15.5184 2.78722 15.4525 3.02263C15.4243 3.12621 15.3866 3.22037 15.3489 3.31453C15.3207 3.39928 15.1512 3.54994 15.2924 3.42753L15.9139 3.06029C16.1117 3.05088 16.0834 3.04146 15.8103 3.05088C15.6597 3.05088 15.509 3.05088 15.3489 3.05088C15.0476 3.05088 14.7369 3.05088 14.4356 3.05088C13.8989 3.05088 13.3621 3.05088 12.8348 3.04146C11.6578 3.04146 10.4808 3.06029 9.39791 3.55935C7.60883 4.37856 6.71429 6.22414 6.04574 7.95672C5.848 8.47461 6.13991 9.13374 6.55422 9.44448C7.03445 9.80229 7.59942 9.81171 8.12672 9.55747C8.65403 9.30323 8.8706 8.85126 9.29433 8.52169C9.6804 8.22979 10.1512 8.01321 10.5844 7.81547C11.4506 7.41058 12.4017 7.14692 13.3339 6.98685C14.2661 6.82677 15.2548 6.79852 16.1964 6.9021C16.6013 6.94918 17.0439 7.0151 17.4017 7.23167C17.4488 7.25992 17.6559 7.41999 17.6371 7.40116C17.6936 7.46707 17.7972 7.82489 17.7783 7.60832C17.8537 8.37103 18.3715 9.02075 19.1908 9.02075C19.897 9.02075 20.6785 8.37103 20.6032 7.60832C20.2642 4.33148 16.6484 3.84184 13.9742 4.08666C12.6277 4.20907 11.3094 4.49156 10.057 5.00003C9.37908 5.2731 8.70111 5.57442 8.08906 5.96048C7.78774 6.14881 7.49584 6.36538 7.23219 6.60078C7.11919 6.70436 7.01561 6.82677 6.91203 6.93977L6.80846 7.06218C6.70488 7.20342 6.66721 7.22225 6.71429 7.12809L8.78586 8.71943C9.07776 7.97555 9.46382 7.10926 10.0382 6.53487C10.7162 5.8569 11.752 5.86632 12.7407 5.87574C13.3904 5.87574 14.0401 5.88515 14.6898 5.89457C15.3395 5.90399 16.0269 5.99815 16.6295 5.82866C17.9855 5.45201 18.3527 3.54994 18.4186 2.35408C18.4563 1.59137 17.7407 0.94165 17.0062 0.94165C16.2058 0.94165 15.6314 1.59137 15.5938 2.35408L15.5749 2.32583Z" fill="#5E2BA7"/>
<path d="M16.3658 7.0904C17.1191 8.34275 18.0419 9.7081 19.5862 10.0094C20.3018 10.1507 21.0833 10.0942 21.7142 9.69868C22.0532 9.48211 22.3074 9.20904 22.5429 8.89831C22.6841 8.70998 22.8253 8.44633 23.0231 8.30509C23.4751 7.97552 23.7105 7.25989 23.2114 6.82674C21.9873 5.74388 20.396 6.55367 19.8592 7.91902C19.6144 8.54049 19.5391 9.23729 19.6332 9.90584C19.6803 10.2542 19.7933 10.6026 19.9628 10.9134C20.1041 11.177 20.3583 11.3842 20.4713 11.6573C20.5655 11.8927 20.5278 12.1846 20.5278 12.4388C20.5278 12.7872 20.509 13.1356 20.5278 13.484C20.5654 14.322 21.0928 14.7834 21.8743 14.9812C21.9214 14.9906 22.2792 15.0753 22.2792 15.0942C22.2792 15.0942 22.1945 15.0283 22.185 14.9906C22.1474 14.8493 22.2227 14.887 22.3828 14.6422C22.6464 14.2373 22.6747 14.3315 22.3922 14.322C22.3169 14.322 22.2415 14.3126 22.1568 14.3032C21.959 14.2938 21.7613 14.275 21.5636 14.2655C21.2152 14.2467 20.8103 14.1525 20.4619 14.1902C20.4619 14.1902 20.3206 14.1902 20.33 14.1714C20.33 14.1808 20.5278 14.3126 20.509 14.322C20.509 14.322 20.4525 13.9925 20.4525 13.9736C20.4242 13.1356 20.5937 12.3352 20.4995 11.4972C20.4054 10.6591 20.1606 9.81168 19.8122 9.00189L18.7481 10.3861C19.1813 10.4896 19.3884 11.3183 19.5203 11.7797C19.7557 12.5989 19.831 13.4275 19.7933 14.275C19.7368 15.4896 21.6201 15.4802 21.6766 14.275C21.7331 13.0697 21.573 11.9303 21.1963 10.8286C20.8668 9.85876 20.3395 8.82298 19.2566 8.57816C18.3997 8.38042 17.8724 9.21846 18.1926 9.96234C18.4562 10.565 18.6163 11.2335 18.6634 11.8927C18.7105 12.6177 18.5504 13.3428 18.588 14.0678C18.6351 14.8682 18.9082 15.6591 19.718 15.9605C20.4054 16.2147 21.2717 16.1488 21.9967 16.1959C22.7594 16.2524 23.5881 16.1959 23.9364 15.3766C24.2472 14.6516 23.8517 13.823 23.1926 13.4557C22.9289 13.3145 22.5617 13.1638 22.2604 13.145C22.1003 13.1356 22.025 12.9473 22.2792 13.3333C22.5429 13.7288 22.3922 13.5782 22.4299 13.4369C22.4675 13.258 22.4299 13.0132 22.4299 12.8249C22.4299 12.0998 22.4675 11.3465 22.1097 10.6874C21.9496 10.3955 21.686 10.1789 21.5636 9.86817C21.46 9.60452 21.4694 9.31262 21.5071 9.03955C21.5447 8.80414 21.6106 8.49341 21.7801 8.30509C21.8461 8.22976 21.8743 8.23917 21.912 8.20151C21.959 8.15443 21.959 8.21092 21.8931 8.15443L22.0815 6.67608C21.6201 7.01507 21.3564 7.42938 20.9892 7.85311C20.7255 8.15443 20.4525 8.24859 20.0946 8.20151C19.0683 8.05085 18.4845 6.94915 18.0042 6.14878C17.3828 5.113 15.7538 6.05462 16.3752 7.09981L16.3658 7.0904Z" fill="#5E2BA7"/>
<path d="M20.2268 20.0188C19.869 19.6986 19.4735 19.3785 19.2287 18.9736C19.2099 18.9453 19.1157 18.7382 19.1063 18.7382C19.1063 18.7382 18.9085 19.0207 18.9274 19.0301C18.9745 19.0583 19.5583 18.6534 19.6242 18.6063C20.6317 17.9472 21.3379 17.1092 21.4886 15.8945C21.6016 14.9717 20.1232 14.6139 19.7372 15.4237C19.2381 16.4595 18.7956 17.5329 18.4283 18.6252L20.2739 18.8794C20.1797 18.1826 20.2739 17.5988 20.4999 16.9397C20.7259 16.2805 20.7824 15.612 20.3963 15.0188C20.0385 14.4726 19.3605 14.1619 18.7202 14.3691C18.0799 14.5762 17.7692 15.1506 17.5055 15.7344C17.2984 16.1958 17.0912 16.45 16.6016 16.5913C15.9895 16.7702 15.3492 16.8079 14.7278 16.9962C14.1063 17.1845 13.4848 17.4199 12.8351 17.5517C12.1854 17.6836 11.5168 17.8154 10.9424 18.1732C10.434 18.4934 9.8125 19.0583 9.8125 19.708C9.8125 20.1412 10.0197 20.5178 10.4057 20.725C10.5187 20.7815 10.6411 20.8286 10.7635 20.8474C10.9236 20.8945 10.9142 20.8851 10.7635 20.8097C10.7824 20.7627 10.8012 20.7909 10.8294 20.9039C10.8671 21.1016 10.9613 21.3182 10.9989 21.5254C11.0366 21.7608 11.0649 22.0056 11.1402 22.241C11.3379 22.9095 11.8652 23.6817 12.6562 23.5781C13.3153 23.4839 13.7202 22.8531 13.9368 22.2787C14.0592 21.9585 14.078 21.4218 14.3134 21.1676C14.6148 20.8474 15.4716 20.8286 15.8671 20.7909C16.5074 20.725 17.1948 20.7627 17.7692 20.4237C18.4472 20.0376 18.852 19.1807 18.3907 18.4839C17.9293 17.7871 17.0536 17.8625 16.3285 17.966C14.8596 18.1826 13.4942 18.9171 12.0065 18.9924C10.8012 19.0583 10.7918 20.9416 12.0065 20.8756C12.9952 20.8286 13.9368 20.5649 14.8784 20.273C15.3116 20.1412 15.7353 20.0094 16.1778 19.9058C16.3944 19.8587 16.611 19.8116 16.837 19.7834C16.9311 19.774 17.0536 19.7834 17.1383 19.7645C17.2513 19.7363 17.1383 19.7928 17.1101 19.7645L16.7711 19.4256L16.7522 19.3691V18.87C16.7899 18.6158 16.8746 18.8229 16.8087 18.7947C16.8652 18.8135 16.4698 18.8606 16.5168 18.8512C16.1778 18.8888 15.8295 18.8982 15.4905 18.9359C14.8313 19.0207 14.1345 19.1148 13.5413 19.4256C12.9763 19.7175 12.6374 20.2165 12.4208 20.8003C12.336 21.0357 12.2795 21.29 12.2042 21.5254C12.1854 21.5913 12.176 21.6478 12.1477 21.6949C12.1195 21.7514 12.0065 21.8455 12.063 21.8173L12.788 21.7231C13.0423 21.9397 13.1082 21.9491 12.9763 21.7608C12.9763 21.7043 12.9575 21.6384 12.9293 21.5819C12.8916 21.4406 12.8728 21.29 12.8539 21.1487C12.8068 20.8474 12.7504 20.5555 12.6279 20.273C12.5055 19.9905 12.3455 19.6892 12.1101 19.4632C11.8464 19.209 11.5451 19.1996 11.272 19.0207L11.7052 19.5856L11.6863 19.4538V19.9529C11.6298 20.0847 11.7617 19.9058 11.7805 19.887C11.8652 19.8305 11.95 19.7645 12.0347 19.7175C12.2325 19.6139 12.449 19.5574 12.675 19.5009C13.2682 19.3596 13.852 19.2655 14.4359 19.0772C14.9632 18.9077 15.4716 18.7193 16.0178 18.6252C16.5262 18.531 17.0347 18.4557 17.5244 18.2579C18.0705 18.032 18.5225 17.693 18.8615 17.2033C19.0027 16.9962 19.1063 16.7702 19.2099 16.5442C19.2664 16.4218 19.4359 16.177 19.4547 16.064C19.2287 15.9698 19.031 15.9698 18.852 16.064C18.8144 16.0828 18.805 16.0451 18.8238 15.9416C18.8144 15.9604 18.805 16.1111 18.805 16.1393C18.7485 16.4218 18.6072 16.6949 18.5319 16.9773C18.3718 17.5988 18.3342 18.2391 18.4189 18.8794C18.4848 19.3408 18.7296 19.7457 19.2381 19.8022C19.7183 19.8587 20.1232 19.5856 20.2739 19.1242C20.594 18.1826 20.9613 17.2598 21.3944 16.3653L19.643 15.8945C19.5865 16.3653 19.078 16.7419 18.7108 16.9773C18.1835 17.3257 17.5526 17.5706 17.336 18.2203C16.9217 19.4726 18.0893 20.5932 18.9368 21.337C19.8407 22.1374 21.1778 20.8097 20.2645 20.0094L20.2268 20.0188Z" fill="#5E2BA7"/>
<path d="M16.9774 19.8588C18.1921 19.8588 18.1921 17.9756 16.9774 17.9756C15.7627 17.9756 15.7627 19.8588 16.9774 19.8588Z" fill="#5E2BA7"/>
</g>
<defs>
<clipPath id="clip0_254_102">
<rect width="25" height="24.4256" fill="white"/>
</clipPath>
</defs>
</svg>
