<svg width="690" height="690" viewBox="0 0 690 690" fill="none" xmlns="http://www.w3.org/2000/svg">
<circle cx="345" cy="345" r="345" fill="#EFEFEF"/>
<g filter="url(#filter0_d_1104_114)">
<path d="M410.206 330.184L402.895 318.251C398.162 321.115 395.563 326.471 396.258 331.934C396.95 337.393 400.805 341.942 406.106 343.549L410.206 330.184ZM278.793 330.184L282.894 343.549C288.193 341.942 292.049 337.393 292.744 331.934C293.436 326.471 290.837 321.115 286.104 318.251L278.793 330.184ZM456.986 222.706C456.986 263.164 435.358 298.616 402.895 318.251L417.518 342.118C458.012 317.625 485.107 273.316 485.107 222.706H456.986ZM344.501 110.941C406.623 110.941 456.986 160.98 456.986 222.706H485.107C485.107 145.549 422.155 83 344.501 83V110.941ZM232.015 222.706C232.015 160.98 282.376 110.941 344.501 110.941V83C266.845 83 203.894 145.549 203.894 222.706H232.015ZM286.104 318.251C253.642 298.616 232.015 263.165 232.015 222.706H203.894C203.894 273.316 230.987 317.625 271.482 342.118L286.104 318.251ZM274.692 316.82C185.921 343.716 119.069 420.541 107.311 514.417L135.217 517.868C145.582 435.109 204.564 367.279 282.894 343.549L274.692 316.82ZM107.311 514.417C104.203 539.229 124.89 558 147.651 558V530.059C139.351 530.059 134.488 523.685 135.217 517.868L107.311 514.417ZM147.651 558H541.349V530.059H147.651V558ZM541.349 558C564.111 558 584.797 539.229 581.689 514.417L553.782 517.868C554.51 523.685 549.648 530.059 541.349 530.059V558ZM581.689 514.417C569.932 420.541 503.079 343.716 414.306 316.82L406.106 343.549C484.435 367.279 543.416 435.109 553.782 517.868L581.689 514.417Z" fill="#5E2BA7"/>
</g>
<circle cx="344.5" cy="225.5" r="123.5" fill="#5E2BA7"/>
<path d="M352.814 475.435C352.814 544.937 451.736 543.197 381.967 543.197C312.197 543.197 119.591 573.978 119.591 504.476C148.744 427.033 224.738 330.229 294.508 330.229C364.278 330.229 352.814 405.932 352.814 475.435Z" fill="#5E2BA7"/>
<path d="M330.861 472.5C330.861 540.707 234.154 539 302.361 539C370.568 539 562.999 578.707 562.999 510.5C553.499 434.5 450.706 320.5 382.499 320.5C314.292 320.5 330.861 404.293 330.861 472.5Z" fill="#5E2BA7"/>
<defs>
<filter id="filter0_d_1104_114" x="73.6667" y="83" width="541.667" height="541.667" filterUnits="userSpaceOnUse" color-interpolation-filters="sRGB">
<feFlood flood-opacity="0" result="BackgroundImageFix"/>
<feColorMatrix in="SourceAlpha" type="matrix" values="0 0 0 0 0 0 0 0 0 0 0 0 0 0 0 0 0 0 127 0" result="hardAlpha"/>
<feOffset dy="33.3333"/>
<feGaussianBlur stdDeviation="16.6667"/>
<feColorMatrix type="matrix" values="0 0 0 0 0 0 0 0 0 0 0 0 0 0 0 0 0 0 0.1 0"/>
<feBlend mode="normal" in2="BackgroundImageFix" result="effect1_dropShadow_1104_114"/>
<feBlend mode="normal" in="SourceGraphic" in2="effect1_dropShadow_1104_114" result="shape"/>
</filter>
</defs>
</svg>
